<svg xmlns="http://www.w3.org/2000/svg" viewBox="-45.099999999999994 -807.1 1215.2 882.2">
  <!-- Holological mark v2 RATIFIED 2026-07-13: milled ℋ (U+210B, Noto), rails 14, CANONICAL GOLD channel infill.
       Print rule: the gold channel prints as GOLD FOIL where the process allows; otherwise #E9C960. -->
  <g transform="scale(1,-1)"><clipPath id="g"><path d="M177 -10Q124 -10 92.5 5.5Q61 21 45.5 44.0Q30 67 25.0 89.5Q20 112 20 125Q20 173 45.5 200.5Q71 228 105 228Q141 228 154.5 211.5Q168 195 168 180Q168 152 149.5 139.5Q131 127 98 121Q76 117 67.5 109.5Q59 102 59 87Q59 80 62.0 67.0Q65 54 75.5 40.5Q86 27 108.0 17.5Q130 8 167 8Q231 8 277.5 53.5Q324 99 363 174Q373 194 384.5 216.5Q396 239 410 268Q345 243 308.0 216.0Q271 189 250 167Q243 160 238 160Q229 160 229 168Q229 174 236 181Q259 205 299.0 233.5Q339 262 420 289V290Q453 361 491.0 431.5Q529 502 593 581Q569 559 539.5 535.0Q510 511 480.5 490.0Q451 469 425.5 456.0Q400 443 384 443Q363 443 350.5 456.5Q338 470 338 490Q338 504 350.5 525.5Q363 547 377 568Q390 587 400.0 603.0Q410 619 410 623Q410 625 408.0 627.5Q406 630 397 630Q378 630 347.0 609.0Q316 588 279.5 551.5Q243 515 207 467Q202 459 196 459Q188 459 188 466Q188 469 190.0 472.0Q192 475 194 478Q224 517 261.0 556.0Q298 595 336.0 621.5Q374 648 405 648Q430 648 440.0 638.0Q450 628 452.0 616.5Q454 605 454 600Q454 590 452.0 579.0Q450 568 444 556Q438 544 424.0 525.5Q410 507 404 499Q390 480 390 474Q390 464 400 464Q412 464 444.5 485.0Q477 506 520.0 539.5Q563 573 607.5 611.0Q652 649 689 682Q698 691 704 691Q711 691 711 684Q711 680 699 666Q671 634 651.5 605.0Q632 576 616.0 540.5Q600 505 583.5 454.5Q567 404 545 328Q604 346 661 366Q700 436 747.0 503.5Q794 571 844.5 624.5Q895 678 944.0 710.0Q993 742 1035 742Q1105 742 1105 674Q1105 647 1079.0 602.0Q1053 557 998.0 508.5Q943 460 857 420Q838 411 814.5 401.5Q791 392 764 383Q736 321 714.0 262.5Q692 204 676.0 154.5Q660 105 651.5 72.0Q643 39 643 28Q643 22 648.0 15.5Q653 9 667 9Q684 9 708.0 24.5Q732 40 758.5 63.5Q785 87 809.0 112.5Q833 138 851 157Q859 165 864 165Q870 165 870 159Q870 154 864 148Q849 129 824.5 102.5Q800 76 771.5 50.5Q743 25 715.0 8.0Q687 -9 664 -9Q631 -9 602.0 20.5Q573 50 573 116Q573 155 594.0 216.0Q615 277 650 344Q623 335 595.0 326.5Q567 318 540 310Q522 251 493.0 194.5Q464 138 420.5 91.5Q377 45 316.5 17.5Q256 -10 177 -10ZM861 566Q816 496 774 406Q821 424 847 436Q881 452 920.0 484.0Q959 516 994.0 554.5Q1029 593 1051.0 629.0Q1073 665 1073 690Q1073 707 1061.5 715.0Q1050 723 1035 723Q1025 723 1001.5 713.5Q978 704 942.5 670.5Q907 637 861 566Z"/></clipPath><path d="M177 -10Q124 -10 92.5 5.5Q61 21 45.5 44.0Q30 67 25.0 89.5Q20 112 20 125Q20 173 45.5 200.5Q71 228 105 228Q141 228 154.5 211.5Q168 195 168 180Q168 152 149.5 139.5Q131 127 98 121Q76 117 67.5 109.5Q59 102 59 87Q59 80 62.0 67.0Q65 54 75.5 40.5Q86 27 108.0 17.5Q130 8 167 8Q231 8 277.5 53.5Q324 99 363 174Q373 194 384.5 216.5Q396 239 410 268Q345 243 308.0 216.0Q271 189 250 167Q243 160 238 160Q229 160 229 168Q229 174 236 181Q259 205 299.0 233.5Q339 262 420 289V290Q453 361 491.0 431.5Q529 502 593 581Q569 559 539.5 535.0Q510 511 480.5 490.0Q451 469 425.5 456.0Q400 443 384 443Q363 443 350.5 456.5Q338 470 338 490Q338 504 350.5 525.5Q363 547 377 568Q390 587 400.0 603.0Q410 619 410 623Q410 625 408.0 627.5Q406 630 397 630Q378 630 347.0 609.0Q316 588 279.5 551.5Q243 515 207 467Q202 459 196 459Q188 459 188 466Q188 469 190.0 472.0Q192 475 194 478Q224 517 261.0 556.0Q298 595 336.0 621.5Q374 648 405 648Q430 648 440.0 638.0Q450 628 452.0 616.5Q454 605 454 600Q454 590 452.0 579.0Q450 568 444 556Q438 544 424.0 525.5Q410 507 404 499Q390 480 390 474Q390 464 400 464Q412 464 444.5 485.0Q477 506 520.0 539.5Q563 573 607.5 611.0Q652 649 689 682Q698 691 704 691Q711 691 711 684Q711 680 699 666Q671 634 651.5 605.0Q632 576 616.0 540.5Q600 505 583.5 454.5Q567 404 545 328Q604 346 661 366Q700 436 747.0 503.5Q794 571 844.5 624.5Q895 678 944.0 710.0Q993 742 1035 742Q1105 742 1105 674Q1105 647 1079.0 602.0Q1053 557 998.0 508.5Q943 460 857 420Q838 411 814.5 401.5Q791 392 764 383Q736 321 714.0 262.5Q692 204 676.0 154.5Q660 105 651.5 72.0Q643 39 643 28Q643 22 648.0 15.5Q653 9 667 9Q684 9 708.0 24.5Q732 40 758.5 63.5Q785 87 809.0 112.5Q833 138 851 157Q859 165 864 165Q870 165 870 159Q870 154 864 148Q849 129 824.5 102.5Q800 76 771.5 50.5Q743 25 715.0 8.0Q687 -9 664 -9Q631 -9 602.0 20.5Q573 50 573 116Q573 155 594.0 216.0Q615 277 650 344Q623 335 595.0 326.5Q567 318 540 310Q522 251 493.0 194.5Q464 138 420.5 91.5Q377 45 316.5 17.5Q256 -10 177 -10ZM861 566Q816 496 774 406Q821 424 847 436Q881 452 920.0 484.0Q959 516 994.0 554.5Q1029 593 1051.0 629.0Q1073 665 1073 690Q1073 707 1061.5 715.0Q1050 723 1035 723Q1025 723 1001.5 713.5Q978 704 942.5 670.5Q907 637 861 566Z" fill="#F5F3EB"/><g clip-path="url(#g)"><path d="M177 -10Q124 -10 92.5 5.5Q61 21 45.5 44.0Q30 67 25.0 89.5Q20 112 20 125Q20 173 45.5 200.5Q71 228 105 228Q141 228 154.5 211.5Q168 195 168 180Q168 152 149.5 139.5Q131 127 98 121Q76 117 67.5 109.5Q59 102 59 87Q59 80 62.0 67.0Q65 54 75.5 40.5Q86 27 108.0 17.5Q130 8 167 8Q231 8 277.5 53.5Q324 99 363 174Q373 194 384.5 216.5Q396 239 410 268Q345 243 308.0 216.0Q271 189 250 167Q243 160 238 160Q229 160 229 168Q229 174 236 181Q259 205 299.0 233.5Q339 262 420 289V290Q453 361 491.0 431.5Q529 502 593 581Q569 559 539.5 535.0Q510 511 480.5 490.0Q451 469 425.5 456.0Q400 443 384 443Q363 443 350.5 456.5Q338 470 338 490Q338 504 350.5 525.5Q363 547 377 568Q390 587 400.0 603.0Q410 619 410 623Q410 625 408.0 627.5Q406 630 397 630Q378 630 347.0 609.0Q316 588 279.5 551.5Q243 515 207 467Q202 459 196 459Q188 459 188 466Q188 469 190.0 472.0Q192 475 194 478Q224 517 261.0 556.0Q298 595 336.0 621.5Q374 648 405 648Q430 648 440.0 638.0Q450 628 452.0 616.5Q454 605 454 600Q454 590 452.0 579.0Q450 568 444 556Q438 544 424.0 525.5Q410 507 404 499Q390 480 390 474Q390 464 400 464Q412 464 444.5 485.0Q477 506 520.0 539.5Q563 573 607.5 611.0Q652 649 689 682Q698 691 704 691Q711 691 711 684Q711 680 699 666Q671 634 651.5 605.0Q632 576 616.0 540.5Q600 505 583.5 454.5Q567 404 545 328Q604 346 661 366Q700 436 747.0 503.5Q794 571 844.5 624.5Q895 678 944.0 710.0Q993 742 1035 742Q1105 742 1105 674Q1105 647 1079.0 602.0Q1053 557 998.0 508.5Q943 460 857 420Q838 411 814.5 401.5Q791 392 764 383Q736 321 714.0 262.5Q692 204 676.0 154.5Q660 105 651.5 72.0Q643 39 643 28Q643 22 648.0 15.5Q653 9 667 9Q684 9 708.0 24.5Q732 40 758.5 63.5Q785 87 809.0 112.5Q833 138 851 157Q859 165 864 165Q870 165 870 159Q870 154 864 148Q849 129 824.5 102.5Q800 76 771.5 50.5Q743 25 715.0 8.0Q687 -9 664 -9Q631 -9 602.0 20.5Q573 50 573 116Q573 155 594.0 216.0Q615 277 650 344Q623 335 595.0 326.5Q567 318 540 310Q522 251 493.0 194.5Q464 138 420.5 91.5Q377 45 316.5 17.5Q256 -10 177 -10ZM861 566Q816 496 774 406Q821 424 847 436Q881 452 920.0 484.0Q959 516 994.0 554.5Q1029 593 1051.0 629.0Q1073 665 1073 690Q1073 707 1061.5 715.0Q1050 723 1035 723Q1025 723 1001.5 713.5Q978 704 942.5 670.5Q907 637 861 566Z" fill="#E9C960"/><path d="M177 -10Q124 -10 92.5 5.5Q61 21 45.5 44.0Q30 67 25.0 89.5Q20 112 20 125Q20 173 45.5 200.5Q71 228 105 228Q141 228 154.5 211.5Q168 195 168 180Q168 152 149.5 139.5Q131 127 98 121Q76 117 67.5 109.5Q59 102 59 87Q59 80 62.0 67.0Q65 54 75.5 40.5Q86 27 108.0 17.5Q130 8 167 8Q231 8 277.5 53.5Q324 99 363 174Q373 194 384.5 216.5Q396 239 410 268Q345 243 308.0 216.0Q271 189 250 167Q243 160 238 160Q229 160 229 168Q229 174 236 181Q259 205 299.0 233.5Q339 262 420 289V290Q453 361 491.0 431.5Q529 502 593 581Q569 559 539.5 535.0Q510 511 480.5 490.0Q451 469 425.5 456.0Q400 443 384 443Q363 443 350.5 456.5Q338 470 338 490Q338 504 350.5 525.5Q363 547 377 568Q390 587 400.0 603.0Q410 619 410 623Q410 625 408.0 627.5Q406 630 397 630Q378 630 347.0 609.0Q316 588 279.5 551.5Q243 515 207 467Q202 459 196 459Q188 459 188 466Q188 469 190.0 472.0Q192 475 194 478Q224 517 261.0 556.0Q298 595 336.0 621.5Q374 648 405 648Q430 648 440.0 638.0Q450 628 452.0 616.5Q454 605 454 600Q454 590 452.0 579.0Q450 568 444 556Q438 544 424.0 525.5Q410 507 404 499Q390 480 390 474Q390 464 400 464Q412 464 444.5 485.0Q477 506 520.0 539.5Q563 573 607.5 611.0Q652 649 689 682Q698 691 704 691Q711 691 711 684Q711 680 699 666Q671 634 651.5 605.0Q632 576 616.0 540.5Q600 505 583.5 454.5Q567 404 545 328Q604 346 661 366Q700 436 747.0 503.5Q794 571 844.5 624.5Q895 678 944.0 710.0Q993 742 1035 742Q1105 742 1105 674Q1105 647 1079.0 602.0Q1053 557 998.0 508.5Q943 460 857 420Q838 411 814.5 401.5Q791 392 764 383Q736 321 714.0 262.5Q692 204 676.0 154.5Q660 105 651.5 72.0Q643 39 643 28Q643 22 648.0 15.5Q653 9 667 9Q684 9 708.0 24.5Q732 40 758.5 63.5Q785 87 809.0 112.5Q833 138 851 157Q859 165 864 165Q870 165 870 159Q870 154 864 148Q849 129 824.5 102.5Q800 76 771.5 50.5Q743 25 715.0 8.0Q687 -9 664 -9Q631 -9 602.0 20.5Q573 50 573 116Q573 155 594.0 216.0Q615 277 650 344Q623 335 595.0 326.5Q567 318 540 310Q522 251 493.0 194.5Q464 138 420.5 91.5Q377 45 316.5 17.5Q256 -10 177 -10ZM861 566Q816 496 774 406Q821 424 847 436Q881 452 920.0 484.0Q959 516 994.0 554.5Q1029 593 1051.0 629.0Q1073 665 1073 690Q1073 707 1061.5 715.0Q1050 723 1035 723Q1025 723 1001.5 713.5Q978 704 942.5 670.5Q907 637 861 566Z" fill="none" stroke="#F5F3EB" stroke-width="28" stroke-linejoin="round"/></g></g>
</svg>
