<svg viewBox="0 0 390 250" xmlns="http://www.w3.org/2000/svg"><rect width="390" height="250" fill="#16161D"></rect><line x1="0" y1="16.0" x2="390" y2="16.0" stroke="#1F1F2A" stroke-width="0.8" opacity="1"></line><line x1="0" y1="30.5" x2="390" y2="30.5" stroke="#1F1F2A" stroke-width="0.8" opacity="1"></line><line x1="0" y1="45.1" x2="390" y2="45.1" stroke="#1F1F2A" stroke-width="0.8" opacity="1"></line><line x1="0" y1="59.6" x2="390" y2="59.6" stroke="#1F1F2A" stroke-width="0.8" opacity="1"></line><line x1="0" y1="74.1" x2="390" y2="74.1" stroke="#1F1F2A" stroke-width="0.8" opacity="1"></line><line x1="0" y1="88.7" x2="390" y2="88.7" stroke="#1F1F2A" stroke-width="0.8" opacity="1"></line><line x1="0" y1="103.2" x2="390" y2="103.2" stroke="#1F1F2A" stroke-width="0.8" opacity="1"></line><line x1="0" y1="117.7" x2="390" y2="117.7" stroke="#1F1F2A" stroke-width="0.8" opacity="1"></line><line x1="0" y1="132.3" x2="390" y2="132.3" stroke="#1F1F2A" stroke-width="0.8" opacity="1"></line><line x1="0" y1="146.8" x2="390" y2="146.8" stroke="#1F1F2A" stroke-width="0.8" opacity="1"></line><line x1="0" y1="161.3" x2="390" y2="161.3" stroke="#1F1F2A" stroke-width="0.8" opacity="1"></line><line x1="0" y1="175.9" x2="390" y2="175.9" stroke="#1F1F2A" stroke-width="0.8" opacity="1"></line><line x1="0" y1="190.4" x2="390" y2="190.4" stroke="#1F1F2A" stroke-width="0.8" opacity="1"></line><line x1="0" y1="204.9" x2="390" y2="204.9" stroke="#1F1F2A" stroke-width="0.8" opacity="1"></line><line x1="0" y1="219.5" x2="390" y2="219.5" stroke="#1F1F2A" stroke-width="0.8" opacity="1"></line><line x1="0" y1="234.0" x2="390" y2="234.0" stroke="#1F1F2A" stroke-width="0.8" opacity="1"></line><line x1="21.6" y1="16.0" x2="21.6" y2="30.5" stroke="#1F1F2A" stroke-width="0.8" opacity="1"></line>
        <circle cx="21.6" cy="16.0" r="1.4" fill="#1F1F2A"></circle>
        <circle cx="21.6" cy="30.5" r="1.4" fill="#1F1F2A"></circle><line x1="27.2" y1="45.1" x2="27.2" y2="59.6" stroke="#1F1F2A" stroke-width="0.8" opacity="1"></line>
        <circle cx="27.2" cy="45.1" r="1.4" fill="#1F1F2A"></circle>
        <circle cx="27.2" cy="59.6" r="1.4" fill="#1F1F2A"></circle><line x1="32.8" y1="16.0" x2="32.8" y2="45.1" stroke="#1F1F2A" stroke-width="0.8" opacity="1"></line>
        <circle cx="32.8" cy="16.0" r="1.4" fill="#1F1F2A"></circle>
        <circle cx="32.8" cy="45.1" r="1.4" fill="#1F1F2A"></circle><line x1="38.4" y1="30.5" x2="38.4" y2="59.6" stroke="#1F1F2A" stroke-width="0.8" opacity="1"></line>
        <circle cx="38.4" cy="30.5" r="1.4" fill="#1F1F2A"></circle>
        <circle cx="38.4" cy="59.6" r="1.4" fill="#1F1F2A"></circle><line x1="44.0" y1="30.5" x2="44.0" y2="45.1" stroke="#1F1F2A" stroke-width="0.8" opacity="1"></line>
        <circle cx="44.0" cy="30.5" r="1.4" fill="#1F1F2A"></circle>
        <circle cx="44.0" cy="45.1" r="1.4" fill="#1F1F2A"></circle><line x1="49.6" y1="74.1" x2="49.6" y2="88.7" stroke="#1F1F2A" stroke-width="0.8" opacity="1"></line>
        <circle cx="49.6" cy="74.1" r="1.4" fill="#1F1F2A"></circle>
        <circle cx="49.6" cy="88.7" r="1.4" fill="#1F1F2A"></circle><line x1="55.2" y1="103.2" x2="55.2" y2="117.7" stroke="#1F1F2A" stroke-width="0.8" opacity="1"></line>
        <circle cx="55.2" cy="103.2" r="1.4" fill="#1F1F2A"></circle>
        <circle cx="55.2" cy="117.7" r="1.4" fill="#1F1F2A"></circle><line x1="60.8" y1="74.1" x2="60.8" y2="103.2" stroke="#1F1F2A" stroke-width="0.8" opacity="1"></line>
        <circle cx="60.8" cy="74.1" r="1.4" fill="#1F1F2A"></circle>
        <circle cx="60.8" cy="103.2" r="1.4" fill="#1F1F2A"></circle><line x1="66.3" y1="88.7" x2="66.3" y2="117.7" stroke="#1F1F2A" stroke-width="0.8" opacity="1"></line>
        <circle cx="66.3" cy="88.7" r="1.4" fill="#1F1F2A"></circle>
        <circle cx="66.3" cy="117.7" r="1.4" fill="#1F1F2A"></circle><line x1="71.9" y1="88.7" x2="71.9" y2="103.2" stroke="#1F1F2A" stroke-width="0.8" opacity="1"></line>
        <circle cx="71.9" cy="88.7" r="1.4" fill="#1F1F2A"></circle>
        <circle cx="71.9" cy="103.2" r="1.4" fill="#1F1F2A"></circle><line x1="77.5" y1="16.0" x2="77.5" y2="74.1" stroke="#1F1F2A" stroke-width="0.8" opacity="1"></line>
        <circle cx="77.5" cy="16.0" r="1.4" fill="#1F1F2A"></circle>
        <circle cx="77.5" cy="74.1" r="1.4" fill="#1F1F2A"></circle><line x1="83.1" y1="45.1" x2="83.1" y2="103.2" stroke="#1F1F2A" stroke-width="0.8" opacity="1"></line>
        <circle cx="83.1" cy="45.1" r="1.4" fill="#1F1F2A"></circle>
        <circle cx="83.1" cy="103.2" r="1.4" fill="#1F1F2A"></circle><line x1="88.7" y1="45.1" x2="88.7" y2="74.1" stroke="#1F1F2A" stroke-width="0.8" opacity="1"></line>
        <circle cx="88.7" cy="45.1" r="1.4" fill="#1F1F2A"></circle>
        <circle cx="88.7" cy="74.1" r="1.4" fill="#1F1F2A"></circle><line x1="94.3" y1="30.5" x2="94.3" y2="88.7" stroke="#1F1F2A" stroke-width="0.8" opacity="1"></line>
        <circle cx="94.3" cy="30.5" r="1.4" fill="#1F1F2A"></circle>
        <circle cx="94.3" cy="88.7" r="1.4" fill="#1F1F2A"></circle><line x1="99.9" y1="59.6" x2="99.9" y2="117.7" stroke="#1F1F2A" stroke-width="0.8" opacity="1"></line>
        <circle cx="99.9" cy="59.6" r="1.4" fill="#1F1F2A"></circle>
        <circle cx="99.9" cy="117.7" r="1.4" fill="#1F1F2A"></circle><line x1="105.5" y1="59.6" x2="105.5" y2="88.7" stroke="#1F1F2A" stroke-width="0.8" opacity="1"></line>
        <circle cx="105.5" cy="59.6" r="1.4" fill="#1F1F2A"></circle>
        <circle cx="105.5" cy="88.7" r="1.4" fill="#1F1F2A"></circle><line x1="111.1" y1="30.5" x2="111.1" y2="45.1" stroke="#1F1F2A" stroke-width="0.8" opacity="1"></line>
        <circle cx="111.1" cy="30.5" r="1.4" fill="#1F1F2A"></circle>
        <circle cx="111.1" cy="45.1" r="1.4" fill="#1F1F2A"></circle><line x1="116.7" y1="59.6" x2="116.7" y2="74.1" stroke="#1F1F2A" stroke-width="0.8" opacity="1"></line>
        <circle cx="116.7" cy="59.6" r="1.4" fill="#1F1F2A"></circle>
        <circle cx="116.7" cy="74.1" r="1.4" fill="#1F1F2A"></circle><line x1="122.3" y1="88.7" x2="122.3" y2="103.2" stroke="#1F1F2A" stroke-width="0.8" opacity="1"></line>
        <circle cx="122.3" cy="88.7" r="1.4" fill="#1F1F2A"></circle>
        <circle cx="122.3" cy="103.2" r="1.4" fill="#1F1F2A"></circle><line x1="127.9" y1="132.3" x2="127.9" y2="146.8" stroke="#1F1F2A" stroke-width="0.8" opacity="1"></line>
        <circle cx="127.9" cy="132.3" r="1.4" fill="#1F1F2A"></circle>
        <circle cx="127.9" cy="146.8" r="1.4" fill="#1F1F2A"></circle><line x1="133.5" y1="161.3" x2="133.5" y2="175.9" stroke="#1F1F2A" stroke-width="0.8" opacity="1"></line>
        <circle cx="133.5" cy="161.3" r="1.4" fill="#1F1F2A"></circle>
        <circle cx="133.5" cy="175.9" r="1.4" fill="#1F1F2A"></circle><line x1="139.1" y1="132.3" x2="139.1" y2="161.3" stroke="#1F1F2A" stroke-width="0.8" opacity="1"></line>
        <circle cx="139.1" cy="132.3" r="1.4" fill="#1F1F2A"></circle>
        <circle cx="139.1" cy="161.3" r="1.4" fill="#1F1F2A"></circle><line x1="144.7" y1="146.8" x2="144.7" y2="175.9" stroke="#1F1F2A" stroke-width="0.8" opacity="1"></line>
        <circle cx="144.7" cy="146.8" r="1.4" fill="#1F1F2A"></circle>
        <circle cx="144.7" cy="175.9" r="1.4" fill="#1F1F2A"></circle><line x1="150.3" y1="146.8" x2="150.3" y2="161.3" stroke="#1F1F2A" stroke-width="0.8" opacity="1"></line>
        <circle cx="150.3" cy="146.8" r="1.4" fill="#1F1F2A"></circle>
        <circle cx="150.3" cy="161.3" r="1.4" fill="#1F1F2A"></circle><line x1="155.8" y1="190.4" x2="155.8" y2="204.9" stroke="#1F1F2A" stroke-width="0.8" opacity="1"></line>
        <circle cx="155.8" cy="190.4" r="1.4" fill="#1F1F2A"></circle>
        <circle cx="155.8" cy="204.9" r="1.4" fill="#1F1F2A"></circle><line x1="161.4" y1="219.5" x2="161.4" y2="234.0" stroke="#1F1F2A" stroke-width="0.8" opacity="1"></line>
        <circle cx="161.4" cy="219.5" r="1.4" fill="#1F1F2A"></circle>
        <circle cx="161.4" cy="234.0" r="1.4" fill="#1F1F2A"></circle><line x1="167.0" y1="190.4" x2="167.0" y2="219.5" stroke="#1F1F2A" stroke-width="0.8" opacity="1"></line>
        <circle cx="167.0" cy="190.4" r="1.4" fill="#1F1F2A"></circle>
        <circle cx="167.0" cy="219.5" r="1.4" fill="#1F1F2A"></circle><line x1="172.6" y1="204.9" x2="172.6" y2="234.0" stroke="#1F1F2A" stroke-width="0.8" opacity="1"></line>
        <circle cx="172.6" cy="204.9" r="1.4" fill="#1F1F2A"></circle>
        <circle cx="172.6" cy="234.0" r="1.4" fill="#1F1F2A"></circle><line x1="178.2" y1="204.9" x2="178.2" y2="219.5" stroke="#1F1F2A" stroke-width="0.8" opacity="1"></line>
        <circle cx="178.2" cy="204.9" r="1.4" fill="#1F1F2A"></circle>
        <circle cx="178.2" cy="219.5" r="1.4" fill="#1F1F2A"></circle><line x1="183.8" y1="132.3" x2="183.8" y2="190.4" stroke="#1F1F2A" stroke-width="0.8" opacity="1"></line>
        <circle cx="183.8" cy="132.3" r="1.4" fill="#1F1F2A"></circle>
        <circle cx="183.8" cy="190.4" r="1.4" fill="#1F1F2A"></circle><line x1="189.4" y1="161.3" x2="189.4" y2="219.5" stroke="#1F1F2A" stroke-width="0.8" opacity="1"></line>
        <circle cx="189.4" cy="161.3" r="1.4" fill="#1F1F2A"></circle>
        <circle cx="189.4" cy="219.5" r="1.4" fill="#1F1F2A"></circle><line x1="195.0" y1="161.3" x2="195.0" y2="190.4" stroke="#1F1F2A" stroke-width="0.8" opacity="1"></line>
        <circle cx="195.0" cy="161.3" r="1.4" fill="#1F1F2A"></circle>
        <circle cx="195.0" cy="190.4" r="1.4" fill="#1F1F2A"></circle><line x1="200.6" y1="146.8" x2="200.6" y2="204.9" stroke="#1F1F2A" stroke-width="0.8" opacity="1"></line>
        <circle cx="200.6" cy="146.8" r="1.4" fill="#1F1F2A"></circle>
        <circle cx="200.6" cy="204.9" r="1.4" fill="#1F1F2A"></circle><line x1="206.2" y1="175.9" x2="206.2" y2="234.0" stroke="#1F1F2A" stroke-width="0.8" opacity="1"></line>
        <circle cx="206.2" cy="175.9" r="1.4" fill="#1F1F2A"></circle>
        <circle cx="206.2" cy="234.0" r="1.4" fill="#1F1F2A"></circle><line x1="211.8" y1="175.9" x2="211.8" y2="204.9" stroke="#1F1F2A" stroke-width="0.8" opacity="1"></line>
        <circle cx="211.8" cy="175.9" r="1.4" fill="#1F1F2A"></circle>
        <circle cx="211.8" cy="204.9" r="1.4" fill="#1F1F2A"></circle><line x1="217.4" y1="146.8" x2="217.4" y2="161.3" stroke="#1F1F2A" stroke-width="0.8" opacity="1"></line>
        <circle cx="217.4" cy="146.8" r="1.4" fill="#1F1F2A"></circle>
        <circle cx="217.4" cy="161.3" r="1.4" fill="#1F1F2A"></circle><line x1="223.0" y1="175.9" x2="223.0" y2="190.4" stroke="#1F1F2A" stroke-width="0.8" opacity="1"></line>
        <circle cx="223.0" cy="175.9" r="1.4" fill="#1F1F2A"></circle>
        <circle cx="223.0" cy="190.4" r="1.4" fill="#1F1F2A"></circle><line x1="228.6" y1="204.9" x2="228.6" y2="219.5" stroke="#1F1F2A" stroke-width="0.8" opacity="1"></line>
        <circle cx="228.6" cy="204.9" r="1.4" fill="#1F1F2A"></circle>
        <circle cx="228.6" cy="219.5" r="1.4" fill="#1F1F2A"></circle><line x1="234.2" y1="16.0" x2="234.2" y2="132.3" stroke="#1F1F2A" stroke-width="0.8" opacity="1"></line>
        <circle cx="234.2" cy="16.0" r="1.4" fill="#1F1F2A"></circle>
        <circle cx="234.2" cy="132.3" r="1.4" fill="#1F1F2A"></circle><line x1="239.8" y1="74.1" x2="239.8" y2="190.4" stroke="#1F1F2A" stroke-width="0.8" opacity="1"></line>
        <circle cx="239.8" cy="74.1" r="1.4" fill="#1F1F2A"></circle>
        <circle cx="239.8" cy="190.4" r="1.4" fill="#1F1F2A"></circle><line x1="245.3" y1="74.1" x2="245.3" y2="132.3" stroke="#1F1F2A" stroke-width="0.8" opacity="1"></line>
        <circle cx="245.3" cy="74.1" r="1.4" fill="#1F1F2A"></circle>
        <circle cx="245.3" cy="132.3" r="1.4" fill="#1F1F2A"></circle><line x1="250.9" y1="45.1" x2="250.9" y2="161.3" stroke="#1F1F2A" stroke-width="0.8" opacity="1"></line>
        <circle cx="250.9" cy="45.1" r="1.4" fill="#1F1F2A"></circle>
        <circle cx="250.9" cy="161.3" r="1.4" fill="#1F1F2A"></circle><line x1="256.5" y1="103.2" x2="256.5" y2="219.5" stroke="#1F1F2A" stroke-width="0.8" opacity="1"></line>
        <circle cx="256.5" cy="103.2" r="1.4" fill="#1F1F2A"></circle>
        <circle cx="256.5" cy="219.5" r="1.4" fill="#1F1F2A"></circle><line x1="262.1" y1="103.2" x2="262.1" y2="161.3" stroke="#1F1F2A" stroke-width="0.8" opacity="1"></line>
        <circle cx="262.1" cy="103.2" r="1.4" fill="#1F1F2A"></circle>
        <circle cx="262.1" cy="161.3" r="1.4" fill="#1F1F2A"></circle><line x1="267.7" y1="45.1" x2="267.7" y2="74.1" stroke="#1F1F2A" stroke-width="0.8" opacity="1"></line>
        <circle cx="267.7" cy="45.1" r="1.4" fill="#1F1F2A"></circle>
        <circle cx="267.7" cy="74.1" r="1.4" fill="#1F1F2A"></circle><line x1="273.3" y1="103.2" x2="273.3" y2="132.3" stroke="#1F1F2A" stroke-width="0.8" opacity="1"></line>
        <circle cx="273.3" cy="103.2" r="1.4" fill="#1F1F2A"></circle>
        <circle cx="273.3" cy="132.3" r="1.4" fill="#1F1F2A"></circle><line x1="278.9" y1="161.3" x2="278.9" y2="190.4" stroke="#1F1F2A" stroke-width="0.8" opacity="1"></line>
        <circle cx="278.9" cy="161.3" r="1.4" fill="#1F1F2A"></circle>
        <circle cx="278.9" cy="190.4" r="1.4" fill="#1F1F2A"></circle><line x1="284.5" y1="30.5" x2="284.5" y2="146.8" stroke="#1F1F2A" stroke-width="0.8" opacity="1"></line>
        <circle cx="284.5" cy="30.5" r="1.4" fill="#1F1F2A"></circle>
        <circle cx="284.5" cy="146.8" r="1.4" fill="#1F1F2A"></circle><line x1="290.1" y1="88.7" x2="290.1" y2="204.9" stroke="#1F1F2A" stroke-width="0.8" opacity="1"></line>
        <circle cx="290.1" cy="88.7" r="1.4" fill="#1F1F2A"></circle>
        <circle cx="290.1" cy="204.9" r="1.4" fill="#1F1F2A"></circle><line x1="295.7" y1="88.7" x2="295.7" y2="146.8" stroke="#1F1F2A" stroke-width="0.8" opacity="1"></line>
        <circle cx="295.7" cy="88.7" r="1.4" fill="#1F1F2A"></circle>
        <circle cx="295.7" cy="146.8" r="1.4" fill="#1F1F2A"></circle><line x1="301.3" y1="59.6" x2="301.3" y2="175.9" stroke="#1F1F2A" stroke-width="0.8" opacity="1"></line>
        <circle cx="301.3" cy="59.6" r="1.4" fill="#1F1F2A"></circle>
        <circle cx="301.3" cy="175.9" r="1.4" fill="#1F1F2A"></circle><line x1="306.9" y1="117.7" x2="306.9" y2="234.0" stroke="#1F1F2A" stroke-width="0.8" opacity="1"></line>
        <circle cx="306.9" cy="117.7" r="1.4" fill="#1F1F2A"></circle>
        <circle cx="306.9" cy="234.0" r="1.4" fill="#1F1F2A"></circle><line x1="312.5" y1="117.7" x2="312.5" y2="175.9" stroke="#1F1F2A" stroke-width="0.8" opacity="1"></line>
        <circle cx="312.5" cy="117.7" r="1.4" fill="#1F1F2A"></circle>
        <circle cx="312.5" cy="175.9" r="1.4" fill="#1F1F2A"></circle><line x1="318.1" y1="59.6" x2="318.1" y2="88.7" stroke="#1F1F2A" stroke-width="0.8" opacity="1"></line>
        <circle cx="318.1" cy="59.6" r="1.4" fill="#1F1F2A"></circle>
        <circle cx="318.1" cy="88.7" r="1.4" fill="#1F1F2A"></circle><line x1="323.7" y1="117.7" x2="323.7" y2="146.8" stroke="#1F1F2A" stroke-width="0.8" opacity="1"></line>
        <circle cx="323.7" cy="117.7" r="1.4" fill="#1F1F2A"></circle>
        <circle cx="323.7" cy="146.8" r="1.4" fill="#1F1F2A"></circle><line x1="329.3" y1="175.9" x2="329.3" y2="204.9" stroke="#1F1F2A" stroke-width="0.8" opacity="1"></line>
        <circle cx="329.3" cy="175.9" r="1.4" fill="#1F1F2A"></circle>
        <circle cx="329.3" cy="204.9" r="1.4" fill="#1F1F2A"></circle><line x1="334.8" y1="30.5" x2="334.8" y2="45.1" stroke="#1F1F2A" stroke-width="0.8" opacity="1"></line>
        <circle cx="334.8" cy="30.5" r="1.4" fill="#1F1F2A"></circle>
        <circle cx="334.8" cy="45.1" r="1.4" fill="#1F1F2A"></circle><line x1="340.4" y1="59.6" x2="340.4" y2="74.1" stroke="#1F1F2A" stroke-width="0.8" opacity="1"></line>
        <circle cx="340.4" cy="59.6" r="1.4" fill="#1F1F2A"></circle>
        <circle cx="340.4" cy="74.1" r="1.4" fill="#1F1F2A"></circle><line x1="346.0" y1="88.7" x2="346.0" y2="103.2" stroke="#1F1F2A" stroke-width="0.8" opacity="1"></line>
        <circle cx="346.0" cy="88.7" r="1.4" fill="#1F1F2A"></circle>
        <circle cx="346.0" cy="103.2" r="1.4" fill="#1F1F2A"></circle><line x1="351.6" y1="117.7" x2="351.6" y2="132.3" stroke="#1F1F2A" stroke-width="0.8" opacity="1"></line>
        <circle cx="351.6" cy="117.7" r="1.4" fill="#1F1F2A"></circle>
        <circle cx="351.6" cy="132.3" r="1.4" fill="#1F1F2A"></circle><line x1="357.2" y1="146.8" x2="357.2" y2="161.3" stroke="#1F1F2A" stroke-width="0.8" opacity="1"></line>
        <circle cx="357.2" cy="146.8" r="1.4" fill="#1F1F2A"></circle>
        <circle cx="357.2" cy="161.3" r="1.4" fill="#1F1F2A"></circle><line x1="362.8" y1="175.9" x2="362.8" y2="190.4" stroke="#1F1F2A" stroke-width="0.8" opacity="1"></line>
        <circle cx="362.8" cy="175.9" r="1.4" fill="#1F1F2A"></circle>
        <circle cx="362.8" cy="190.4" r="1.4" fill="#1F1F2A"></circle><line x1="368.4" y1="204.9" x2="368.4" y2="219.5" stroke="#1F1F2A" stroke-width="0.8" opacity="1"></line>
        <circle cx="368.4" cy="204.9" r="1.4" fill="#1F1F2A"></circle>
        <circle cx="368.4" cy="219.5" r="1.4" fill="#1F1F2A"></circle></svg>
