<svg viewBox="0 0 1600 560" xmlns="http://www.w3.org/2000/svg"><rect width="1600" height="560" fill="#16161D"/><line x1="0" y1="16.0" x2="1600" y2="16.0" stroke="#1F1F2A" stroke-width="0.8" opacity="1"/><line x1="0" y1="51.2" x2="1600" y2="51.2" stroke="#1F1F2A" stroke-width="0.8" opacity="1"/><line x1="0" y1="86.4" x2="1600" y2="86.4" stroke="#1F1F2A" stroke-width="0.8" opacity="1"/><line x1="0" y1="121.6" x2="1600" y2="121.6" stroke="#1F1F2A" stroke-width="0.8" opacity="1"/><line x1="0" y1="156.8" x2="1600" y2="156.8" stroke="#1F1F2A" stroke-width="0.8" opacity="1"/><line x1="0" y1="192.0" x2="1600" y2="192.0" stroke="#1F1F2A" stroke-width="0.8" opacity="1"/><line x1="0" y1="227.2" x2="1600" y2="227.2" stroke="#1F1F2A" stroke-width="0.8" opacity="1"/><line x1="0" y1="262.4" x2="1600" y2="262.4" stroke="#1F1F2A" stroke-width="0.8" opacity="1"/><line x1="0" y1="297.6" x2="1600" y2="297.6" stroke="#1F1F2A" stroke-width="0.8" opacity="1"/><line x1="0" y1="332.8" x2="1600" y2="332.8" stroke="#1F1F2A" stroke-width="0.8" opacity="1"/><line x1="0" y1="368.0" x2="1600" y2="368.0" stroke="#1F1F2A" stroke-width="0.8" opacity="1"/><line x1="0" y1="403.2" x2="1600" y2="403.2" stroke="#1F1F2A" stroke-width="0.8" opacity="1"/><line x1="0" y1="438.4" x2="1600" y2="438.4" stroke="#1F1F2A" stroke-width="0.8" opacity="1"/><line x1="0" y1="473.6" x2="1600" y2="473.6" stroke="#1F1F2A" stroke-width="0.8" opacity="1"/><line x1="0" y1="508.8" x2="1600" y2="508.8" stroke="#1F1F2A" stroke-width="0.8" opacity="1"/><line x1="0" y1="544.0" x2="1600" y2="544.0" stroke="#1F1F2A" stroke-width="0.8" opacity="1"/><line x1="40.5" y1="16.0" x2="40.5" y2="51.2" stroke="#1F1F2A" stroke-width="0.8" opacity="1"/>
        <circle cx="40.5" cy="16.0" r="1.4" fill="#1F1F2A"/>
        <circle cx="40.5" cy="51.2" r="1.4" fill="#1F1F2A"/><line x1="65.0" y1="86.4" x2="65.0" y2="121.6" stroke="#1F1F2A" stroke-width="0.8" opacity="1"/>
        <circle cx="65.0" cy="86.4" r="1.4" fill="#1F1F2A"/>
        <circle cx="65.0" cy="121.6" r="1.4" fill="#1F1F2A"/><line x1="89.5" y1="16.0" x2="89.5" y2="86.4" stroke="#1F1F2A" stroke-width="0.8" opacity="1"/>
        <circle cx="89.5" cy="16.0" r="1.4" fill="#1F1F2A"/>
        <circle cx="89.5" cy="86.4" r="1.4" fill="#1F1F2A"/><line x1="114.0" y1="51.2" x2="114.0" y2="121.6" stroke="#1F1F2A" stroke-width="0.8" opacity="1"/>
        <circle cx="114.0" cy="51.2" r="1.4" fill="#1F1F2A"/>
        <circle cx="114.0" cy="121.6" r="1.4" fill="#1F1F2A"/><line x1="138.5" y1="51.2" x2="138.5" y2="86.4" stroke="#1F1F2A" stroke-width="0.8" opacity="1"/>
        <circle cx="138.5" cy="51.2" r="1.4" fill="#1F1F2A"/>
        <circle cx="138.5" cy="86.4" r="1.4" fill="#1F1F2A"/><line x1="163.0" y1="156.8" x2="163.0" y2="192.0" stroke="#1F1F2A" stroke-width="0.8" opacity="1"/>
        <circle cx="163.0" cy="156.8" r="1.4" fill="#1F1F2A"/>
        <circle cx="163.0" cy="192.0" r="1.4" fill="#1F1F2A"/><line x1="187.5" y1="227.2" x2="187.5" y2="262.4" stroke="#1F1F2A" stroke-width="0.8" opacity="1"/>
        <circle cx="187.5" cy="227.2" r="1.4" fill="#1F1F2A"/>
        <circle cx="187.5" cy="262.4" r="1.4" fill="#1F1F2A"/><line x1="212.0" y1="156.8" x2="212.0" y2="227.2" stroke="#1F1F2A" stroke-width="0.8" opacity="1"/>
        <circle cx="212.0" cy="156.8" r="1.4" fill="#1F1F2A"/>
        <circle cx="212.0" cy="227.2" r="1.4" fill="#1F1F2A"/><line x1="236.5" y1="192.0" x2="236.5" y2="262.4" stroke="#1F1F2A" stroke-width="0.8" opacity="1"/>
        <circle cx="236.5" cy="192.0" r="1.4" fill="#1F1F2A"/>
        <circle cx="236.5" cy="262.4" r="1.4" fill="#1F1F2A"/><line x1="261.0" y1="192.0" x2="261.0" y2="227.2" stroke="#1F1F2A" stroke-width="0.8" opacity="1"/>
        <circle cx="261.0" cy="192.0" r="1.4" fill="#1F1F2A"/>
        <circle cx="261.0" cy="227.2" r="1.4" fill="#1F1F2A"/><line x1="285.5" y1="16.0" x2="285.5" y2="156.8" stroke="#1F1F2A" stroke-width="0.8" opacity="1"/>
        <circle cx="285.5" cy="16.0" r="1.4" fill="#1F1F2A"/>
        <circle cx="285.5" cy="156.8" r="1.4" fill="#1F1F2A"/><line x1="310.0" y1="86.4" x2="310.0" y2="227.2" stroke="#1F1F2A" stroke-width="0.8" opacity="1"/>
        <circle cx="310.0" cy="86.4" r="1.4" fill="#1F1F2A"/>
        <circle cx="310.0" cy="227.2" r="1.4" fill="#1F1F2A"/><line x1="334.5" y1="86.4" x2="334.5" y2="156.8" stroke="#1F1F2A" stroke-width="0.8" opacity="1"/>
        <circle cx="334.5" cy="86.4" r="1.4" fill="#1F1F2A"/>
        <circle cx="334.5" cy="156.8" r="1.4" fill="#1F1F2A"/><line x1="359.0" y1="51.2" x2="359.0" y2="192.0" stroke="#1F1F2A" stroke-width="0.8" opacity="1"/>
        <circle cx="359.0" cy="51.2" r="1.4" fill="#1F1F2A"/>
        <circle cx="359.0" cy="192.0" r="1.4" fill="#1F1F2A"/><line x1="383.5" y1="121.6" x2="383.5" y2="262.4" stroke="#1F1F2A" stroke-width="0.8" opacity="1"/>
        <circle cx="383.5" cy="121.6" r="1.4" fill="#1F1F2A"/>
        <circle cx="383.5" cy="262.4" r="1.4" fill="#1F1F2A"/><line x1="408.0" y1="121.6" x2="408.0" y2="192.0" stroke="#1F1F2A" stroke-width="0.8" opacity="1"/>
        <circle cx="408.0" cy="121.6" r="1.4" fill="#1F1F2A"/>
        <circle cx="408.0" cy="192.0" r="1.4" fill="#1F1F2A"/><line x1="432.5" y1="51.2" x2="432.5" y2="86.4" stroke="#1F1F2A" stroke-width="0.8" opacity="1"/>
        <circle cx="432.5" cy="51.2" r="1.4" fill="#1F1F2A"/>
        <circle cx="432.5" cy="86.4" r="1.4" fill="#1F1F2A"/><line x1="457.0" y1="121.6" x2="457.0" y2="156.8" stroke="#1F1F2A" stroke-width="0.8" opacity="1"/>
        <circle cx="457.0" cy="121.6" r="1.4" fill="#1F1F2A"/>
        <circle cx="457.0" cy="156.8" r="1.4" fill="#1F1F2A"/><line x1="481.5" y1="192.0" x2="481.5" y2="227.2" stroke="#1F1F2A" stroke-width="0.8" opacity="1"/>
        <circle cx="481.5" cy="192.0" r="1.4" fill="#1F1F2A"/>
        <circle cx="481.5" cy="227.2" r="1.4" fill="#1F1F2A"/><line x1="506.0" y1="297.6" x2="506.0" y2="332.8" stroke="#1F1F2A" stroke-width="0.8" opacity="1"/>
        <circle cx="506.0" cy="297.6" r="1.4" fill="#1F1F2A"/>
        <circle cx="506.0" cy="332.8" r="1.4" fill="#1F1F2A"/><line x1="530.5" y1="368.0" x2="530.5" y2="403.2" stroke="#1F1F2A" stroke-width="0.8" opacity="1"/>
        <circle cx="530.5" cy="368.0" r="1.4" fill="#1F1F2A"/>
        <circle cx="530.5" cy="403.2" r="1.4" fill="#1F1F2A"/><line x1="555.0" y1="297.6" x2="555.0" y2="368.0" stroke="#1F1F2A" stroke-width="0.8" opacity="1"/>
        <circle cx="555.0" cy="297.6" r="1.4" fill="#1F1F2A"/>
        <circle cx="555.0" cy="368.0" r="1.4" fill="#1F1F2A"/><line x1="579.5" y1="332.8" x2="579.5" y2="403.2" stroke="#1F1F2A" stroke-width="0.8" opacity="1"/>
        <circle cx="579.5" cy="332.8" r="1.4" fill="#1F1F2A"/>
        <circle cx="579.5" cy="403.2" r="1.4" fill="#1F1F2A"/><line x1="604.0" y1="332.8" x2="604.0" y2="368.0" stroke="#1F1F2A" stroke-width="0.8" opacity="1"/>
        <circle cx="604.0" cy="332.8" r="1.4" fill="#1F1F2A"/>
        <circle cx="604.0" cy="368.0" r="1.4" fill="#1F1F2A"/><line x1="628.5" y1="438.4" x2="628.5" y2="473.6" stroke="#1F1F2A" stroke-width="0.8" opacity="1"/>
        <circle cx="628.5" cy="438.4" r="1.4" fill="#1F1F2A"/>
        <circle cx="628.5" cy="473.6" r="1.4" fill="#1F1F2A"/><line x1="653.0" y1="508.8" x2="653.0" y2="544.0" stroke="#1F1F2A" stroke-width="0.8" opacity="1"/>
        <circle cx="653.0" cy="508.8" r="1.4" fill="#1F1F2A"/>
        <circle cx="653.0" cy="544.0" r="1.4" fill="#1F1F2A"/><line x1="677.5" y1="438.4" x2="677.5" y2="508.8" stroke="#1F1F2A" stroke-width="0.8" opacity="1"/>
        <circle cx="677.5" cy="438.4" r="1.4" fill="#1F1F2A"/>
        <circle cx="677.5" cy="508.8" r="1.4" fill="#1F1F2A"/><line x1="702.0" y1="473.6" x2="702.0" y2="544.0" stroke="#1F1F2A" stroke-width="0.8" opacity="1"/>
        <circle cx="702.0" cy="473.6" r="1.4" fill="#1F1F2A"/>
        <circle cx="702.0" cy="544.0" r="1.4" fill="#1F1F2A"/><line x1="726.5" y1="473.6" x2="726.5" y2="508.8" stroke="#1F1F2A" stroke-width="0.8" opacity="1"/>
        <circle cx="726.5" cy="473.6" r="1.4" fill="#1F1F2A"/>
        <circle cx="726.5" cy="508.8" r="1.4" fill="#1F1F2A"/><line x1="751.0" y1="297.6" x2="751.0" y2="438.4" stroke="#1F1F2A" stroke-width="0.8" opacity="1"/>
        <circle cx="751.0" cy="297.6" r="1.4" fill="#1F1F2A"/>
        <circle cx="751.0" cy="438.4" r="1.4" fill="#1F1F2A"/><line x1="775.5" y1="368.0" x2="775.5" y2="508.8" stroke="#1F1F2A" stroke-width="0.8" opacity="1"/>
        <circle cx="775.5" cy="368.0" r="1.4" fill="#1F1F2A"/>
        <circle cx="775.5" cy="508.8" r="1.4" fill="#1F1F2A"/><line x1="800.0" y1="368.0" x2="800.0" y2="438.4" stroke="#1F1F2A" stroke-width="0.8" opacity="1"/>
        <circle cx="800.0" cy="368.0" r="1.4" fill="#1F1F2A"/>
        <circle cx="800.0" cy="438.4" r="1.4" fill="#1F1F2A"/><line x1="824.5" y1="332.8" x2="824.5" y2="473.6" stroke="#1F1F2A" stroke-width="0.8" opacity="1"/>
        <circle cx="824.5" cy="332.8" r="1.4" fill="#1F1F2A"/>
        <circle cx="824.5" cy="473.6" r="1.4" fill="#1F1F2A"/><line x1="849.0" y1="403.2" x2="849.0" y2="544.0" stroke="#1F1F2A" stroke-width="0.8" opacity="1"/>
        <circle cx="849.0" cy="403.2" r="1.4" fill="#1F1F2A"/>
        <circle cx="849.0" cy="544.0" r="1.4" fill="#1F1F2A"/><line x1="873.5" y1="403.2" x2="873.5" y2="473.6" stroke="#1F1F2A" stroke-width="0.8" opacity="1"/>
        <circle cx="873.5" cy="403.2" r="1.4" fill="#1F1F2A"/>
        <circle cx="873.5" cy="473.6" r="1.4" fill="#1F1F2A"/><line x1="898.0" y1="332.8" x2="898.0" y2="368.0" stroke="#1F1F2A" stroke-width="0.8" opacity="1"/>
        <circle cx="898.0" cy="332.8" r="1.4" fill="#1F1F2A"/>
        <circle cx="898.0" cy="368.0" r="1.4" fill="#1F1F2A"/><line x1="922.5" y1="403.2" x2="922.5" y2="438.4" stroke="#1F1F2A" stroke-width="0.8" opacity="1"/>
        <circle cx="922.5" cy="403.2" r="1.4" fill="#1F1F2A"/>
        <circle cx="922.5" cy="438.4" r="1.4" fill="#1F1F2A"/><line x1="947.0" y1="473.6" x2="947.0" y2="508.8" stroke="#1F1F2A" stroke-width="0.8" opacity="1"/>
        <circle cx="947.0" cy="473.6" r="1.4" fill="#1F1F2A"/>
        <circle cx="947.0" cy="508.8" r="1.4" fill="#1F1F2A"/><line x1="971.5" y1="16.0" x2="971.5" y2="297.6" stroke="#1F1F2A" stroke-width="0.8" opacity="1"/>
        <circle cx="971.5" cy="16.0" r="1.4" fill="#1F1F2A"/>
        <circle cx="971.5" cy="297.6" r="1.4" fill="#1F1F2A"/><line x1="996.0" y1="156.8" x2="996.0" y2="438.4" stroke="#1F1F2A" stroke-width="0.8" opacity="1"/>
        <circle cx="996.0" cy="156.8" r="1.4" fill="#1F1F2A"/>
        <circle cx="996.0" cy="438.4" r="1.4" fill="#1F1F2A"/><line x1="1020.5" y1="156.8" x2="1020.5" y2="297.6" stroke="#1F1F2A" stroke-width="0.8" opacity="1"/>
        <circle cx="1020.5" cy="156.8" r="1.4" fill="#1F1F2A"/>
        <circle cx="1020.5" cy="297.6" r="1.4" fill="#1F1F2A"/><line x1="1045.0" y1="86.4" x2="1045.0" y2="368.0" stroke="#1F1F2A" stroke-width="0.8" opacity="1"/>
        <circle cx="1045.0" cy="86.4" r="1.4" fill="#1F1F2A"/>
        <circle cx="1045.0" cy="368.0" r="1.4" fill="#1F1F2A"/><line x1="1069.5" y1="227.2" x2="1069.5" y2="508.8" stroke="#1F1F2A" stroke-width="0.8" opacity="1"/>
        <circle cx="1069.5" cy="227.2" r="1.4" fill="#1F1F2A"/>
        <circle cx="1069.5" cy="508.8" r="1.4" fill="#1F1F2A"/><line x1="1094.0" y1="227.2" x2="1094.0" y2="368.0" stroke="#1F1F2A" stroke-width="0.8" opacity="1"/>
        <circle cx="1094.0" cy="227.2" r="1.4" fill="#1F1F2A"/>
        <circle cx="1094.0" cy="368.0" r="1.4" fill="#1F1F2A"/><line x1="1118.5" y1="86.4" x2="1118.5" y2="156.8" stroke="#1F1F2A" stroke-width="0.8" opacity="1"/>
        <circle cx="1118.5" cy="86.4" r="1.4" fill="#1F1F2A"/>
        <circle cx="1118.5" cy="156.8" r="1.4" fill="#1F1F2A"/><line x1="1143.0" y1="227.2" x2="1143.0" y2="297.6" stroke="#1F1F2A" stroke-width="0.8" opacity="1"/>
        <circle cx="1143.0" cy="227.2" r="1.4" fill="#1F1F2A"/>
        <circle cx="1143.0" cy="297.6" r="1.4" fill="#1F1F2A"/><line x1="1167.5" y1="368.0" x2="1167.5" y2="438.4" stroke="#1F1F2A" stroke-width="0.8" opacity="1"/>
        <circle cx="1167.5" cy="368.0" r="1.4" fill="#1F1F2A"/>
        <circle cx="1167.5" cy="438.4" r="1.4" fill="#1F1F2A"/><line x1="1192.0" y1="51.2" x2="1192.0" y2="332.8" stroke="#1F1F2A" stroke-width="0.8" opacity="1"/>
        <circle cx="1192.0" cy="51.2" r="1.4" fill="#1F1F2A"/>
        <circle cx="1192.0" cy="332.8" r="1.4" fill="#1F1F2A"/><line x1="1216.5" y1="192.0" x2="1216.5" y2="473.6" stroke="#1F1F2A" stroke-width="0.8" opacity="1"/>
        <circle cx="1216.5" cy="192.0" r="1.4" fill="#1F1F2A"/>
        <circle cx="1216.5" cy="473.6" r="1.4" fill="#1F1F2A"/><line x1="1241.0" y1="192.0" x2="1241.0" y2="332.8" stroke="#1F1F2A" stroke-width="0.8" opacity="1"/>
        <circle cx="1241.0" cy="192.0" r="1.4" fill="#1F1F2A"/>
        <circle cx="1241.0" cy="332.8" r="1.4" fill="#1F1F2A"/><line x1="1265.5" y1="121.6" x2="1265.5" y2="403.2" stroke="#1F1F2A" stroke-width="0.8" opacity="1"/>
        <circle cx="1265.5" cy="121.6" r="1.4" fill="#1F1F2A"/>
        <circle cx="1265.5" cy="403.2" r="1.4" fill="#1F1F2A"/><line x1="1290.0" y1="262.4" x2="1290.0" y2="544.0" stroke="#1F1F2A" stroke-width="0.8" opacity="1"/>
        <circle cx="1290.0" cy="262.4" r="1.4" fill="#1F1F2A"/>
        <circle cx="1290.0" cy="544.0" r="1.4" fill="#1F1F2A"/><line x1="1314.5" y1="262.4" x2="1314.5" y2="403.2" stroke="#1F1F2A" stroke-width="0.8" opacity="1"/>
        <circle cx="1314.5" cy="262.4" r="1.4" fill="#1F1F2A"/>
        <circle cx="1314.5" cy="403.2" r="1.4" fill="#1F1F2A"/><line x1="1339.0" y1="121.6" x2="1339.0" y2="192.0" stroke="#1F1F2A" stroke-width="0.8" opacity="1"/>
        <circle cx="1339.0" cy="121.6" r="1.4" fill="#1F1F2A"/>
        <circle cx="1339.0" cy="192.0" r="1.4" fill="#1F1F2A"/><line x1="1363.5" y1="262.4" x2="1363.5" y2="332.8" stroke="#1F1F2A" stroke-width="0.8" opacity="1"/>
        <circle cx="1363.5" cy="262.4" r="1.4" fill="#1F1F2A"/>
        <circle cx="1363.5" cy="332.8" r="1.4" fill="#1F1F2A"/><line x1="1388.0" y1="403.2" x2="1388.0" y2="473.6" stroke="#1F1F2A" stroke-width="0.8" opacity="1"/>
        <circle cx="1388.0" cy="403.2" r="1.4" fill="#1F1F2A"/>
        <circle cx="1388.0" cy="473.6" r="1.4" fill="#1F1F2A"/><line x1="1412.5" y1="51.2" x2="1412.5" y2="86.4" stroke="#1F1F2A" stroke-width="0.8" opacity="1"/>
        <circle cx="1412.5" cy="51.2" r="1.4" fill="#1F1F2A"/>
        <circle cx="1412.5" cy="86.4" r="1.4" fill="#1F1F2A"/><line x1="1437.0" y1="121.6" x2="1437.0" y2="156.8" stroke="#1F1F2A" stroke-width="0.8" opacity="1"/>
        <circle cx="1437.0" cy="121.6" r="1.4" fill="#1F1F2A"/>
        <circle cx="1437.0" cy="156.8" r="1.4" fill="#1F1F2A"/><line x1="1461.5" y1="192.0" x2="1461.5" y2="227.2" stroke="#1F1F2A" stroke-width="0.8" opacity="1"/>
        <circle cx="1461.5" cy="192.0" r="1.4" fill="#1F1F2A"/>
        <circle cx="1461.5" cy="227.2" r="1.4" fill="#1F1F2A"/><line x1="1486.0" y1="262.4" x2="1486.0" y2="297.6" stroke="#1F1F2A" stroke-width="0.8" opacity="1"/>
        <circle cx="1486.0" cy="262.4" r="1.4" fill="#1F1F2A"/>
        <circle cx="1486.0" cy="297.6" r="1.4" fill="#1F1F2A"/><line x1="1510.5" y1="332.8" x2="1510.5" y2="368.0" stroke="#1F1F2A" stroke-width="0.8" opacity="1"/>
        <circle cx="1510.5" cy="332.8" r="1.4" fill="#1F1F2A"/>
        <circle cx="1510.5" cy="368.0" r="1.4" fill="#1F1F2A"/><line x1="1535.0" y1="403.2" x2="1535.0" y2="438.4" stroke="#1F1F2A" stroke-width="0.8" opacity="1"/>
        <circle cx="1535.0" cy="403.2" r="1.4" fill="#1F1F2A"/>
        <circle cx="1535.0" cy="438.4" r="1.4" fill="#1F1F2A"/><line x1="1559.5" y1="473.6" x2="1559.5" y2="508.8" stroke="#1F1F2A" stroke-width="0.8" opacity="1"/>
        <circle cx="1559.5" cy="473.6" r="1.4" fill="#1F1F2A"/>
        <circle cx="1559.5" cy="508.8" r="1.4" fill="#1F1F2A"/></svg>
