<svg viewBox="0 0 1600 560" xmlns="http://www.w3.org/2000/svg"><rect width="1600" height="560" fill="#101014"/><path d="M0,18C36.4,18 36.4,18 72.72727272727273,18C109.1,18 109.1,18 145.45454545454547,18C181.8,18 181.8,70.4 218.1818181818182,70.4C254.5,70.4 254.5,70.4 290.90909090909093,70.4C327.3,70.4 327.3,70.4 363.6363636363637,70.4C400.0,70.4 400.0,18 436.3636363636364,18C472.7,18 472.7,18 509.0909090909091,18C545.5,18 545.5,18 581.8181818181819,18C618.2,18 618.2,18 654.5454545454546,18C690.9,18 690.9,18 727.2727272727274,18C763.6,18 763.6,18 800.0000000000001,18C836.4,18 836.4,18 872.7272727272727,18C909.1,18 909.1,70.4 945.4545454545455,70.4C981.8,70.4 981.8,70.4 1018.1818181818182,70.4C1054.5,70.4 1054.5,70.4 1090.909090909091,70.4C1127.3,70.4 1127.3,70.4 1163.6363636363637,70.4C1200.0,70.4 1200.0,70.4 1236.3636363636365,70.4C1272.7,70.4 1272.7,70.4 1309.0909090909092,70.4C1345.5,70.4 1345.5,70.4 1381.818181818182,70.4C1418.2,70.4 1418.2,70.4 1454.5454545454547,70.4C1490.9,70.4 1490.9,70.4 1527.2727272727275,70.4C1563.6,70.4 1563.6,70.4 1600.0000000000002,70.4" fill="none" stroke="#1F1F2A" stroke-width="1" opacity="1"/><path d="M0,70.4C36.4,70.4 36.4,70.4 72.72727272727273,70.4C109.1,70.4 109.1,70.4 145.45454545454547,70.4C181.8,70.4 181.8,18 218.1818181818182,18C254.5,18 254.5,18 290.90909090909093,18C327.3,18 327.3,18 363.6363636363637,18C400.0,18 400.0,70.4 436.3636363636364,70.4C472.7,70.4 472.7,70.4 509.0909090909091,70.4C545.5,70.4 545.5,122.8 581.8181818181819,122.8C618.2,122.8 618.2,122.8 654.5454545454546,122.8C690.9,122.8 690.9,122.8 727.2727272727274,122.8C763.6,122.8 763.6,122.8 800.0000000000001,122.8C836.4,122.8 836.4,122.8 872.7272727272727,122.8C909.1,122.8 909.1,122.8 945.4545454545455,122.8C981.8,122.8 981.8,175.2 1018.1818181818182,175.2C1054.5,175.2 1054.5,227.6 1090.909090909091,227.6C1127.3,227.6 1127.3,227.6 1163.6363636363637,227.6C1200.0,227.6 1200.0,227.6 1236.3636363636365,227.6C1272.7,227.6 1272.7,280 1309.0909090909092,280C1345.5,280 1345.5,280 1381.818181818182,280C1418.2,280 1418.2,280 1454.5454545454547,280C1490.9,280 1490.9,280 1527.2727272727275,280C1563.6,280 1563.6,332.4 1600.0000000000002,332.4" fill="none" stroke="#1F1F2A" stroke-width="1" opacity="1"/><path d="M0,122.8C36.4,122.8 36.4,122.8 72.72727272727273,122.8C109.1,122.8 109.1,175.2 145.45454545454547,175.2C181.8,175.2 181.8,175.2 218.1818181818182,175.2C254.5,175.2 254.5,175.2 290.90909090909093,175.2C327.3,175.2 327.3,175.2 363.6363636363637,175.2C400.0,175.2 400.0,175.2 436.3636363636364,175.2C472.7,175.2 472.7,122.8 509.0909090909091,122.8C545.5,122.8 545.5,70.4 581.8181818181819,70.4C618.2,70.4 618.2,70.4 654.5454545454546,70.4C690.9,70.4 690.9,70.4 727.2727272727274,70.4C763.6,70.4 763.6,70.4 800.0000000000001,70.4C836.4,70.4 836.4,70.4 872.7272727272727,70.4C909.1,70.4 909.1,18 945.4545454545455,18C981.8,18 981.8,18 1018.1818181818182,18C1054.5,18 1054.5,18 1090.909090909091,18C1127.3,18 1127.3,18 1163.6363636363637,18C1200.0,18 1200.0,18 1236.3636363636365,18C1272.7,18 1272.7,18 1309.0909090909092,18C1345.5,18 1345.5,18 1381.818181818182,18C1418.2,18 1418.2,18 1454.5454545454547,18C1490.9,18 1490.9,18 1527.2727272727275,18C1563.6,18 1563.6,18 1600.0000000000002,18" fill="none" stroke="#1F1F2A" stroke-width="1" opacity="1"/><path d="M0,175.2C36.4,175.2 36.4,175.2 72.72727272727273,175.2C109.1,175.2 109.1,122.8 145.45454545454547,122.8C181.8,122.8 181.8,122.8 218.1818181818182,122.8C254.5,122.8 254.5,122.8 290.90909090909093,122.8C327.3,122.8 327.3,122.8 363.6363636363637,122.8C400.0,122.8 400.0,122.8 436.3636363636364,122.8C472.7,122.8 472.7,175.2 509.0909090909091,175.2C545.5,175.2 545.5,175.2 581.8181818181819,175.2C618.2,175.2 618.2,227.6 654.5454545454546,227.6C690.9,227.6 690.9,227.6 727.2727272727274,227.6C763.6,227.6 763.6,227.6 800.0000000000001,227.6C836.4,227.6 836.4,175.2 872.7272727272727,175.2C909.1,175.2 909.1,175.2 945.4545454545455,175.2C981.8,175.2 981.8,122.8 1018.1818181818182,122.8C1054.5,122.8 1054.5,122.8 1090.909090909091,122.8C1127.3,122.8 1127.3,122.8 1163.6363636363637,122.8C1200.0,122.8 1200.0,122.8 1236.3636363636365,122.8C1272.7,122.8 1272.7,122.8 1309.0909090909092,122.8C1345.5,122.8 1345.5,175.2 1381.818181818182,175.2C1418.2,175.2 1418.2,175.2 1454.5454545454547,175.2C1490.9,175.2 1490.9,122.8 1527.2727272727275,122.8C1563.6,122.8 1563.6,122.8 1600.0000000000002,122.8" fill="none" stroke="#1F1F2A" stroke-width="1" opacity="1"/><path d="M0,227.6C36.4,227.6 36.4,227.6 72.72727272727273,227.6C109.1,227.6 109.1,227.6 145.45454545454547,227.6C181.8,227.6 181.8,227.6 218.1818181818182,227.6C254.5,227.6 254.5,280 290.90909090909093,280C327.3,280 327.3,280 363.6363636363637,280C400.0,280 400.0,280 436.3636363636364,280C472.7,280 472.7,280 509.0909090909091,280C545.5,280 545.5,280 581.8181818181819,280C618.2,280 618.2,280 654.5454545454546,280C690.9,280 690.9,280 727.2727272727274,280C763.6,280 763.6,280 800.0000000000001,280C836.4,280 836.4,280 872.7272727272727,280C909.1,280 909.1,280 945.4545454545455,280C981.8,280 981.8,280 1018.1818181818182,280C1054.5,280 1054.5,280 1090.909090909091,280C1127.3,280 1127.3,280 1163.6363636363637,280C1200.0,280 1200.0,280 1236.3636363636365,280C1272.7,280 1272.7,227.6 1309.0909090909092,227.6C1345.5,227.6 1345.5,227.6 1381.818181818182,227.6C1418.2,227.6 1418.2,227.6 1454.5454545454547,227.6C1490.9,227.6 1490.9,227.6 1527.2727272727275,227.6C1563.6,227.6 1563.6,227.6 1600.0000000000002,227.6" fill="none" stroke="#1F1F2A" stroke-width="1" opacity="1"/><path d="M0,280C36.4,280 36.4,280 72.72727272727273,280C109.1,280 109.1,280 145.45454545454547,280C181.8,280 181.8,280 218.1818181818182,280C254.5,280 254.5,227.6 290.90909090909093,227.6C327.3,227.6 327.3,227.6 363.6363636363637,227.6C400.0,227.6 400.0,227.6 436.3636363636364,227.6C472.7,227.6 472.7,227.6 509.0909090909091,227.6C545.5,227.6 545.5,227.6 581.8181818181819,227.6C618.2,227.6 618.2,175.2 654.5454545454546,175.2C690.9,175.2 690.9,175.2 727.2727272727274,175.2C763.6,175.2 763.6,175.2 800.0000000000001,175.2C836.4,175.2 836.4,227.6 872.7272727272727,227.6C909.1,227.6 909.1,227.6 945.4545454545455,227.6C981.8,227.6 981.8,227.6 1018.1818181818182,227.6C1054.5,227.6 1054.5,175.2 1090.909090909091,175.2C1127.3,175.2 1127.3,175.2 1163.6363636363637,175.2C1200.0,175.2 1200.0,175.2 1236.3636363636365,175.2C1272.7,175.2 1272.7,175.2 1309.0909090909092,175.2C1345.5,175.2 1345.5,122.8 1381.818181818182,122.8C1418.2,122.8 1418.2,122.8 1454.5454545454547,122.8C1490.9,122.8 1490.9,175.2 1527.2727272727275,175.2C1563.6,175.2 1563.6,175.2 1600.0000000000002,175.2" fill="none" stroke="#1F1F2A" stroke-width="1" opacity="1"/><path d="M0,332.4C36.4,332.4 36.4,332.4 72.72727272727273,332.4C109.1,332.4 109.1,332.4 145.45454545454547,332.4C181.8,332.4 181.8,332.4 218.1818181818182,332.4C254.5,332.4 254.5,332.4 290.90909090909093,332.4C327.3,332.4 327.3,332.4 363.6363636363637,332.4C400.0,332.4 400.0,332.4 436.3636363636364,332.4C472.7,332.4 472.7,332.4 509.0909090909091,332.4C545.5,332.4 545.5,332.4 581.8181818181819,332.4C618.2,332.4 618.2,332.4 654.5454545454546,332.4C690.9,332.4 690.9,332.4 727.2727272727274,332.4C763.6,332.4 763.6,332.4 800.0000000000001,332.4C836.4,332.4 836.4,332.4 872.7272727272727,332.4C909.1,332.4 909.1,332.4 945.4545454545455,332.4C981.8,332.4 981.8,332.4 1018.1818181818182,332.4C1054.5,332.4 1054.5,332.4 1090.909090909091,332.4C1127.3,332.4 1127.3,332.4 1163.6363636363637,332.4C1200.0,332.4 1200.0,332.4 1236.3636363636365,332.4C1272.7,332.4 1272.7,332.4 1309.0909090909092,332.4C1345.5,332.4 1345.5,332.4 1381.818181818182,332.4C1418.2,332.4 1418.2,332.4 1454.5454545454547,332.4C1490.9,332.4 1490.9,332.4 1527.2727272727275,332.4C1563.6,332.4 1563.6,280 1600.0000000000002,280" fill="none" stroke="#1F1F2A" stroke-width="1" opacity="1"/><path d="M0,384.8C36.4,384.8 36.4,384.8 72.72727272727273,384.8C109.1,384.8 109.1,384.8 145.45454545454547,384.8C181.8,384.8 181.8,384.8 218.1818181818182,384.8C254.5,384.8 254.5,384.8 290.90909090909093,384.8C327.3,384.8 327.3,437.2 363.6363636363637,437.2C400.0,437.2 400.0,437.2 436.3636363636364,437.2C472.7,437.2 472.7,437.2 509.0909090909091,437.2C545.5,437.2 545.5,437.2 581.8181818181819,437.2C618.2,437.2 618.2,437.2 654.5454545454546,437.2C690.9,437.2 690.9,384.8 727.2727272727274,384.8C763.6,384.8 763.6,384.8 800.0000000000001,384.8C836.4,384.8 836.4,384.8 872.7272727272727,384.8C909.1,384.8 909.1,384.8 945.4545454545455,384.8C981.8,384.8 981.8,384.8 1018.1818181818182,384.8C1054.5,384.8 1054.5,384.8 1090.909090909091,384.8C1127.3,384.8 1127.3,384.8 1163.6363636363637,384.8C1200.0,384.8 1200.0,384.8 1236.3636363636365,384.8C1272.7,384.8 1272.7,384.8 1309.0909090909092,384.8C1345.5,384.8 1345.5,384.8 1381.818181818182,384.8C1418.2,384.8 1418.2,437.2 1454.5454545454547,437.2C1490.9,437.2 1490.9,437.2 1527.2727272727275,437.2C1563.6,437.2 1563.6,437.2 1600.0000000000002,437.2" fill="none" stroke="#1F1F2A" stroke-width="1" opacity="1"/><path d="M0,437.2C36.4,437.2 36.4,437.2 72.72727272727273,437.2C109.1,437.2 109.1,437.2 145.45454545454547,437.2C181.8,437.2 181.8,437.2 218.1818181818182,437.2C254.5,437.2 254.5,437.2 290.90909090909093,437.2C327.3,437.2 327.3,384.8 363.6363636363637,384.8C400.0,384.8 400.0,384.8 436.3636363636364,384.8C472.7,384.8 472.7,384.8 509.0909090909091,384.8C545.5,384.8 545.5,384.8 581.8181818181819,384.8C618.2,384.8 618.2,384.8 654.5454545454546,384.8C690.9,384.8 690.9,437.2 727.2727272727274,437.2C763.6,437.2 763.6,489.59999999999997 800.0000000000001,489.59999999999997C836.4,489.59999999999997 836.4,489.59999999999997 872.7272727272727,489.59999999999997C909.1,489.59999999999997 909.1,489.59999999999997 945.4545454545455,489.59999999999997C981.8,489.59999999999997 981.8,489.59999999999997 1018.1818181818182,489.59999999999997C1054.5,489.59999999999997 1054.5,489.59999999999997 1090.909090909091,489.59999999999997C1127.3,489.59999999999997 1127.3,437.2 1163.6363636363637,437.2C1200.0,437.2 1200.0,437.2 1236.3636363636365,437.2C1272.7,437.2 1272.7,437.2 1309.0909090909092,437.2C1345.5,437.2 1345.5,437.2 1381.818181818182,437.2C1418.2,437.2 1418.2,384.8 1454.5454545454547,384.8C1490.9,384.8 1490.9,384.8 1527.2727272727275,384.8C1563.6,384.8 1563.6,384.8 1600.0000000000002,384.8" fill="none" stroke="#1F1F2A" stroke-width="1" opacity="1"/><path d="M0,489.59999999999997C36.4,489.59999999999997 36.4,542 72.72727272727273,542C109.1,542 109.1,542 145.45454545454547,542C181.8,542 181.8,542 218.1818181818182,542C254.5,542 254.5,542 290.90909090909093,542C327.3,542 327.3,542 363.6363636363637,542C400.0,542 400.0,542 436.3636363636364,542C472.7,542 472.7,542 509.0909090909091,542C545.5,542 545.5,542 581.8181818181819,542C618.2,542 618.2,542 654.5454545454546,542C690.9,542 690.9,542 727.2727272727274,542C763.6,542 763.6,542 800.0000000000001,542C836.4,542 836.4,542 872.7272727272727,542C909.1,542 909.1,542 945.4545454545455,542C981.8,542 981.8,542 1018.1818181818182,542C1054.5,542 1054.5,542 1090.909090909091,542C1127.3,542 1127.3,542 1163.6363636363637,542C1200.0,542 1200.0,489.59999999999997 1236.3636363636365,489.59999999999997C1272.7,489.59999999999997 1272.7,489.59999999999997 1309.0909090909092,489.59999999999997C1345.5,489.59999999999997 1345.5,489.59999999999997 1381.818181818182,489.59999999999997C1418.2,489.59999999999997 1418.2,489.59999999999997 1454.5454545454547,489.59999999999997C1490.9,489.59999999999997 1490.9,489.59999999999997 1527.2727272727275,489.59999999999997C1563.6,489.59999999999997 1563.6,489.59999999999997 1600.0000000000002,489.59999999999997" fill="none" stroke="#1F1F2A" stroke-width="1" opacity="1"/><path d="M0,542C36.4,542 36.4,489.59999999999997 72.72727272727273,489.59999999999997C109.1,489.59999999999997 109.1,489.59999999999997 145.45454545454547,489.59999999999997C181.8,489.59999999999997 181.8,489.59999999999997 218.1818181818182,489.59999999999997C254.5,489.59999999999997 254.5,489.59999999999997 290.90909090909093,489.59999999999997C327.3,489.59999999999997 327.3,489.59999999999997 363.6363636363637,489.59999999999997C400.0,489.59999999999997 400.0,489.59999999999997 436.3636363636364,489.59999999999997C472.7,489.59999999999997 472.7,489.59999999999997 509.0909090909091,489.59999999999997C545.5,489.59999999999997 545.5,489.59999999999997 581.8181818181819,489.59999999999997C618.2,489.59999999999997 618.2,489.59999999999997 654.5454545454546,489.59999999999997C690.9,489.59999999999997 690.9,489.59999999999997 727.2727272727274,489.59999999999997C763.6,489.59999999999997 763.6,437.2 800.0000000000001,437.2C836.4,437.2 836.4,437.2 872.7272727272727,437.2C909.1,437.2 909.1,437.2 945.4545454545455,437.2C981.8,437.2 981.8,437.2 1018.1818181818182,437.2C1054.5,437.2 1054.5,437.2 1090.909090909091,437.2C1127.3,437.2 1127.3,489.59999999999997 1163.6363636363637,489.59999999999997C1200.0,489.59999999999997 1200.0,542 1236.3636363636365,542C1272.7,542 1272.7,542 1309.0909090909092,542C1345.5,542 1345.5,542 1381.818181818182,542C1418.2,542 1418.2,542 1454.5454545454547,542C1490.9,542 1490.9,542 1527.2727272727275,542C1563.6,542 1563.6,542 1600.0000000000002,542" fill="none" stroke="#1F1F2A" stroke-width="1" opacity="1"/></svg>
