<svg viewBox="0 0 390 250" xmlns="http://www.w3.org/2000/svg"><rect width="390" height="250" fill="#101014"></rect><path d="M0,18C8.9,18 8.9,18 17.727272727272727,18C26.6,18 26.6,18 35.45454545454545,18C44.3,18 44.3,39.4 53.18181818181818,39.4C62.0,39.4 62.0,39.4 70.9090909090909,39.4C79.8,39.4 79.8,39.4 88.63636363636363,39.4C97.5,39.4 97.5,18 106.36363636363636,18C115.2,18 115.2,18 124.0909090909091,18C133.0,18 133.0,18 141.8181818181818,18C150.7,18 150.7,18 159.54545454545453,18C168.4,18 168.4,18 177.27272727272725,18C186.1,18 186.1,18 195,18C203.9,18 203.9,18 212.72727272727272,18C221.6,18 221.6,39.4 230.45454545454544,39.4C239.3,39.4 239.3,39.4 248.1818181818182,39.4C257.0,39.4 257.0,39.4 265.9090909090909,39.4C274.8,39.4 274.8,39.4 283.6363636363636,39.4C292.5,39.4 292.5,39.4 301.3636363636364,39.4C310.2,39.4 310.2,39.4 319.09090909090907,39.4C328.0,39.4 328.0,39.4 336.8181818181818,39.4C345.7,39.4 345.7,39.4 354.5454545454545,39.4C363.4,39.4 363.4,39.4 372.27272727272725,39.4C381.1,39.4 381.1,39.4 390,39.4" fill="none" stroke="#1F1F2A" stroke-width="1" opacity="1"></path><path d="M0,39.4C8.9,39.4 8.9,39.4 17.727272727272727,39.4C26.6,39.4 26.6,39.4 35.45454545454545,39.4C44.3,39.4 44.3,18 53.18181818181818,18C62.0,18 62.0,18 70.9090909090909,18C79.8,18 79.8,18 88.63636363636363,18C97.5,18 97.5,39.4 106.36363636363636,39.4C115.2,39.4 115.2,39.4 124.0909090909091,39.4C133.0,39.4 133.0,60.8 141.8181818181818,60.8C150.7,60.8 150.7,60.8 159.54545454545453,60.8C168.4,60.8 168.4,60.8 177.27272727272725,60.8C186.1,60.8 186.1,60.8 195,60.8C203.9,60.8 203.9,60.8 212.72727272727272,60.8C221.6,60.8 221.6,60.8 230.45454545454544,60.8C239.3,60.8 239.3,82.19999999999999 248.1818181818182,82.19999999999999C257.0,82.19999999999999 257.0,103.6 265.9090909090909,103.6C274.8,103.6 274.8,103.6 283.6363636363636,103.6C292.5,103.6 292.5,103.6 301.3636363636364,103.6C310.2,103.6 310.2,125 319.09090909090907,125C328.0,125 328.0,125 336.8181818181818,125C345.7,125 345.7,125 354.5454545454545,125C363.4,125 363.4,125 372.27272727272725,125C381.1,125 381.1,146.39999999999998 390,146.39999999999998" fill="none" stroke="#1F1F2A" stroke-width="1" opacity="1"></path><path d="M0,60.8C8.9,60.8 8.9,60.8 17.727272727272727,60.8C26.6,60.8 26.6,82.19999999999999 35.45454545454545,82.19999999999999C44.3,82.19999999999999 44.3,82.19999999999999 53.18181818181818,82.19999999999999C62.0,82.19999999999999 62.0,82.19999999999999 70.9090909090909,82.19999999999999C79.8,82.19999999999999 79.8,82.19999999999999 88.63636363636363,82.19999999999999C97.5,82.19999999999999 97.5,82.19999999999999 106.36363636363636,82.19999999999999C115.2,82.19999999999999 115.2,60.8 124.0909090909091,60.8C133.0,60.8 133.0,39.4 141.8181818181818,39.4C150.7,39.4 150.7,39.4 159.54545454545453,39.4C168.4,39.4 168.4,39.4 177.27272727272725,39.4C186.1,39.4 186.1,39.4 195,39.4C203.9,39.4 203.9,39.4 212.72727272727272,39.4C221.6,39.4 221.6,18 230.45454545454544,18C239.3,18 239.3,18 248.1818181818182,18C257.0,18 257.0,18 265.9090909090909,18C274.8,18 274.8,18 283.6363636363636,18C292.5,18 292.5,18 301.3636363636364,18C310.2,18 310.2,18 319.09090909090907,18C328.0,18 328.0,18 336.8181818181818,18C345.7,18 345.7,18 354.5454545454545,18C363.4,18 363.4,18 372.27272727272725,18C381.1,18 381.1,18 390,18" fill="none" stroke="#1F1F2A" stroke-width="1" opacity="1"></path><path d="M0,82.19999999999999C8.9,82.19999999999999 8.9,82.19999999999999 17.727272727272727,82.19999999999999C26.6,82.19999999999999 26.6,60.8 35.45454545454545,60.8C44.3,60.8 44.3,60.8 53.18181818181818,60.8C62.0,60.8 62.0,60.8 70.9090909090909,60.8C79.8,60.8 79.8,60.8 88.63636363636363,60.8C97.5,60.8 97.5,60.8 106.36363636363636,60.8C115.2,60.8 115.2,82.19999999999999 124.0909090909091,82.19999999999999C133.0,82.19999999999999 133.0,82.19999999999999 141.8181818181818,82.19999999999999C150.7,82.19999999999999 150.7,103.6 159.54545454545453,103.6C168.4,103.6 168.4,103.6 177.27272727272725,103.6C186.1,103.6 186.1,103.6 195,103.6C203.9,103.6 203.9,82.19999999999999 212.72727272727272,82.19999999999999C221.6,82.19999999999999 221.6,82.19999999999999 230.45454545454544,82.19999999999999C239.3,82.19999999999999 239.3,60.8 248.1818181818182,60.8C257.0,60.8 257.0,60.8 265.9090909090909,60.8C274.8,60.8 274.8,60.8 283.6363636363636,60.8C292.5,60.8 292.5,60.8 301.3636363636364,60.8C310.2,60.8 310.2,60.8 319.09090909090907,60.8C328.0,60.8 328.0,82.19999999999999 336.8181818181818,82.19999999999999C345.7,82.19999999999999 345.7,82.19999999999999 354.5454545454545,82.19999999999999C363.4,82.19999999999999 363.4,60.8 372.27272727272725,60.8C381.1,60.8 381.1,60.8 390,60.8" fill="none" stroke="#1F1F2A" stroke-width="1" opacity="1"></path><path d="M0,103.6C8.9,103.6 8.9,103.6 17.727272727272727,103.6C26.6,103.6 26.6,103.6 35.45454545454545,103.6C44.3,103.6 44.3,103.6 53.18181818181818,103.6C62.0,103.6 62.0,125 70.9090909090909,125C79.8,125 79.8,125 88.63636363636363,125C97.5,125 97.5,125 106.36363636363636,125C115.2,125 115.2,125 124.0909090909091,125C133.0,125 133.0,125 141.8181818181818,125C150.7,125 150.7,125 159.54545454545453,125C168.4,125 168.4,125 177.27272727272725,125C186.1,125 186.1,125 195,125C203.9,125 203.9,125 212.72727272727272,125C221.6,125 221.6,125 230.45454545454544,125C239.3,125 239.3,125 248.1818181818182,125C257.0,125 257.0,125 265.9090909090909,125C274.8,125 274.8,125 283.6363636363636,125C292.5,125 292.5,125 301.3636363636364,125C310.2,125 310.2,103.6 319.09090909090907,103.6C328.0,103.6 328.0,103.6 336.8181818181818,103.6C345.7,103.6 345.7,103.6 354.5454545454545,103.6C363.4,103.6 363.4,103.6 372.27272727272725,103.6C381.1,103.6 381.1,103.6 390,103.6" fill="none" stroke="#1F1F2A" stroke-width="1" opacity="1"></path><path d="M0,125C8.9,125 8.9,125 17.727272727272727,125C26.6,125 26.6,125 35.45454545454545,125C44.3,125 44.3,125 53.18181818181818,125C62.0,125 62.0,103.6 70.9090909090909,103.6C79.8,103.6 79.8,103.6 88.63636363636363,103.6C97.5,103.6 97.5,103.6 106.36363636363636,103.6C115.2,103.6 115.2,103.6 124.0909090909091,103.6C133.0,103.6 133.0,103.6 141.8181818181818,103.6C150.7,103.6 150.7,82.19999999999999 159.54545454545453,82.19999999999999C168.4,82.19999999999999 168.4,82.19999999999999 177.27272727272725,82.19999999999999C186.1,82.19999999999999 186.1,82.19999999999999 195,82.19999999999999C203.9,82.19999999999999 203.9,103.6 212.72727272727272,103.6C221.6,103.6 221.6,103.6 230.45454545454544,103.6C239.3,103.6 239.3,103.6 248.1818181818182,103.6C257.0,103.6 257.0,82.19999999999999 265.9090909090909,82.19999999999999C274.8,82.19999999999999 274.8,82.19999999999999 283.6363636363636,82.19999999999999C292.5,82.19999999999999 292.5,82.19999999999999 301.3636363636364,82.19999999999999C310.2,82.19999999999999 310.2,82.19999999999999 319.09090909090907,82.19999999999999C328.0,82.19999999999999 328.0,60.8 336.8181818181818,60.8C345.7,60.8 345.7,60.8 354.5454545454545,60.8C363.4,60.8 363.4,82.19999999999999 372.27272727272725,82.19999999999999C381.1,82.19999999999999 381.1,82.19999999999999 390,82.19999999999999" fill="none" stroke="#1F1F2A" stroke-width="1" opacity="1"></path><path d="M0,146.39999999999998C8.9,146.39999999999998 8.9,146.39999999999998 17.727272727272727,146.39999999999998C26.6,146.39999999999998 26.6,146.39999999999998 35.45454545454545,146.39999999999998C44.3,146.39999999999998 44.3,146.39999999999998 53.18181818181818,146.39999999999998C62.0,146.39999999999998 62.0,146.39999999999998 70.9090909090909,146.39999999999998C79.8,146.39999999999998 79.8,146.39999999999998 88.63636363636363,146.39999999999998C97.5,146.39999999999998 97.5,146.39999999999998 106.36363636363636,146.39999999999998C115.2,146.39999999999998 115.2,146.39999999999998 124.0909090909091,146.39999999999998C133.0,146.39999999999998 133.0,146.39999999999998 141.8181818181818,146.39999999999998C150.7,146.39999999999998 150.7,146.39999999999998 159.54545454545453,146.39999999999998C168.4,146.39999999999998 168.4,146.39999999999998 177.27272727272725,146.39999999999998C186.1,146.39999999999998 186.1,146.39999999999998 195,146.39999999999998C203.9,146.39999999999998 203.9,146.39999999999998 212.72727272727272,146.39999999999998C221.6,146.39999999999998 221.6,146.39999999999998 230.45454545454544,146.39999999999998C239.3,146.39999999999998 239.3,146.39999999999998 248.1818181818182,146.39999999999998C257.0,146.39999999999998 257.0,146.39999999999998 265.9090909090909,146.39999999999998C274.8,146.39999999999998 274.8,146.39999999999998 283.6363636363636,146.39999999999998C292.5,146.39999999999998 292.5,146.39999999999998 301.3636363636364,146.39999999999998C310.2,146.39999999999998 310.2,146.39999999999998 319.09090909090907,146.39999999999998C328.0,146.39999999999998 328.0,146.39999999999998 336.8181818181818,146.39999999999998C345.7,146.39999999999998 345.7,146.39999999999998 354.5454545454545,146.39999999999998C363.4,146.39999999999998 363.4,146.39999999999998 372.27272727272725,146.39999999999998C381.1,146.39999999999998 381.1,125 390,125" fill="none" stroke="#1F1F2A" stroke-width="1" opacity="1"></path><path d="M0,167.79999999999998C8.9,167.79999999999998 8.9,167.79999999999998 17.727272727272727,167.79999999999998C26.6,167.79999999999998 26.6,167.79999999999998 35.45454545454545,167.79999999999998C44.3,167.79999999999998 44.3,167.79999999999998 53.18181818181818,167.79999999999998C62.0,167.79999999999998 62.0,167.79999999999998 70.9090909090909,167.79999999999998C79.8,167.79999999999998 79.8,189.2 88.63636363636363,189.2C97.5,189.2 97.5,189.2 106.36363636363636,189.2C115.2,189.2 115.2,189.2 124.0909090909091,189.2C133.0,189.2 133.0,189.2 141.8181818181818,189.2C150.7,189.2 150.7,189.2 159.54545454545453,189.2C168.4,189.2 168.4,167.79999999999998 177.27272727272725,167.79999999999998C186.1,167.79999999999998 186.1,167.79999999999998 195,167.79999999999998C203.9,167.79999999999998 203.9,167.79999999999998 212.72727272727272,167.79999999999998C221.6,167.79999999999998 221.6,167.79999999999998 230.45454545454544,167.79999999999998C239.3,167.79999999999998 239.3,167.79999999999998 248.1818181818182,167.79999999999998C257.0,167.79999999999998 257.0,167.79999999999998 265.9090909090909,167.79999999999998C274.8,167.79999999999998 274.8,167.79999999999998 283.6363636363636,167.79999999999998C292.5,167.79999999999998 292.5,167.79999999999998 301.3636363636364,167.79999999999998C310.2,167.79999999999998 310.2,167.79999999999998 319.09090909090907,167.79999999999998C328.0,167.79999999999998 328.0,167.79999999999998 336.8181818181818,167.79999999999998C345.7,167.79999999999998 345.7,189.2 354.5454545454545,189.2C363.4,189.2 363.4,189.2 372.27272727272725,189.2C381.1,189.2 381.1,189.2 390,189.2" fill="none" stroke="#1F1F2A" stroke-width="1" opacity="1"></path><path d="M0,189.2C8.9,189.2 8.9,189.2 17.727272727272727,189.2C26.6,189.2 26.6,189.2 35.45454545454545,189.2C44.3,189.2 44.3,189.2 53.18181818181818,189.2C62.0,189.2 62.0,189.2 70.9090909090909,189.2C79.8,189.2 79.8,167.79999999999998 88.63636363636363,167.79999999999998C97.5,167.79999999999998 97.5,167.79999999999998 106.36363636363636,167.79999999999998C115.2,167.79999999999998 115.2,167.79999999999998 124.0909090909091,167.79999999999998C133.0,167.79999999999998 133.0,167.79999999999998 141.8181818181818,167.79999999999998C150.7,167.79999999999998 150.7,167.79999999999998 159.54545454545453,167.79999999999998C168.4,167.79999999999998 168.4,189.2 177.27272727272725,189.2C186.1,189.2 186.1,210.6 195,210.6C203.9,210.6 203.9,210.6 212.72727272727272,210.6C221.6,210.6 221.6,210.6 230.45454545454544,210.6C239.3,210.6 239.3,210.6 248.1818181818182,210.6C257.0,210.6 257.0,210.6 265.9090909090909,210.6C274.8,210.6 274.8,189.2 283.6363636363636,189.2C292.5,189.2 292.5,189.2 301.3636363636364,189.2C310.2,189.2 310.2,189.2 319.09090909090907,189.2C328.0,189.2 328.0,189.2 336.8181818181818,189.2C345.7,189.2 345.7,167.79999999999998 354.5454545454545,167.79999999999998C363.4,167.79999999999998 363.4,167.79999999999998 372.27272727272725,167.79999999999998C381.1,167.79999999999998 381.1,167.79999999999998 390,167.79999999999998" fill="none" stroke="#1F1F2A" stroke-width="1" opacity="1"></path><path d="M0,210.6C8.9,210.6 8.9,232 17.727272727272727,232C26.6,232 26.6,232 35.45454545454545,232C44.3,232 44.3,232 53.18181818181818,232C62.0,232 62.0,232 70.9090909090909,232C79.8,232 79.8,232 88.63636363636363,232C97.5,232 97.5,232 106.36363636363636,232C115.2,232 115.2,232 124.0909090909091,232C133.0,232 133.0,232 141.8181818181818,232C150.7,232 150.7,232 159.54545454545453,232C168.4,232 168.4,232 177.27272727272725,232C186.1,232 186.1,232 195,232C203.9,232 203.9,232 212.72727272727272,232C221.6,232 221.6,232 230.45454545454544,232C239.3,232 239.3,232 248.1818181818182,232C257.0,232 257.0,232 265.9090909090909,232C274.8,232 274.8,232 283.6363636363636,232C292.5,232 292.5,210.6 301.3636363636364,210.6C310.2,210.6 310.2,210.6 319.09090909090907,210.6C328.0,210.6 328.0,210.6 336.8181818181818,210.6C345.7,210.6 345.7,210.6 354.5454545454545,210.6C363.4,210.6 363.4,210.6 372.27272727272725,210.6C381.1,210.6 381.1,210.6 390,210.6" fill="none" stroke="#1F1F2A" stroke-width="1" opacity="1"></path><path d="M0,232C8.9,232 8.9,210.6 17.727272727272727,210.6C26.6,210.6 26.6,210.6 35.45454545454545,210.6C44.3,210.6 44.3,210.6 53.18181818181818,210.6C62.0,210.6 62.0,210.6 70.9090909090909,210.6C79.8,210.6 79.8,210.6 88.63636363636363,210.6C97.5,210.6 97.5,210.6 106.36363636363636,210.6C115.2,210.6 115.2,210.6 124.0909090909091,210.6C133.0,210.6 133.0,210.6 141.8181818181818,210.6C150.7,210.6 150.7,210.6 159.54545454545453,210.6C168.4,210.6 168.4,210.6 177.27272727272725,210.6C186.1,210.6 186.1,189.2 195,189.2C203.9,189.2 203.9,189.2 212.72727272727272,189.2C221.6,189.2 221.6,189.2 230.45454545454544,189.2C239.3,189.2 239.3,189.2 248.1818181818182,189.2C257.0,189.2 257.0,189.2 265.9090909090909,189.2C274.8,189.2 274.8,210.6 283.6363636363636,210.6C292.5,210.6 292.5,232 301.3636363636364,232C310.2,232 310.2,232 319.09090909090907,232C328.0,232 328.0,232 336.8181818181818,232C345.7,232 345.7,232 354.5454545454545,232C363.4,232 363.4,232 372.27272727272725,232C381.1,232 381.1,232 390,232" fill="none" stroke="#1F1F2A" stroke-width="1" opacity="1"></path></svg>
