<svg viewBox="0 0 1600 560" xmlns="http://www.w3.org/2000/svg"><rect width="1600" height="560" fill="#101014"/><path d="M10.0,10.0L35.1,10.0L35.1,18.6L10.0,18.6L10.0,27.1L10.0,35.7L35.1,35.7L35.1,27.1L60.2,27.1L60.2,35.7L85.2,35.7L85.2,27.1L85.2,18.6L60.2,18.6L60.2,10.0L85.2,10.0L110.3,10.0L110.3,18.6L135.4,18.6L135.4,10.0L160.5,10.0L185.6,10.0L185.6,18.6L160.5,18.6L160.5,27.1L185.6,27.1L185.6,35.7L160.5,35.7L135.4,35.7L135.4,27.1L110.3,27.1L110.3,35.7L110.3,44.3L110.3,52.9L135.4,52.9L135.4,44.3L160.5,44.3L185.6,44.3L185.6,52.9L160.5,52.9L160.5,61.4L185.6,61.4L185.6,70.0L160.5,70.0L135.4,70.0L135.4,61.4L110.3,61.4L110.3,70.0L85.2,70.0L60.2,70.0L60.2,61.4L85.2,61.4L85.2,52.9L85.2,44.3L60.2,44.3L60.2,52.9L35.1,52.9L35.1,44.3L10.0,44.3L10.0,52.9L10.0,61.4L35.1,61.4L35.1,70.0L10.0,70.0L10.0,78.6L10.0,87.1L35.1,87.1L35.1,78.6L60.2,78.6L85.2,78.6L85.2,87.1L60.2,87.1L60.2,95.7L85.2,95.7L85.2,104.3L60.2,104.3L35.1,104.3L35.1,95.7L10.0,95.7L10.0,104.3L10.0,112.9L35.1,112.9L35.1,121.4L10.0,121.4L10.0,130.0L10.0,138.6L35.1,138.6L35.1,130.0L60.2,130.0L60.2,138.6L85.2,138.6L85.2,130.0L85.2,121.4L60.2,121.4L60.2,112.9L85.2,112.9L110.3,112.9L135.4,112.9L135.4,121.4L110.3,121.4L110.3,130.0L110.3,138.6L135.4,138.6L135.4,130.0L160.5,130.0L160.5,138.6L185.6,138.6L185.6,130.0L185.6,121.4L160.5,121.4L160.5,112.9L185.6,112.9L185.6,104.3L185.6,95.7L160.5,95.7L160.5,104.3L135.4,104.3L110.3,104.3L110.3,95.7L135.4,95.7L135.4,87.1L110.3,87.1L110.3,78.6L135.4,78.6L160.5,78.6L160.5,87.1L185.6,87.1L185.6,78.6L210.6,78.6L210.6,87.1L235.7,87.1L235.7,78.6L260.8,78.6L285.9,78.6L285.9,87.1L260.8,87.1L260.8,95.7L285.9,95.7L285.9,104.3L260.8,104.3L235.7,104.3L235.7,95.7L210.6,95.7L210.6,104.3L210.6,112.9L235.7,112.9L235.7,121.4L210.6,121.4L210.6,130.0L210.6,138.6L235.7,138.6L235.7,130.0L260.8,130.0L260.8,138.6L285.9,138.6L285.9,130.0L285.9,121.4L260.8,121.4L260.8,112.9L285.9,112.9L311.0,112.9L336.0,112.9L336.0,121.4L311.0,121.4L311.0,130.0L311.0,138.6L336.0,138.6L336.0,130.0L361.1,130.0L361.1,138.6L386.2,138.6L386.2,130.0L386.2,121.4L361.1,121.4L361.1,112.9L386.2,112.9L386.2,104.3L386.2,95.7L361.1,95.7L361.1,104.3L336.0,104.3L311.0,104.3L311.0,95.7L336.0,95.7L336.0,87.1L311.0,87.1L311.0,78.6L336.0,78.6L361.1,78.6L361.1,87.1L386.2,87.1L386.2,78.6L386.2,70.0L361.1,70.0L361.1,61.4L386.2,61.4L386.2,52.9L386.2,44.3L361.1,44.3L361.1,52.9L336.0,52.9L336.0,44.3L311.0,44.3L311.0,52.9L311.0,61.4L336.0,61.4L336.0,70.0L311.0,70.0L285.9,70.0L285.9,61.4L260.8,61.4L260.8,70.0L235.7,70.0L210.6,70.0L210.6,61.4L235.7,61.4L235.7,52.9L210.6,52.9L210.6,44.3L235.7,44.3L260.8,44.3L260.8,52.9L285.9,52.9L285.9,44.3L285.9,35.7L285.9,27.1L260.8,27.1L260.8,35.7L235.7,35.7L210.6,35.7L210.6,27.1L235.7,27.1L235.7,18.6L210.6,18.6L210.6,10.0L235.7,10.0L260.8,10.0L260.8,18.6L285.9,18.6L285.9,10.0L311.0,10.0L336.0,10.0L336.0,18.6L311.0,18.6L311.0,27.1L311.0,35.7L336.0,35.7L336.0,27.1L361.1,27.1L361.1,35.7L386.2,35.7L386.2,27.1L386.2,18.6L361.1,18.6L361.1,10.0L386.2,10.0L411.3,10.0L411.3,18.6L436.3,18.6L436.3,10.0L461.4,10.0L486.5,10.0L486.5,18.6L461.4,18.6L461.4,27.1L486.5,27.1L486.5,35.7L461.4,35.7L436.3,35.7L436.3,27.1L411.3,27.1L411.3,35.7L411.3,44.3L436.3,44.3L436.3,52.9L411.3,52.9L411.3,61.4L411.3,70.0L436.3,70.0L436.3,61.4L461.4,61.4L461.4,70.0L486.5,70.0L486.5,61.4L486.5,52.9L461.4,52.9L461.4,44.3L486.5,44.3L511.6,44.3L536.7,44.3L536.7,52.9L511.6,52.9L511.6,61.4L511.6,70.0L536.7,70.0L536.7,61.4L561.7,61.4L561.7,70.0L586.8,70.0L586.8,61.4L586.8,52.9L561.7,52.9L561.7,44.3L586.8,44.3L586.8,35.7L586.8,27.1L561.7,27.1L561.7,35.7L536.7,35.7L511.6,35.7L511.6,27.1L536.7,27.1L536.7,18.6L511.6,18.6L511.6,10.0L536.7,10.0L561.7,10.0L561.7,18.6L586.8,18.6L586.8,10.0L611.9,10.0L637.0,10.0L637.0,18.6L611.9,18.6L611.9,27.1L611.9,35.7L637.0,35.7L637.0,27.1L662.1,27.1L662.1,35.7L687.1,35.7L687.1,27.1L687.1,18.6L662.1,18.6L662.1,10.0L687.1,10.0L712.2,10.0L712.2,18.6L737.3,18.6L737.3,10.0L762.4,10.0L787.5,10.0L787.5,18.6L762.4,18.6L762.4,27.1L787.5,27.1L787.5,35.7L762.4,35.7L737.3,35.7L737.3,27.1L712.2,27.1L712.2,35.7L712.2,44.3L712.2,52.9L737.3,52.9L737.3,44.3L762.4,44.3L787.5,44.3L787.5,52.9L762.4,52.9L762.4,61.4L787.5,61.4L787.5,70.0L762.4,70.0L737.3,70.0L737.3,61.4L712.2,61.4L712.2,70.0L687.1,70.0L662.1,70.0L662.1,61.4L687.1,61.4L687.1,52.9L687.1,44.3L662.1,44.3L662.1,52.9L637.0,52.9L637.0,44.3L611.9,44.3L611.9,52.9L611.9,61.4L637.0,61.4L637.0,70.0L611.9,70.0L611.9,78.6L637.0,78.6L637.0,87.1L611.9,87.1L611.9,95.7L611.9,104.3L637.0,104.3L637.0,95.7L662.1,95.7L662.1,104.3L687.1,104.3L687.1,95.7L687.1,87.1L662.1,87.1L662.1,78.6L687.1,78.6L712.2,78.6L712.2,87.1L737.3,87.1L737.3,78.6L762.4,78.6L787.5,78.6L787.5,87.1L762.4,87.1L762.4,95.7L787.5,95.7L787.5,104.3L762.4,104.3L737.3,104.3L737.3,95.7L712.2,95.7L712.2,104.3L712.2,112.9L712.2,121.4L737.3,121.4L737.3,112.9L762.4,112.9L787.5,112.9L787.5,121.4L762.4,121.4L762.4,130.0L787.5,130.0L787.5,138.6L762.4,138.6L737.3,138.6L737.3,130.0L712.2,130.0L712.2,138.6L687.1,138.6L662.1,138.6L662.1,130.0L687.1,130.0L687.1,121.4L687.1,112.9L662.1,112.9L662.1,121.4L637.0,121.4L637.0,112.9L611.9,112.9L611.9,121.4L611.9,130.0L637.0,130.0L637.0,138.6L611.9,138.6L586.8,138.6L586.8,130.0L561.7,130.0L561.7,138.6L536.7,138.6L511.6,138.6L511.6,130.0L536.7,130.0L536.7,121.4L511.6,121.4L511.6,112.9L536.7,112.9L561.7,112.9L561.7,121.4L586.8,121.4L586.8,112.9L586.8,104.3L561.7,104.3L561.7,95.7L586.8,95.7L586.8,87.1L586.8,78.6L561.7,78.6L561.7,87.1L536.7,87.1L536.7,78.6L511.6,78.6L511.6,87.1L511.6,95.7L536.7,95.7L536.7,104.3L511.6,104.3L486.5,104.3L461.4,104.3L461.4,95.7L486.5,95.7L486.5,87.1L486.5,78.6L461.4,78.6L461.4,87.1L436.3,87.1L436.3,78.6L411.3,78.6L411.3,87.1L411.3,95.7L436.3,95.7L436.3,104.3L411.3,104.3L411.3,112.9L411.3,121.4L436.3,121.4L436.3,112.9L461.4,112.9L486.5,112.9L486.5,121.4L461.4,121.4L461.4,130.0L486.5,130.0L486.5,138.6L461.4,138.6L436.3,138.6L436.3,130.0L411.3,130.0L411.3,138.6L411.3,147.1L411.3,155.7L436.3,155.7L436.3,147.1L461.4,147.1L486.5,147.1L486.5,155.7L461.4,155.7L461.4,164.3L486.5,164.3L486.5,172.9L461.4,172.9L436.3,172.9L436.3,164.3L411.3,164.3L411.3,172.9L411.3,181.4L436.3,181.4L436.3,190.0L411.3,190.0L411.3,198.6L411.3,207.1L436.3,207.1L436.3,198.6L461.4,198.6L461.4,207.1L486.5,207.1L486.5,198.6L486.5,190.0L461.4,190.0L461.4,181.4L486.5,181.4L511.6,181.4L536.7,181.4L536.7,190.0L511.6,190.0L511.6,198.6L511.6,207.1L536.7,207.1L536.7,198.6L561.7,198.6L561.7,207.1L586.8,207.1L586.8,198.6L586.8,190.0L561.7,190.0L561.7,181.4L586.8,181.4L586.8,172.9L586.8,164.3L561.7,164.3L561.7,172.9L536.7,172.9L511.6,172.9L511.6,164.3L536.7,164.3L536.7,155.7L511.6,155.7L511.6,147.1L536.7,147.1L561.7,147.1L561.7,155.7L586.8,155.7L586.8,147.1L611.9,147.1L637.0,147.1L637.0,155.7L611.9,155.7L611.9,164.3L611.9,172.9L637.0,172.9L637.0,164.3L662.1,164.3L662.1,172.9L687.1,172.9L687.1,164.3L687.1,155.7L662.1,155.7L662.1,147.1L687.1,147.1L712.2,147.1L712.2,155.7L737.3,155.7L737.3,147.1L762.4,147.1L787.5,147.1L787.5,155.7L762.4,155.7L762.4,164.3L787.5,164.3L787.5,172.9L762.4,172.9L737.3,172.9L737.3,164.3L712.2,164.3L712.2,172.9L712.2,181.4L712.2,190.0L737.3,190.0L737.3,181.4L762.4,181.4L787.5,181.4L787.5,190.0L762.4,190.0L762.4,198.6L787.5,198.6L787.5,207.1L762.4,207.1L737.3,207.1L737.3,198.6L712.2,198.6L712.2,207.1L687.1,207.1L662.1,207.1L662.1,198.6L687.1,198.6L687.1,190.0L687.1,181.4L662.1,181.4L662.1,190.0L637.0,190.0L637.0,181.4L611.9,181.4L611.9,190.0L611.9,198.6L637.0,198.6L637.0,207.1L611.9,207.1L611.9,215.7L637.0,215.7L637.0,224.3L611.9,224.3L611.9,232.9L611.9,241.4L637.0,241.4L637.0,232.9L662.1,232.9L662.1,241.4L687.1,241.4L687.1,232.9L687.1,224.3L662.1,224.3L662.1,215.7L687.1,215.7L712.2,215.7L712.2,224.3L737.3,224.3L737.3,215.7L762.4,215.7L787.5,215.7L787.5,224.3L762.4,224.3L762.4,232.9L787.5,232.9L787.5,241.4L762.4,241.4L737.3,241.4L737.3,232.9L712.2,232.9L712.2,241.4L712.2,250.0L712.2,258.6L737.3,258.6L737.3,250.0L762.4,250.0L787.5,250.0L787.5,258.6L762.4,258.6L762.4,267.1L787.5,267.1L787.5,275.7L762.4,275.7L737.3,275.7L737.3,267.1L712.2,267.1L712.2,275.7L687.1,275.7L662.1,275.7L662.1,267.1L687.1,267.1L687.1,258.6L687.1,250.0L662.1,250.0L662.1,258.6L637.0,258.6L637.0,250.0L611.9,250.0L611.9,258.6L611.9,267.1L637.0,267.1L637.0,275.7L611.9,275.7L586.8,275.7L586.8,267.1L561.7,267.1L561.7,275.7L536.7,275.7L511.6,275.7L511.6,267.1L536.7,267.1L536.7,258.6L511.6,258.6L511.6,250.0L536.7,250.0L561.7,250.0L561.7,258.6L586.8,258.6L586.8,250.0L586.8,241.4L561.7,241.4L561.7,232.9L586.8,232.9L586.8,224.3L586.8,215.7L561.7,215.7L561.7,224.3L536.7,224.3L536.7,215.7L511.6,215.7L511.6,224.3L511.6,232.9L536.7,232.9L536.7,241.4L511.6,241.4L486.5,241.4L461.4,241.4L461.4,232.9L486.5,232.9L486.5,224.3L486.5,215.7L461.4,215.7L461.4,224.3L436.3,224.3L436.3,215.7L411.3,215.7L411.3,224.3L411.3,232.9L436.3,232.9L436.3,241.4L411.3,241.4L411.3,250.0L411.3,258.6L436.3,258.6L436.3,250.0L461.4,250.0L486.5,250.0L486.5,258.6L461.4,258.6L461.4,267.1L486.5,267.1L486.5,275.7L461.4,275.7L436.3,275.7L436.3,267.1L411.3,267.1L411.3,275.7L386.2,275.7L361.1,275.7L361.1,267.1L386.2,267.1L386.2,258.6L386.2,250.0L361.1,250.0L361.1,258.6L336.0,258.6L336.0,250.0L311.0,250.0L311.0,258.6L311.0,267.1L336.0,267.1L336.0,275.7L311.0,275.7L285.9,275.7L285.9,267.1L260.8,267.1L260.8,275.7L235.7,275.7L210.6,275.7L210.6,267.1L235.7,267.1L235.7,258.6L210.6,258.6L210.6,250.0L235.7,250.0L260.8,250.0L260.8,258.6L285.9,258.6L285.9,250.0L285.9,241.4L285.9,232.9L260.8,232.9L260.8,241.4L235.7,241.4L210.6,241.4L210.6,232.9L235.7,232.9L235.7,224.3L210.6,224.3L210.6,215.7L235.7,215.7L260.8,215.7L260.8,224.3L285.9,224.3L285.9,215.7L311.0,215.7L336.0,215.7L336.0,224.3L311.0,224.3L311.0,232.9L311.0,241.4L336.0,241.4L336.0,232.9L361.1,232.9L361.1,241.4L386.2,241.4L386.2,232.9L386.2,224.3L361.1,224.3L361.1,215.7L386.2,215.7L386.2,207.1L386.2,198.6L361.1,198.6L361.1,207.1L336.0,207.1L311.0,207.1L311.0,198.6L336.0,198.6L336.0,190.0L311.0,190.0L311.0,181.4L336.0,181.4L361.1,181.4L361.1,190.0L386.2,190.0L386.2,181.4L386.2,172.9L361.1,172.9L361.1,164.3L386.2,164.3L386.2,155.7L386.2,147.1L361.1,147.1L361.1,155.7L336.0,155.7L336.0,147.1L311.0,147.1L311.0,155.7L311.0,164.3L336.0,164.3L336.0,172.9L311.0,172.9L285.9,172.9L260.8,172.9L260.8,164.3L285.9,164.3L285.9,155.7L285.9,147.1L260.8,147.1L260.8,155.7L235.7,155.7L235.7,147.1L210.6,147.1L210.6,155.7L210.6,164.3L235.7,164.3L235.7,172.9L210.6,172.9L210.6,181.4L210.6,190.0L235.7,190.0L235.7,181.4L260.8,181.4L285.9,181.4L285.9,190.0L260.8,190.0L260.8,198.6L285.9,198.6L285.9,207.1L260.8,207.1L235.7,207.1L235.7,198.6L210.6,198.6L210.6,207.1L185.6,207.1L185.6,198.6L160.5,198.6L160.5,207.1L135.4,207.1L110.3,207.1L110.3,198.6L135.4,198.6L135.4,190.0L110.3,190.0L110.3,181.4L135.4,181.4L160.5,181.4L160.5,190.0L185.6,190.0L185.6,181.4L185.6,172.9L160.5,172.9L160.5,164.3L185.6,164.3L185.6,155.7L185.6,147.1L160.5,147.1L160.5,155.7L135.4,155.7L135.4,147.1L110.3,147.1L110.3,155.7L110.3,164.3L135.4,164.3L135.4,172.9L110.3,172.9L85.2,172.9L60.2,172.9L60.2,164.3L85.2,164.3L85.2,155.7L85.2,147.1L60.2,147.1L60.2,155.7L35.1,155.7L35.1,147.1L10.0,147.1L10.0,155.7L10.0,164.3L35.1,164.3L35.1,172.9L10.0,172.9L10.0,181.4L10.0,190.0L35.1,190.0L35.1,181.4L60.2,181.4L85.2,181.4L85.2,190.0L60.2,190.0L60.2,198.6L85.2,198.6L85.2,207.1L60.2,207.1L35.1,207.1L35.1,198.6L10.0,198.6L10.0,207.1L10.0,215.7L35.1,215.7L35.1,224.3L10.0,224.3L10.0,232.9L10.0,241.4L35.1,241.4L35.1,232.9L60.2,232.9L60.2,241.4L85.2,241.4L85.2,232.9L85.2,224.3L60.2,224.3L60.2,215.7L85.2,215.7L110.3,215.7L110.3,224.3L135.4,224.3L135.4,215.7L160.5,215.7L185.6,215.7L185.6,224.3L160.5,224.3L160.5,232.9L185.6,232.9L185.6,241.4L160.5,241.4L135.4,241.4L135.4,232.9L110.3,232.9L110.3,241.4L110.3,250.0L110.3,258.6L135.4,258.6L135.4,250.0L160.5,250.0L185.6,250.0L185.6,258.6L160.5,258.6L160.5,267.1L185.6,267.1L185.6,275.7L160.5,275.7L135.4,275.7L135.4,267.1L110.3,267.1L110.3,275.7L85.2,275.7L60.2,275.7L60.2,267.1L85.2,267.1L85.2,258.6L85.2,250.0L60.2,250.0L60.2,258.6L35.1,258.6L35.1,250.0L10.0,250.0L10.0,258.6L10.0,267.1L35.1,267.1L35.1,275.7L10.0,275.7L10.0,284.3L10.0,292.9L35.1,292.9L35.1,284.3L60.2,284.3L85.2,284.3L85.2,292.9L60.2,292.9L60.2,301.4L85.2,301.4L85.2,310.0L60.2,310.0L35.1,310.0L35.1,301.4L10.0,301.4L10.0,310.0L10.0,318.6L35.1,318.6L35.1,327.1L10.0,327.1L10.0,335.7L10.0,344.3L35.1,344.3L35.1,335.7L60.2,335.7L60.2,344.3L85.2,344.3L85.2,335.7L85.2,327.1L60.2,327.1L60.2,318.6L85.2,318.6L110.3,318.6L135.4,318.6L135.4,327.1L110.3,327.1L110.3,335.7L110.3,344.3L135.4,344.3L135.4,335.7L160.5,335.7L160.5,344.3L185.6,344.3L185.6,335.7L185.6,327.1L160.5,327.1L160.5,318.6L185.6,318.6L185.6,310.0L185.6,301.4L160.5,301.4L160.5,310.0L135.4,310.0L110.3,310.0L110.3,301.4L135.4,301.4L135.4,292.9L110.3,292.9L110.3,284.3L135.4,284.3L160.5,284.3L160.5,292.9L185.6,292.9L185.6,284.3L210.6,284.3L235.7,284.3L235.7,292.9L210.6,292.9L210.6,301.4L210.6,310.0L235.7,310.0L235.7,301.4L260.8,301.4L260.8,310.0L285.9,310.0L285.9,301.4L285.9,292.9L260.8,292.9L260.8,284.3L285.9,284.3L311.0,284.3L311.0,292.9L336.0,292.9L336.0,284.3L361.1,284.3L386.2,284.3L386.2,292.9L361.1,292.9L361.1,301.4L386.2,301.4L386.2,310.0L361.1,310.0L336.0,310.0L336.0,301.4L311.0,301.4L311.0,310.0L311.0,318.6L311.0,327.1L336.0,327.1L336.0,318.6L361.1,318.6L386.2,318.6L386.2,327.1L361.1,327.1L361.1,335.7L386.2,335.7L386.2,344.3L361.1,344.3L336.0,344.3L336.0,335.7L311.0,335.7L311.0,344.3L285.9,344.3L260.8,344.3L260.8,335.7L285.9,335.7L285.9,327.1L285.9,318.6L260.8,318.6L260.8,327.1L235.7,327.1L235.7,318.6L210.6,318.6L210.6,327.1L210.6,335.7L235.7,335.7L235.7,344.3L210.6,344.3L210.6,352.9L235.7,352.9L235.7,361.4L210.6,361.4L210.6,370.0L210.6,378.6L235.7,378.6L235.7,370.0L260.8,370.0L260.8,378.6L285.9,378.6L285.9,370.0L285.9,361.4L260.8,361.4L260.8,352.9L285.9,352.9L311.0,352.9L311.0,361.4L336.0,361.4L336.0,352.9L361.1,352.9L386.2,352.9L386.2,361.4L361.1,361.4L361.1,370.0L386.2,370.0L386.2,378.6L361.1,378.6L336.0,378.6L336.0,370.0L311.0,370.0L311.0,378.6L311.0,387.1L311.0,395.7L336.0,395.7L336.0,387.1L361.1,387.1L386.2,387.1L386.2,395.7L361.1,395.7L361.1,404.3L386.2,404.3L386.2,412.9L361.1,412.9L336.0,412.9L336.0,404.3L311.0,404.3L311.0,412.9L285.9,412.9L260.8,412.9L260.8,404.3L285.9,404.3L285.9,395.7L285.9,387.1L260.8,387.1L260.8,395.7L235.7,395.7L235.7,387.1L210.6,387.1L210.6,395.7L210.6,404.3L235.7,404.3L235.7,412.9L210.6,412.9L185.6,412.9L185.6,404.3L160.5,404.3L160.5,412.9L135.4,412.9L110.3,412.9L110.3,404.3L135.4,404.3L135.4,395.7L110.3,395.7L110.3,387.1L135.4,387.1L160.5,387.1L160.5,395.7L185.6,395.7L185.6,387.1L185.6,378.6L160.5,378.6L160.5,370.0L185.6,370.0L185.6,361.4L185.6,352.9L160.5,352.9L160.5,361.4L135.4,361.4L135.4,352.9L110.3,352.9L110.3,361.4L110.3,370.0L135.4,370.0L135.4,378.6L110.3,378.6L85.2,378.6L60.2,378.6L60.2,370.0L85.2,370.0L85.2,361.4L85.2,352.9L60.2,352.9L60.2,361.4L35.1,361.4L35.1,352.9L10.0,352.9L10.0,361.4L10.0,370.0L35.1,370.0L35.1,378.6L10.0,378.6L10.0,387.1L10.0,395.7L35.1,395.7L35.1,387.1L60.2,387.1L85.2,387.1L85.2,395.7L60.2,395.7L60.2,404.3L85.2,404.3L85.2,412.9L60.2,412.9L35.1,412.9L35.1,404.3L10.0,404.3L10.0,412.9L10.0,421.4L35.1,421.4L35.1,430.0L10.0,430.0L10.0,438.6L10.0,447.1L35.1,447.1L35.1,438.6L60.2,438.6L60.2,447.1L85.2,447.1L85.2,438.6L85.2,430.0L60.2,430.0L60.2,421.4L85.2,421.4L110.3,421.4L110.3,430.0L135.4,430.0L135.4,421.4L160.5,421.4L185.6,421.4L185.6,430.0L160.5,430.0L160.5,438.6L185.6,438.6L185.6,447.1L160.5,447.1L135.4,447.1L135.4,438.6L110.3,438.6L110.3,447.1L110.3,455.7L110.3,464.3L135.4,464.3L135.4,455.7L160.5,455.7L185.6,455.7L185.6,464.3L160.5,464.3L160.5,472.9L185.6,472.9L185.6,481.4L160.5,481.4L135.4,481.4L135.4,472.9L110.3,472.9L110.3,481.4L85.2,481.4L60.2,481.4L60.2,472.9L85.2,472.9L85.2,464.3L85.2,455.7L60.2,455.7L60.2,464.3L35.1,464.3L35.1,455.7L10.0,455.7L10.0,464.3L10.0,472.9L35.1,472.9L35.1,481.4L10.0,481.4L10.0,490.0L10.0,498.6L35.1,498.6L35.1,490.0L60.2,490.0L85.2,490.0L85.2,498.6L60.2,498.6L60.2,507.1L85.2,507.1L85.2,515.7L60.2,515.7L35.1,515.7L35.1,507.1L10.0,507.1L10.0,515.7L10.0,524.3L35.1,524.3L35.1,532.9L10.0,532.9L10.0,541.4L10.0,550.0L35.1,550.0L35.1,541.4L60.2,541.4L60.2,550.0L85.2,550.0L85.2,541.4L85.2,532.9L60.2,532.9L60.2,524.3L85.2,524.3L110.3,524.3L135.4,524.3L135.4,532.9L110.3,532.9L110.3,541.4L110.3,550.0L135.4,550.0L135.4,541.4L160.5,541.4L160.5,550.0L185.6,550.0L185.6,541.4L185.6,532.9L160.5,532.9L160.5,524.3L185.6,524.3L185.6,515.7L185.6,507.1L160.5,507.1L160.5,515.7L135.4,515.7L110.3,515.7L110.3,507.1L135.4,507.1L135.4,498.6L110.3,498.6L110.3,490.0L135.4,490.0L160.5,490.0L160.5,498.6L185.6,498.6L185.6,490.0L210.6,490.0L210.6,498.6L235.7,498.6L235.7,490.0L260.8,490.0L285.9,490.0L285.9,498.6L260.8,498.6L260.8,507.1L285.9,507.1L285.9,515.7L260.8,515.7L235.7,515.7L235.7,507.1L210.6,507.1L210.6,515.7L210.6,524.3L235.7,524.3L235.7,532.9L210.6,532.9L210.6,541.4L210.6,550.0L235.7,550.0L235.7,541.4L260.8,541.4L260.8,550.0L285.9,550.0L285.9,541.4L285.9,532.9L260.8,532.9L260.8,524.3L285.9,524.3L311.0,524.3L336.0,524.3L336.0,532.9L311.0,532.9L311.0,541.4L311.0,550.0L336.0,550.0L336.0,541.4L361.1,541.4L361.1,550.0L386.2,550.0L386.2,541.4L386.2,532.9L361.1,532.9L361.1,524.3L386.2,524.3L386.2,515.7L386.2,507.1L361.1,507.1L361.1,515.7L336.0,515.7L311.0,515.7L311.0,507.1L336.0,507.1L336.0,498.6L311.0,498.6L311.0,490.0L336.0,490.0L361.1,490.0L361.1,498.6L386.2,498.6L386.2,490.0L386.2,481.4L361.1,481.4L361.1,472.9L386.2,472.9L386.2,464.3L386.2,455.7L361.1,455.7L361.1,464.3L336.0,464.3L336.0,455.7L311.0,455.7L311.0,464.3L311.0,472.9L336.0,472.9L336.0,481.4L311.0,481.4L285.9,481.4L285.9,472.9L260.8,472.9L260.8,481.4L235.7,481.4L210.6,481.4L210.6,472.9L235.7,472.9L235.7,464.3L210.6,464.3L210.6,455.7L235.7,455.7L260.8,455.7L260.8,464.3L285.9,464.3L285.9,455.7L285.9,447.1L285.9,438.6L260.8,438.6L260.8,447.1L235.7,447.1L210.6,447.1L210.6,438.6L235.7,438.6L235.7,430.0L210.6,430.0L210.6,421.4L235.7,421.4L260.8,421.4L260.8,430.0L285.9,430.0L285.9,421.4L311.0,421.4L336.0,421.4L336.0,430.0L311.0,430.0L311.0,438.6L311.0,447.1L336.0,447.1L336.0,438.6L361.1,438.6L361.1,447.1L386.2,447.1L386.2,438.6L386.2,430.0L361.1,430.0L361.1,421.4L386.2,421.4L411.3,421.4L436.3,421.4L436.3,430.0L411.3,430.0L411.3,438.6L411.3,447.1L436.3,447.1L436.3,438.6L461.4,438.6L461.4,447.1L486.5,447.1L486.5,438.6L486.5,430.0L461.4,430.0L461.4,421.4L486.5,421.4L511.6,421.4L511.6,430.0L536.7,430.0L536.7,421.4L561.7,421.4L586.8,421.4L586.8,430.0L561.7,430.0L561.7,438.6L586.8,438.6L586.8,447.1L561.7,447.1L536.7,447.1L536.7,438.6L511.6,438.6L511.6,447.1L511.6,455.7L511.6,464.3L536.7,464.3L536.7,455.7L561.7,455.7L586.8,455.7L586.8,464.3L561.7,464.3L561.7,472.9L586.8,472.9L586.8,481.4L561.7,481.4L536.7,481.4L536.7,472.9L511.6,472.9L511.6,481.4L486.5,481.4L461.4,481.4L461.4,472.9L486.5,472.9L486.5,464.3L486.5,455.7L461.4,455.7L461.4,464.3L436.3,464.3L436.3,455.7L411.3,455.7L411.3,464.3L411.3,472.9L436.3,472.9L436.3,481.4L411.3,481.4L411.3,490.0L411.3,498.6L436.3,498.6L436.3,490.0L461.4,490.0L486.5,490.0L486.5,498.6L461.4,498.6L461.4,507.1L486.5,507.1L486.5,515.7L461.4,515.7L436.3,515.7L436.3,507.1L411.3,507.1L411.3,515.7L411.3,524.3L436.3,524.3L436.3,532.9L411.3,532.9L411.3,541.4L411.3,550.0L436.3,550.0L436.3,541.4L461.4,541.4L461.4,550.0L486.5,550.0L486.5,541.4L486.5,532.9L461.4,532.9L461.4,524.3L486.5,524.3L511.6,524.3L536.7,524.3L536.7,532.9L511.6,532.9L511.6,541.4L511.6,550.0L536.7,550.0L536.7,541.4L561.7,541.4L561.7,550.0L586.8,550.0L586.8,541.4L586.8,532.9L561.7,532.9L561.7,524.3L586.8,524.3L586.8,515.7L586.8,507.1L561.7,507.1L561.7,515.7L536.7,515.7L511.6,515.7L511.6,507.1L536.7,507.1L536.7,498.6L511.6,498.6L511.6,490.0L536.7,490.0L561.7,490.0L561.7,498.6L586.8,498.6L586.8,490.0L611.9,490.0L611.9,498.6L637.0,498.6L637.0,490.0L662.1,490.0L687.1,490.0L687.1,498.6L662.1,498.6L662.1,507.1L687.1,507.1L687.1,515.7L662.1,515.7L637.0,515.7L637.0,507.1L611.9,507.1L611.9,515.7L611.9,524.3L637.0,524.3L637.0,532.9L611.9,532.9L611.9,541.4L611.9,550.0L637.0,550.0L637.0,541.4L662.1,541.4L662.1,550.0L687.1,550.0L687.1,541.4L687.1,532.9L662.1,532.9L662.1,524.3L687.1,524.3L712.2,524.3L737.3,524.3L737.3,532.9L712.2,532.9L712.2,541.4L712.2,550.0L737.3,550.0L737.3,541.4L762.4,541.4L762.4,550.0L787.5,550.0L787.5,541.4L787.5,532.9L762.4,532.9L762.4,524.3L787.5,524.3L787.5,515.7L787.5,507.1L762.4,507.1L762.4,515.7L737.3,515.7L712.2,515.7L712.2,507.1L737.3,507.1L737.3,498.6L712.2,498.6L712.2,490.0L737.3,490.0L762.4,490.0L762.4,498.6L787.5,498.6L787.5,490.0L787.5,481.4L762.4,481.4L762.4,472.9L787.5,472.9L787.5,464.3L787.5,455.7L762.4,455.7L762.4,464.3L737.3,464.3L737.3,455.7L712.2,455.7L712.2,464.3L712.2,472.9L737.3,472.9L737.3,481.4L712.2,481.4L687.1,481.4L687.1,472.9L662.1,472.9L662.1,481.4L637.0,481.4L611.9,481.4L611.9,472.9L637.0,472.9L637.0,464.3L611.9,464.3L611.9,455.7L637.0,455.7L662.1,455.7L662.1,464.3L687.1,464.3L687.1,455.7L687.1,447.1L687.1,438.6L662.1,438.6L662.1,447.1L637.0,447.1L611.9,447.1L611.9,438.6L637.0,438.6L637.0,430.0L611.9,430.0L611.9,421.4L637.0,421.4L662.1,421.4L662.1,430.0L687.1,430.0L687.1,421.4L712.2,421.4L737.3,421.4L737.3,430.0L712.2,430.0L712.2,438.6L712.2,447.1L737.3,447.1L737.3,438.6L762.4,438.6L762.4,447.1L787.5,447.1L787.5,438.6L787.5,430.0L762.4,430.0L762.4,421.4L787.5,421.4L787.5,412.9L787.5,404.3L762.4,404.3L762.4,412.9L737.3,412.9L712.2,412.9L712.2,404.3L737.3,404.3L737.3,395.7L712.2,395.7L712.2,387.1L737.3,387.1L762.4,387.1L762.4,395.7L787.5,395.7L787.5,387.1L787.5,378.6L762.4,378.6L762.4,370.0L787.5,370.0L787.5,361.4L787.5,352.9L762.4,352.9L762.4,361.4L737.3,361.4L737.3,352.9L712.2,352.9L712.2,361.4L712.2,370.0L737.3,370.0L737.3,378.6L712.2,378.6L687.1,378.6L662.1,378.6L662.1,370.0L687.1,370.0L687.1,361.4L687.1,352.9L662.1,352.9L662.1,361.4L637.0,361.4L637.0,352.9L611.9,352.9L611.9,361.4L611.9,370.0L637.0,370.0L637.0,378.6L611.9,378.6L611.9,387.1L611.9,395.7L637.0,395.7L637.0,387.1L662.1,387.1L687.1,387.1L687.1,395.7L662.1,395.7L662.1,404.3L687.1,404.3L687.1,412.9L662.1,412.9L637.0,412.9L637.0,404.3L611.9,404.3L611.9,412.9L586.8,412.9L561.7,412.9L561.7,404.3L586.8,404.3L586.8,395.7L586.8,387.1L561.7,387.1L561.7,395.7L536.7,395.7L536.7,387.1L511.6,387.1L511.6,395.7L511.6,404.3L536.7,404.3L536.7,412.9L511.6,412.9L486.5,412.9L486.5,404.3L461.4,404.3L461.4,412.9L436.3,412.9L411.3,412.9L411.3,404.3L436.3,404.3L436.3,395.7L411.3,395.7L411.3,387.1L436.3,387.1L461.4,387.1L461.4,395.7L486.5,395.7L486.5,387.1L486.5,378.6L486.5,370.0L461.4,370.0L461.4,378.6L436.3,378.6L411.3,378.6L411.3,370.0L436.3,370.0L436.3,361.4L411.3,361.4L411.3,352.9L436.3,352.9L461.4,352.9L461.4,361.4L486.5,361.4L486.5,352.9L511.6,352.9L536.7,352.9L536.7,361.4L511.6,361.4L511.6,370.0L511.6,378.6L536.7,378.6L536.7,370.0L561.7,370.0L561.7,378.6L586.8,378.6L586.8,370.0L586.8,361.4L561.7,361.4L561.7,352.9L586.8,352.9L586.8,344.3L561.7,344.3L561.7,335.7L586.8,335.7L586.8,327.1L586.8,318.6L561.7,318.6L561.7,327.1L536.7,327.1L536.7,318.6L511.6,318.6L511.6,327.1L511.6,335.7L536.7,335.7L536.7,344.3L511.6,344.3L486.5,344.3L486.5,335.7L461.4,335.7L461.4,344.3L436.3,344.3L411.3,344.3L411.3,335.7L436.3,335.7L436.3,327.1L411.3,327.1L411.3,318.6L436.3,318.6L461.4,318.6L461.4,327.1L486.5,327.1L486.5,318.6L486.5,310.0L486.5,301.4L461.4,301.4L461.4,310.0L436.3,310.0L411.3,310.0L411.3,301.4L436.3,301.4L436.3,292.9L411.3,292.9L411.3,284.3L436.3,284.3L461.4,284.3L461.4,292.9L486.5,292.9L486.5,284.3L511.6,284.3L536.7,284.3L536.7,292.9L511.6,292.9L511.6,301.4L511.6,310.0L536.7,310.0L536.7,301.4L561.7,301.4L561.7,310.0L586.8,310.0L586.8,301.4L586.8,292.9L561.7,292.9L561.7,284.3L586.8,284.3L611.9,284.3L611.9,292.9L637.0,292.9L637.0,284.3L662.1,284.3L687.1,284.3L687.1,292.9L662.1,292.9L662.1,301.4L687.1,301.4L687.1,310.0L662.1,310.0L637.0,310.0L637.0,301.4L611.9,301.4L611.9,310.0L611.9,318.6L637.0,318.6L637.0,327.1L611.9,327.1L611.9,335.7L611.9,344.3L637.0,344.3L637.0,335.7L662.1,335.7L662.1,344.3L687.1,344.3L687.1,335.7L687.1,327.1L662.1,327.1L662.1,318.6L687.1,318.6L712.2,318.6L737.3,318.6L737.3,327.1L712.2,327.1L712.2,335.7L712.2,344.3L737.3,344.3L737.3,335.7L762.4,335.7L762.4,344.3L787.5,344.3L787.5,335.7L787.5,327.1L762.4,327.1L762.4,318.6L787.5,318.6L787.5,310.0L787.5,301.4L762.4,301.4L762.4,310.0L737.3,310.0L712.2,310.0L712.2,301.4L737.3,301.4L737.3,292.9L712.2,292.9L712.2,284.3L737.3,284.3L762.4,284.3L762.4,292.9L787.5,292.9L787.5,284.3L812.5,284.3L812.5,292.9L837.6,292.9L837.6,284.3L862.7,284.3L887.8,284.3L887.8,292.9L862.7,292.9L862.7,301.4L887.8,301.4L887.8,310.0L862.7,310.0L837.6,310.0L837.6,301.4L812.5,301.4L812.5,310.0L812.5,318.6L837.6,318.6L837.6,327.1L812.5,327.1L812.5,335.7L812.5,344.3L837.6,344.3L837.6,335.7L862.7,335.7L862.7,344.3L887.8,344.3L887.8,335.7L887.8,327.1L862.7,327.1L862.7,318.6L887.8,318.6L912.9,318.6L937.9,318.6L937.9,327.1L912.9,327.1L912.9,335.7L912.9,344.3L937.9,344.3L937.9,335.7L963.0,335.7L963.0,344.3L988.1,344.3L988.1,335.7L988.1,327.1L963.0,327.1L963.0,318.6L988.1,318.6L988.1,310.0L988.1,301.4L963.0,301.4L963.0,310.0L937.9,310.0L912.9,310.0L912.9,301.4L937.9,301.4L937.9,292.9L912.9,292.9L912.9,284.3L937.9,284.3L963.0,284.3L963.0,292.9L988.1,292.9L988.1,284.3L1013.2,284.3L1038.3,284.3L1038.3,292.9L1013.2,292.9L1013.2,301.4L1013.2,310.0L1038.3,310.0L1038.3,301.4L1063.3,301.4L1063.3,310.0L1088.4,310.0L1088.4,301.4L1088.4,292.9L1063.3,292.9L1063.3,284.3L1088.4,284.3L1113.5,284.3L1113.5,292.9L1138.6,292.9L1138.6,284.3L1163.7,284.3L1188.7,284.3L1188.7,292.9L1163.7,292.9L1163.7,301.4L1188.7,301.4L1188.7,310.0L1163.7,310.0L1138.6,310.0L1138.6,301.4L1113.5,301.4L1113.5,310.0L1113.5,318.6L1113.5,327.1L1138.6,327.1L1138.6,318.6L1163.7,318.6L1188.7,318.6L1188.7,327.1L1163.7,327.1L1163.7,335.7L1188.7,335.7L1188.7,344.3L1163.7,344.3L1138.6,344.3L1138.6,335.7L1113.5,335.7L1113.5,344.3L1088.4,344.3L1063.3,344.3L1063.3,335.7L1088.4,335.7L1088.4,327.1L1088.4,318.6L1063.3,318.6L1063.3,327.1L1038.3,327.1L1038.3,318.6L1013.2,318.6L1013.2,327.1L1013.2,335.7L1038.3,335.7L1038.3,344.3L1013.2,344.3L1013.2,352.9L1038.3,352.9L1038.3,361.4L1013.2,361.4L1013.2,370.0L1013.2,378.6L1038.3,378.6L1038.3,370.0L1063.3,370.0L1063.3,378.6L1088.4,378.6L1088.4,370.0L1088.4,361.4L1063.3,361.4L1063.3,352.9L1088.4,352.9L1113.5,352.9L1113.5,361.4L1138.6,361.4L1138.6,352.9L1163.7,352.9L1188.7,352.9L1188.7,361.4L1163.7,361.4L1163.7,370.0L1188.7,370.0L1188.7,378.6L1163.7,378.6L1138.6,378.6L1138.6,370.0L1113.5,370.0L1113.5,378.6L1113.5,387.1L1113.5,395.7L1138.6,395.7L1138.6,387.1L1163.7,387.1L1188.7,387.1L1188.7,395.7L1163.7,395.7L1163.7,404.3L1188.7,404.3L1188.7,412.9L1163.7,412.9L1138.6,412.9L1138.6,404.3L1113.5,404.3L1113.5,412.9L1088.4,412.9L1063.3,412.9L1063.3,404.3L1088.4,404.3L1088.4,395.7L1088.4,387.1L1063.3,387.1L1063.3,395.7L1038.3,395.7L1038.3,387.1L1013.2,387.1L1013.2,395.7L1013.2,404.3L1038.3,404.3L1038.3,412.9L1013.2,412.9L988.1,412.9L988.1,404.3L963.0,404.3L963.0,412.9L937.9,412.9L912.9,412.9L912.9,404.3L937.9,404.3L937.9,395.7L912.9,395.7L912.9,387.1L937.9,387.1L963.0,387.1L963.0,395.7L988.1,395.7L988.1,387.1L988.1,378.6L963.0,378.6L963.0,370.0L988.1,370.0L988.1,361.4L988.1,352.9L963.0,352.9L963.0,361.4L937.9,361.4L937.9,352.9L912.9,352.9L912.9,361.4L912.9,370.0L937.9,370.0L937.9,378.6L912.9,378.6L887.8,378.6L862.7,378.6L862.7,370.0L887.8,370.0L887.8,361.4L887.8,352.9L862.7,352.9L862.7,361.4L837.6,361.4L837.6,352.9L812.5,352.9L812.5,361.4L812.5,370.0L837.6,370.0L837.6,378.6L812.5,378.6L812.5,387.1L812.5,395.7L837.6,395.7L837.6,387.1L862.7,387.1L887.8,387.1L887.8,395.7L862.7,395.7L862.7,404.3L887.8,404.3L887.8,412.9L862.7,412.9L837.6,412.9L837.6,404.3L812.5,404.3L812.5,412.9L812.5,421.4L837.6,421.4L837.6,430.0L812.5,430.0L812.5,438.6L812.5,447.1L837.6,447.1L837.6,438.6L862.7,438.6L862.7,447.1L887.8,447.1L887.8,438.6L887.8,430.0L862.7,430.0L862.7,421.4L887.8,421.4L912.9,421.4L912.9,430.0L937.9,430.0L937.9,421.4L963.0,421.4L988.1,421.4L988.1,430.0L963.0,430.0L963.0,438.6L988.1,438.6L988.1,447.1L963.0,447.1L937.9,447.1L937.9,438.6L912.9,438.6L912.9,447.1L912.9,455.7L912.9,464.3L937.9,464.3L937.9,455.7L963.0,455.7L988.1,455.7L988.1,464.3L963.0,464.3L963.0,472.9L988.1,472.9L988.1,481.4L963.0,481.4L937.9,481.4L937.9,472.9L912.9,472.9L912.9,481.4L887.8,481.4L862.7,481.4L862.7,472.9L887.8,472.9L887.8,464.3L887.8,455.7L862.7,455.7L862.7,464.3L837.6,464.3L837.6,455.7L812.5,455.7L812.5,464.3L812.5,472.9L837.6,472.9L837.6,481.4L812.5,481.4L812.5,490.0L812.5,498.6L837.6,498.6L837.6,490.0L862.7,490.0L887.8,490.0L887.8,498.6L862.7,498.6L862.7,507.1L887.8,507.1L887.8,515.7L862.7,515.7L837.6,515.7L837.6,507.1L812.5,507.1L812.5,515.7L812.5,524.3L837.6,524.3L837.6,532.9L812.5,532.9L812.5,541.4L812.5,550.0L837.6,550.0L837.6,541.4L862.7,541.4L862.7,550.0L887.8,550.0L887.8,541.4L887.8,532.9L862.7,532.9L862.7,524.3L887.8,524.3L912.9,524.3L937.9,524.3L937.9,532.9L912.9,532.9L912.9,541.4L912.9,550.0L937.9,550.0L937.9,541.4L963.0,541.4L963.0,550.0L988.1,550.0L988.1,541.4L988.1,532.9L963.0,532.9L963.0,524.3L988.1,524.3L988.1,515.7L988.1,507.1L963.0,507.1L963.0,515.7L937.9,515.7L912.9,515.7L912.9,507.1L937.9,507.1L937.9,498.6L912.9,498.6L912.9,490.0L937.9,490.0L963.0,490.0L963.0,498.6L988.1,498.6L988.1,490.0L1013.2,490.0L1013.2,498.6L1038.3,498.6L1038.3,490.0L1063.3,490.0L1088.4,490.0L1088.4,498.6L1063.3,498.6L1063.3,507.1L1088.4,507.1L1088.4,515.7L1063.3,515.7L1038.3,515.7L1038.3,507.1L1013.2,507.1L1013.2,515.7L1013.2,524.3L1038.3,524.3L1038.3,532.9L1013.2,532.9L1013.2,541.4L1013.2,550.0L1038.3,550.0L1038.3,541.4L1063.3,541.4L1063.3,550.0L1088.4,550.0L1088.4,541.4L1088.4,532.9L1063.3,532.9L1063.3,524.3L1088.4,524.3L1113.5,524.3L1138.6,524.3L1138.6,532.9L1113.5,532.9L1113.5,541.4L1113.5,550.0L1138.6,550.0L1138.6,541.4L1163.7,541.4L1163.7,550.0L1188.7,550.0L1188.7,541.4L1188.7,532.9L1163.7,532.9L1163.7,524.3L1188.7,524.3L1188.7,515.7L1188.7,507.1L1163.7,507.1L1163.7,515.7L1138.6,515.7L1113.5,515.7L1113.5,507.1L1138.6,507.1L1138.6,498.6L1113.5,498.6L1113.5,490.0L1138.6,490.0L1163.7,490.0L1163.7,498.6L1188.7,498.6L1188.7,490.0L1188.7,481.4L1163.7,481.4L1163.7,472.9L1188.7,472.9L1188.7,464.3L1188.7,455.7L1163.7,455.7L1163.7,464.3L1138.6,464.3L1138.6,455.7L1113.5,455.7L1113.5,464.3L1113.5,472.9L1138.6,472.9L1138.6,481.4L1113.5,481.4L1088.4,481.4L1088.4,472.9L1063.3,472.9L1063.3,481.4L1038.3,481.4L1013.2,481.4L1013.2,472.9L1038.3,472.9L1038.3,464.3L1013.2,464.3L1013.2,455.7L1038.3,455.7L1063.3,455.7L1063.3,464.3L1088.4,464.3L1088.4,455.7L1088.4,447.1L1088.4,438.6L1063.3,438.6L1063.3,447.1L1038.3,447.1L1013.2,447.1L1013.2,438.6L1038.3,438.6L1038.3,430.0L1013.2,430.0L1013.2,421.4L1038.3,421.4L1063.3,421.4L1063.3,430.0L1088.4,430.0L1088.4,421.4L1113.5,421.4L1138.6,421.4L1138.6,430.0L1113.5,430.0L1113.5,438.6L1113.5,447.1L1138.6,447.1L1138.6,438.6L1163.7,438.6L1163.7,447.1L1188.7,447.1L1188.7,438.6L1188.7,430.0L1163.7,430.0L1163.7,421.4L1188.7,421.4L1213.8,421.4L1238.9,421.4L1238.9,430.0L1213.8,430.0L1213.8,438.6L1213.8,447.1L1238.9,447.1L1238.9,438.6L1264.0,438.6L1264.0,447.1L1289.0,447.1L1289.0,438.6L1289.0,430.0L1264.0,430.0L1264.0,421.4L1289.0,421.4L1314.1,421.4L1314.1,430.0L1339.2,430.0L1339.2,421.4L1364.3,421.4L1389.4,421.4L1389.4,430.0L1364.3,430.0L1364.3,438.6L1389.4,438.6L1389.4,447.1L1364.3,447.1L1339.2,447.1L1339.2,438.6L1314.1,438.6L1314.1,447.1L1314.1,455.7L1314.1,464.3L1339.2,464.3L1339.2,455.7L1364.3,455.7L1389.4,455.7L1389.4,464.3L1364.3,464.3L1364.3,472.9L1389.4,472.9L1389.4,481.4L1364.3,481.4L1339.2,481.4L1339.2,472.9L1314.1,472.9L1314.1,481.4L1289.0,481.4L1264.0,481.4L1264.0,472.9L1289.0,472.9L1289.0,464.3L1289.0,455.7L1264.0,455.7L1264.0,464.3L1238.9,464.3L1238.9,455.7L1213.8,455.7L1213.8,464.3L1213.8,472.9L1238.9,472.9L1238.9,481.4L1213.8,481.4L1213.8,490.0L1213.8,498.6L1238.9,498.6L1238.9,490.0L1264.0,490.0L1289.0,490.0L1289.0,498.6L1264.0,498.6L1264.0,507.1L1289.0,507.1L1289.0,515.7L1264.0,515.7L1238.9,515.7L1238.9,507.1L1213.8,507.1L1213.8,515.7L1213.8,524.3L1238.9,524.3L1238.9,532.9L1213.8,532.9L1213.8,541.4L1213.8,550.0L1238.9,550.0L1238.9,541.4L1264.0,541.4L1264.0,550.0L1289.0,550.0L1289.0,541.4L1289.0,532.9L1264.0,532.9L1264.0,524.3L1289.0,524.3L1314.1,524.3L1339.2,524.3L1339.2,532.9L1314.1,532.9L1314.1,541.4L1314.1,550.0L1339.2,550.0L1339.2,541.4L1364.3,541.4L1364.3,550.0L1389.4,550.0L1389.4,541.4L1389.4,532.9L1364.3,532.9L1364.3,524.3L1389.4,524.3L1389.4,515.7L1389.4,507.1L1364.3,507.1L1364.3,515.7L1339.2,515.7L1314.1,515.7L1314.1,507.1L1339.2,507.1L1339.2,498.6L1314.1,498.6L1314.1,490.0L1339.2,490.0L1364.3,490.0L1364.3,498.6L1389.4,498.6L1389.4,490.0L1414.4,490.0L1414.4,498.6L1439.5,498.6L1439.5,490.0L1464.6,490.0L1489.7,490.0L1489.7,498.6L1464.6,498.6L1464.6,507.1L1489.7,507.1L1489.7,515.7L1464.6,515.7L1439.5,515.7L1439.5,507.1L1414.4,507.1L1414.4,515.7L1414.4,524.3L1439.5,524.3L1439.5,532.9L1414.4,532.9L1414.4,541.4L1414.4,550.0L1439.5,550.0L1439.5,541.4L1464.6,541.4L1464.6,550.0L1489.7,550.0L1489.7,541.4L1489.7,532.9L1464.6,532.9L1464.6,524.3L1489.7,524.3L1514.8,524.3L1539.8,524.3L1539.8,532.9L1514.8,532.9L1514.8,541.4L1514.8,550.0L1539.8,550.0L1539.8,541.4L1564.9,541.4L1564.9,550.0L1590.0,550.0L1590.0,541.4L1590.0,532.9L1564.9,532.9L1564.9,524.3L1590.0,524.3L1590.0,515.7L1590.0,507.1L1564.9,507.1L1564.9,515.7L1539.8,515.7L1514.8,515.7L1514.8,507.1L1539.8,507.1L1539.8,498.6L1514.8,498.6L1514.8,490.0L1539.8,490.0L1564.9,490.0L1564.9,498.6L1590.0,498.6L1590.0,490.0L1590.0,481.4L1564.9,481.4L1564.9,472.9L1590.0,472.9L1590.0,464.3L1590.0,455.7L1564.9,455.7L1564.9,464.3L1539.8,464.3L1539.8,455.7L1514.8,455.7L1514.8,464.3L1514.8,472.9L1539.8,472.9L1539.8,481.4L1514.8,481.4L1489.7,481.4L1489.7,472.9L1464.6,472.9L1464.6,481.4L1439.5,481.4L1414.4,481.4L1414.4,472.9L1439.5,472.9L1439.5,464.3L1414.4,464.3L1414.4,455.7L1439.5,455.7L1464.6,455.7L1464.6,464.3L1489.7,464.3L1489.7,455.7L1489.7,447.1L1489.7,438.6L1464.6,438.6L1464.6,447.1L1439.5,447.1L1414.4,447.1L1414.4,438.6L1439.5,438.6L1439.5,430.0L1414.4,430.0L1414.4,421.4L1439.5,421.4L1464.6,421.4L1464.6,430.0L1489.7,430.0L1489.7,421.4L1514.8,421.4L1539.8,421.4L1539.8,430.0L1514.8,430.0L1514.8,438.6L1514.8,447.1L1539.8,447.1L1539.8,438.6L1564.9,438.6L1564.9,447.1L1590.0,447.1L1590.0,438.6L1590.0,430.0L1564.9,430.0L1564.9,421.4L1590.0,421.4L1590.0,412.9L1590.0,404.3L1564.9,404.3L1564.9,412.9L1539.8,412.9L1514.8,412.9L1514.8,404.3L1539.8,404.3L1539.8,395.7L1514.8,395.7L1514.8,387.1L1539.8,387.1L1564.9,387.1L1564.9,395.7L1590.0,395.7L1590.0,387.1L1590.0,378.6L1564.9,378.6L1564.9,370.0L1590.0,370.0L1590.0,361.4L1590.0,352.9L1564.9,352.9L1564.9,361.4L1539.8,361.4L1539.8,352.9L1514.8,352.9L1514.8,361.4L1514.8,370.0L1539.8,370.0L1539.8,378.6L1514.8,378.6L1489.7,378.6L1464.6,378.6L1464.6,370.0L1489.7,370.0L1489.7,361.4L1489.7,352.9L1464.6,352.9L1464.6,361.4L1439.5,361.4L1439.5,352.9L1414.4,352.9L1414.4,361.4L1414.4,370.0L1439.5,370.0L1439.5,378.6L1414.4,378.6L1414.4,387.1L1414.4,395.7L1439.5,395.7L1439.5,387.1L1464.6,387.1L1489.7,387.1L1489.7,395.7L1464.6,395.7L1464.6,404.3L1489.7,404.3L1489.7,412.9L1464.6,412.9L1439.5,412.9L1439.5,404.3L1414.4,404.3L1414.4,412.9L1389.4,412.9L1364.3,412.9L1364.3,404.3L1389.4,404.3L1389.4,395.7L1389.4,387.1L1364.3,387.1L1364.3,395.7L1339.2,395.7L1339.2,387.1L1314.1,387.1L1314.1,395.7L1314.1,404.3L1339.2,404.3L1339.2,412.9L1314.1,412.9L1289.0,412.9L1289.0,404.3L1264.0,404.3L1264.0,412.9L1238.9,412.9L1213.8,412.9L1213.8,404.3L1238.9,404.3L1238.9,395.7L1213.8,395.7L1213.8,387.1L1238.9,387.1L1264.0,387.1L1264.0,395.7L1289.0,395.7L1289.0,387.1L1289.0,378.6L1289.0,370.0L1264.0,370.0L1264.0,378.6L1238.9,378.6L1213.8,378.6L1213.8,370.0L1238.9,370.0L1238.9,361.4L1213.8,361.4L1213.8,352.9L1238.9,352.9L1264.0,352.9L1264.0,361.4L1289.0,361.4L1289.0,352.9L1314.1,352.9L1339.2,352.9L1339.2,361.4L1314.1,361.4L1314.1,370.0L1314.1,378.6L1339.2,378.6L1339.2,370.0L1364.3,370.0L1364.3,378.6L1389.4,378.6L1389.4,370.0L1389.4,361.4L1364.3,361.4L1364.3,352.9L1389.4,352.9L1389.4,344.3L1364.3,344.3L1364.3,335.7L1389.4,335.7L1389.4,327.1L1389.4,318.6L1364.3,318.6L1364.3,327.1L1339.2,327.1L1339.2,318.6L1314.1,318.6L1314.1,327.1L1314.1,335.7L1339.2,335.7L1339.2,344.3L1314.1,344.3L1289.0,344.3L1289.0,335.7L1264.0,335.7L1264.0,344.3L1238.9,344.3L1213.8,344.3L1213.8,335.7L1238.9,335.7L1238.9,327.1L1213.8,327.1L1213.8,318.6L1238.9,318.6L1264.0,318.6L1264.0,327.1L1289.0,327.1L1289.0,318.6L1289.0,310.0L1289.0,301.4L1264.0,301.4L1264.0,310.0L1238.9,310.0L1213.8,310.0L1213.8,301.4L1238.9,301.4L1238.9,292.9L1213.8,292.9L1213.8,284.3L1238.9,284.3L1264.0,284.3L1264.0,292.9L1289.0,292.9L1289.0,284.3L1314.1,284.3L1339.2,284.3L1339.2,292.9L1314.1,292.9L1314.1,301.4L1314.1,310.0L1339.2,310.0L1339.2,301.4L1364.3,301.4L1364.3,310.0L1389.4,310.0L1389.4,301.4L1389.4,292.9L1364.3,292.9L1364.3,284.3L1389.4,284.3L1414.4,284.3L1414.4,292.9L1439.5,292.9L1439.5,284.3L1464.6,284.3L1489.7,284.3L1489.7,292.9L1464.6,292.9L1464.6,301.4L1489.7,301.4L1489.7,310.0L1464.6,310.0L1439.5,310.0L1439.5,301.4L1414.4,301.4L1414.4,310.0L1414.4,318.6L1439.5,318.6L1439.5,327.1L1414.4,327.1L1414.4,335.7L1414.4,344.3L1439.5,344.3L1439.5,335.7L1464.6,335.7L1464.6,344.3L1489.7,344.3L1489.7,335.7L1489.7,327.1L1464.6,327.1L1464.6,318.6L1489.7,318.6L1514.8,318.6L1539.8,318.6L1539.8,327.1L1514.8,327.1L1514.8,335.7L1514.8,344.3L1539.8,344.3L1539.8,335.7L1564.9,335.7L1564.9,344.3L1590.0,344.3L1590.0,335.7L1590.0,327.1L1564.9,327.1L1564.9,318.6L1590.0,318.6L1590.0,310.0L1590.0,301.4L1564.9,301.4L1564.9,310.0L1539.8,310.0L1514.8,310.0L1514.8,301.4L1539.8,301.4L1539.8,292.9L1514.8,292.9L1514.8,284.3L1539.8,284.3L1564.9,284.3L1564.9,292.9L1590.0,292.9L1590.0,284.3L1590.0,275.7L1564.9,275.7L1564.9,267.1L1590.0,267.1L1590.0,258.6L1590.0,250.0L1564.9,250.0L1564.9,258.6L1539.8,258.6L1539.8,250.0L1514.8,250.0L1514.8,258.6L1514.8,267.1L1539.8,267.1L1539.8,275.7L1514.8,275.7L1489.7,275.7L1489.7,267.1L1464.6,267.1L1464.6,275.7L1439.5,275.7L1414.4,275.7L1414.4,267.1L1439.5,267.1L1439.5,258.6L1414.4,258.6L1414.4,250.0L1439.5,250.0L1464.6,250.0L1464.6,258.6L1489.7,258.6L1489.7,250.0L1489.7,241.4L1489.7,232.9L1464.6,232.9L1464.6,241.4L1439.5,241.4L1414.4,241.4L1414.4,232.9L1439.5,232.9L1439.5,224.3L1414.4,224.3L1414.4,215.7L1439.5,215.7L1464.6,215.7L1464.6,224.3L1489.7,224.3L1489.7,215.7L1514.8,215.7L1539.8,215.7L1539.8,224.3L1514.8,224.3L1514.8,232.9L1514.8,241.4L1539.8,241.4L1539.8,232.9L1564.9,232.9L1564.9,241.4L1590.0,241.4L1590.0,232.9L1590.0,224.3L1564.9,224.3L1564.9,215.7L1590.0,215.7L1590.0,207.1L1590.0,198.6L1564.9,198.6L1564.9,207.1L1539.8,207.1L1514.8,207.1L1514.8,198.6L1539.8,198.6L1539.8,190.0L1514.8,190.0L1514.8,181.4L1539.8,181.4L1564.9,181.4L1564.9,190.0L1590.0,190.0L1590.0,181.4L1590.0,172.9L1564.9,172.9L1564.9,164.3L1590.0,164.3L1590.0,155.7L1590.0,147.1L1564.9,147.1L1564.9,155.7L1539.8,155.7L1539.8,147.1L1514.8,147.1L1514.8,155.7L1514.8,164.3L1539.8,164.3L1539.8,172.9L1514.8,172.9L1489.7,172.9L1464.6,172.9L1464.6,164.3L1489.7,164.3L1489.7,155.7L1489.7,147.1L1464.6,147.1L1464.6,155.7L1439.5,155.7L1439.5,147.1L1414.4,147.1L1414.4,155.7L1414.4,164.3L1439.5,164.3L1439.5,172.9L1414.4,172.9L1414.4,181.4L1414.4,190.0L1439.5,190.0L1439.5,181.4L1464.6,181.4L1489.7,181.4L1489.7,190.0L1464.6,190.0L1464.6,198.6L1489.7,198.6L1489.7,207.1L1464.6,207.1L1439.5,207.1L1439.5,198.6L1414.4,198.6L1414.4,207.1L1389.4,207.1L1389.4,198.6L1364.3,198.6L1364.3,207.1L1339.2,207.1L1314.1,207.1L1314.1,198.6L1339.2,198.6L1339.2,190.0L1314.1,190.0L1314.1,181.4L1339.2,181.4L1364.3,181.4L1364.3,190.0L1389.4,190.0L1389.4,181.4L1389.4,172.9L1364.3,172.9L1364.3,164.3L1389.4,164.3L1389.4,155.7L1389.4,147.1L1364.3,147.1L1364.3,155.7L1339.2,155.7L1339.2,147.1L1314.1,147.1L1314.1,155.7L1314.1,164.3L1339.2,164.3L1339.2,172.9L1314.1,172.9L1289.0,172.9L1264.0,172.9L1264.0,164.3L1289.0,164.3L1289.0,155.7L1289.0,147.1L1264.0,147.1L1264.0,155.7L1238.9,155.7L1238.9,147.1L1213.8,147.1L1213.8,155.7L1213.8,164.3L1238.9,164.3L1238.9,172.9L1213.8,172.9L1213.8,181.4L1213.8,190.0L1238.9,190.0L1238.9,181.4L1264.0,181.4L1289.0,181.4L1289.0,190.0L1264.0,190.0L1264.0,198.6L1289.0,198.6L1289.0,207.1L1264.0,207.1L1238.9,207.1L1238.9,198.6L1213.8,198.6L1213.8,207.1L1213.8,215.7L1238.9,215.7L1238.9,224.3L1213.8,224.3L1213.8,232.9L1213.8,241.4L1238.9,241.4L1238.9,232.9L1264.0,232.9L1264.0,241.4L1289.0,241.4L1289.0,232.9L1289.0,224.3L1264.0,224.3L1264.0,215.7L1289.0,215.7L1314.1,215.7L1314.1,224.3L1339.2,224.3L1339.2,215.7L1364.3,215.7L1389.4,215.7L1389.4,224.3L1364.3,224.3L1364.3,232.9L1389.4,232.9L1389.4,241.4L1364.3,241.4L1339.2,241.4L1339.2,232.9L1314.1,232.9L1314.1,241.4L1314.1,250.0L1314.1,258.6L1339.2,258.6L1339.2,250.0L1364.3,250.0L1389.4,250.0L1389.4,258.6L1364.3,258.6L1364.3,267.1L1389.4,267.1L1389.4,275.7L1364.3,275.7L1339.2,275.7L1339.2,267.1L1314.1,267.1L1314.1,275.7L1289.0,275.7L1264.0,275.7L1264.0,267.1L1289.0,267.1L1289.0,258.6L1289.0,250.0L1264.0,250.0L1264.0,258.6L1238.9,258.6L1238.9,250.0L1213.8,250.0L1213.8,258.6L1213.8,267.1L1238.9,267.1L1238.9,275.7L1213.8,275.7L1188.7,275.7L1188.7,267.1L1163.7,267.1L1163.7,275.7L1138.6,275.7L1113.5,275.7L1113.5,267.1L1138.6,267.1L1138.6,258.6L1113.5,258.6L1113.5,250.0L1138.6,250.0L1163.7,250.0L1163.7,258.6L1188.7,258.6L1188.7,250.0L1188.7,241.4L1163.7,241.4L1163.7,232.9L1188.7,232.9L1188.7,224.3L1188.7,215.7L1163.7,215.7L1163.7,224.3L1138.6,224.3L1138.6,215.7L1113.5,215.7L1113.5,224.3L1113.5,232.9L1138.6,232.9L1138.6,241.4L1113.5,241.4L1088.4,241.4L1063.3,241.4L1063.3,232.9L1088.4,232.9L1088.4,224.3L1088.4,215.7L1063.3,215.7L1063.3,224.3L1038.3,224.3L1038.3,215.7L1013.2,215.7L1013.2,224.3L1013.2,232.9L1038.3,232.9L1038.3,241.4L1013.2,241.4L1013.2,250.0L1013.2,258.6L1038.3,258.6L1038.3,250.0L1063.3,250.0L1088.4,250.0L1088.4,258.6L1063.3,258.6L1063.3,267.1L1088.4,267.1L1088.4,275.7L1063.3,275.7L1038.3,275.7L1038.3,267.1L1013.2,267.1L1013.2,275.7L988.1,275.7L963.0,275.7L963.0,267.1L988.1,267.1L988.1,258.6L988.1,250.0L963.0,250.0L963.0,258.6L937.9,258.6L937.9,250.0L912.9,250.0L912.9,258.6L912.9,267.1L937.9,267.1L937.9,275.7L912.9,275.7L887.8,275.7L887.8,267.1L862.7,267.1L862.7,275.7L837.6,275.7L812.5,275.7L812.5,267.1L837.6,267.1L837.6,258.6L812.5,258.6L812.5,250.0L837.6,250.0L862.7,250.0L862.7,258.6L887.8,258.6L887.8,250.0L887.8,241.4L887.8,232.9L862.7,232.9L862.7,241.4L837.6,241.4L812.5,241.4L812.5,232.9L837.6,232.9L837.6,224.3L812.5,224.3L812.5,215.7L837.6,215.7L862.7,215.7L862.7,224.3L887.8,224.3L887.8,215.7L912.9,215.7L937.9,215.7L937.9,224.3L912.9,224.3L912.9,232.9L912.9,241.4L937.9,241.4L937.9,232.9L963.0,232.9L963.0,241.4L988.1,241.4L988.1,232.9L988.1,224.3L963.0,224.3L963.0,215.7L988.1,215.7L988.1,207.1L963.0,207.1L963.0,198.6L988.1,198.6L988.1,190.0L988.1,181.4L963.0,181.4L963.0,190.0L937.9,190.0L937.9,181.4L912.9,181.4L912.9,190.0L912.9,198.6L937.9,198.6L937.9,207.1L912.9,207.1L887.8,207.1L887.8,198.6L862.7,198.6L862.7,207.1L837.6,207.1L812.5,207.1L812.5,198.6L837.6,198.6L837.6,190.0L812.5,190.0L812.5,181.4L837.6,181.4L862.7,181.4L862.7,190.0L887.8,190.0L887.8,181.4L887.8,172.9L887.8,164.3L862.7,164.3L862.7,172.9L837.6,172.9L812.5,172.9L812.5,164.3L837.6,164.3L837.6,155.7L812.5,155.7L812.5,147.1L837.6,147.1L862.7,147.1L862.7,155.7L887.8,155.7L887.8,147.1L912.9,147.1L937.9,147.1L937.9,155.7L912.9,155.7L912.9,164.3L912.9,172.9L937.9,172.9L937.9,164.3L963.0,164.3L963.0,172.9L988.1,172.9L988.1,164.3L988.1,155.7L963.0,155.7L963.0,147.1L988.1,147.1L1013.2,147.1L1013.2,155.7L1038.3,155.7L1038.3,147.1L1063.3,147.1L1088.4,147.1L1088.4,155.7L1063.3,155.7L1063.3,164.3L1088.4,164.3L1088.4,172.9L1063.3,172.9L1038.3,172.9L1038.3,164.3L1013.2,164.3L1013.2,172.9L1013.2,181.4L1038.3,181.4L1038.3,190.0L1013.2,190.0L1013.2,198.6L1013.2,207.1L1038.3,207.1L1038.3,198.6L1063.3,198.6L1063.3,207.1L1088.4,207.1L1088.4,198.6L1088.4,190.0L1063.3,190.0L1063.3,181.4L1088.4,181.4L1113.5,181.4L1138.6,181.4L1138.6,190.0L1113.5,190.0L1113.5,198.6L1113.5,207.1L1138.6,207.1L1138.6,198.6L1163.7,198.6L1163.7,207.1L1188.7,207.1L1188.7,198.6L1188.7,190.0L1163.7,190.0L1163.7,181.4L1188.7,181.4L1188.7,172.9L1188.7,164.3L1163.7,164.3L1163.7,172.9L1138.6,172.9L1113.5,172.9L1113.5,164.3L1138.6,164.3L1138.6,155.7L1113.5,155.7L1113.5,147.1L1138.6,147.1L1163.7,147.1L1163.7,155.7L1188.7,155.7L1188.7,147.1L1188.7,138.6L1188.7,130.0L1163.7,130.0L1163.7,138.6L1138.6,138.6L1113.5,138.6L1113.5,130.0L1138.6,130.0L1138.6,121.4L1113.5,121.4L1113.5,112.9L1138.6,112.9L1163.7,112.9L1163.7,121.4L1188.7,121.4L1188.7,112.9L1188.7,104.3L1163.7,104.3L1163.7,95.7L1188.7,95.7L1188.7,87.1L1188.7,78.6L1163.7,78.6L1163.7,87.1L1138.6,87.1L1138.6,78.6L1113.5,78.6L1113.5,87.1L1113.5,95.7L1138.6,95.7L1138.6,104.3L1113.5,104.3L1088.4,104.3L1063.3,104.3L1063.3,95.7L1088.4,95.7L1088.4,87.1L1088.4,78.6L1063.3,78.6L1063.3,87.1L1038.3,87.1L1038.3,78.6L1013.2,78.6L1013.2,87.1L1013.2,95.7L1038.3,95.7L1038.3,104.3L1013.2,104.3L1013.2,112.9L1013.2,121.4L1038.3,121.4L1038.3,112.9L1063.3,112.9L1088.4,112.9L1088.4,121.4L1063.3,121.4L1063.3,130.0L1088.4,130.0L1088.4,138.6L1063.3,138.6L1038.3,138.6L1038.3,130.0L1013.2,130.0L1013.2,138.6L988.1,138.6L963.0,138.6L963.0,130.0L988.1,130.0L988.1,121.4L988.1,112.9L963.0,112.9L963.0,121.4L937.9,121.4L937.9,112.9L912.9,112.9L912.9,121.4L912.9,130.0L937.9,130.0L937.9,138.6L912.9,138.6L887.8,138.6L887.8,130.0L862.7,130.0L862.7,138.6L837.6,138.6L812.5,138.6L812.5,130.0L837.6,130.0L837.6,121.4L812.5,121.4L812.5,112.9L837.6,112.9L862.7,112.9L862.7,121.4L887.8,121.4L887.8,112.9L887.8,104.3L887.8,95.7L862.7,95.7L862.7,104.3L837.6,104.3L812.5,104.3L812.5,95.7L837.6,95.7L837.6,87.1L812.5,87.1L812.5,78.6L837.6,78.6L862.7,78.6L862.7,87.1L887.8,87.1L887.8,78.6L912.9,78.6L937.9,78.6L937.9,87.1L912.9,87.1L912.9,95.7L912.9,104.3L937.9,104.3L937.9,95.7L963.0,95.7L963.0,104.3L988.1,104.3L988.1,95.7L988.1,87.1L963.0,87.1L963.0,78.6L988.1,78.6L988.1,70.0L963.0,70.0L963.0,61.4L988.1,61.4L988.1,52.9L988.1,44.3L963.0,44.3L963.0,52.9L937.9,52.9L937.9,44.3L912.9,44.3L912.9,52.9L912.9,61.4L937.9,61.4L937.9,70.0L912.9,70.0L887.8,70.0L887.8,61.4L862.7,61.4L862.7,70.0L837.6,70.0L812.5,70.0L812.5,61.4L837.6,61.4L837.6,52.9L812.5,52.9L812.5,44.3L837.6,44.3L862.7,44.3L862.7,52.9L887.8,52.9L887.8,44.3L887.8,35.7L887.8,27.1L862.7,27.1L862.7,35.7L837.6,35.7L812.5,35.7L812.5,27.1L837.6,27.1L837.6,18.6L812.5,18.6L812.5,10.0L837.6,10.0L862.7,10.0L862.7,18.6L887.8,18.6L887.8,10.0L912.9,10.0L937.9,10.0L937.9,18.6L912.9,18.6L912.9,27.1L912.9,35.7L937.9,35.7L937.9,27.1L963.0,27.1L963.0,35.7L988.1,35.7L988.1,27.1L988.1,18.6L963.0,18.6L963.0,10.0L988.1,10.0L1013.2,10.0L1013.2,18.6L1038.3,18.6L1038.3,10.0L1063.3,10.0L1088.4,10.0L1088.4,18.6L1063.3,18.6L1063.3,27.1L1088.4,27.1L1088.4,35.7L1063.3,35.7L1038.3,35.7L1038.3,27.1L1013.2,27.1L1013.2,35.7L1013.2,44.3L1038.3,44.3L1038.3,52.9L1013.2,52.9L1013.2,61.4L1013.2,70.0L1038.3,70.0L1038.3,61.4L1063.3,61.4L1063.3,70.0L1088.4,70.0L1088.4,61.4L1088.4,52.9L1063.3,52.9L1063.3,44.3L1088.4,44.3L1113.5,44.3L1138.6,44.3L1138.6,52.9L1113.5,52.9L1113.5,61.4L1113.5,70.0L1138.6,70.0L1138.6,61.4L1163.7,61.4L1163.7,70.0L1188.7,70.0L1188.7,61.4L1188.7,52.9L1163.7,52.9L1163.7,44.3L1188.7,44.3L1188.7,35.7L1188.7,27.1L1163.7,27.1L1163.7,35.7L1138.6,35.7L1113.5,35.7L1113.5,27.1L1138.6,27.1L1138.6,18.6L1113.5,18.6L1113.5,10.0L1138.6,10.0L1163.7,10.0L1163.7,18.6L1188.7,18.6L1188.7,10.0L1213.8,10.0L1238.9,10.0L1238.9,18.6L1213.8,18.6L1213.8,27.1L1213.8,35.7L1238.9,35.7L1238.9,27.1L1264.0,27.1L1264.0,35.7L1289.0,35.7L1289.0,27.1L1289.0,18.6L1264.0,18.6L1264.0,10.0L1289.0,10.0L1314.1,10.0L1314.1,18.6L1339.2,18.6L1339.2,10.0L1364.3,10.0L1389.4,10.0L1389.4,18.6L1364.3,18.6L1364.3,27.1L1389.4,27.1L1389.4,35.7L1364.3,35.7L1339.2,35.7L1339.2,27.1L1314.1,27.1L1314.1,35.7L1314.1,44.3L1314.1,52.9L1339.2,52.9L1339.2,44.3L1364.3,44.3L1389.4,44.3L1389.4,52.9L1364.3,52.9L1364.3,61.4L1389.4,61.4L1389.4,70.0L1364.3,70.0L1339.2,70.0L1339.2,61.4L1314.1,61.4L1314.1,70.0L1289.0,70.0L1264.0,70.0L1264.0,61.4L1289.0,61.4L1289.0,52.9L1289.0,44.3L1264.0,44.3L1264.0,52.9L1238.9,52.9L1238.9,44.3L1213.8,44.3L1213.8,52.9L1213.8,61.4L1238.9,61.4L1238.9,70.0L1213.8,70.0L1213.8,78.6L1213.8,87.1L1238.9,87.1L1238.9,78.6L1264.0,78.6L1289.0,78.6L1289.0,87.1L1264.0,87.1L1264.0,95.7L1289.0,95.7L1289.0,104.3L1264.0,104.3L1238.9,104.3L1238.9,95.7L1213.8,95.7L1213.8,104.3L1213.8,112.9L1238.9,112.9L1238.9,121.4L1213.8,121.4L1213.8,130.0L1213.8,138.6L1238.9,138.6L1238.9,130.0L1264.0,130.0L1264.0,138.6L1289.0,138.6L1289.0,130.0L1289.0,121.4L1264.0,121.4L1264.0,112.9L1289.0,112.9L1314.1,112.9L1339.2,112.9L1339.2,121.4L1314.1,121.4L1314.1,130.0L1314.1,138.6L1339.2,138.6L1339.2,130.0L1364.3,130.0L1364.3,138.6L1389.4,138.6L1389.4,130.0L1389.4,121.4L1364.3,121.4L1364.3,112.9L1389.4,112.9L1389.4,104.3L1389.4,95.7L1364.3,95.7L1364.3,104.3L1339.2,104.3L1314.1,104.3L1314.1,95.7L1339.2,95.7L1339.2,87.1L1314.1,87.1L1314.1,78.6L1339.2,78.6L1364.3,78.6L1364.3,87.1L1389.4,87.1L1389.4,78.6L1414.4,78.6L1414.4,87.1L1439.5,87.1L1439.5,78.6L1464.6,78.6L1489.7,78.6L1489.7,87.1L1464.6,87.1L1464.6,95.7L1489.7,95.7L1489.7,104.3L1464.6,104.3L1439.5,104.3L1439.5,95.7L1414.4,95.7L1414.4,104.3L1414.4,112.9L1439.5,112.9L1439.5,121.4L1414.4,121.4L1414.4,130.0L1414.4,138.6L1439.5,138.6L1439.5,130.0L1464.6,130.0L1464.6,138.6L1489.7,138.6L1489.7,130.0L1489.7,121.4L1464.6,121.4L1464.6,112.9L1489.7,112.9L1514.8,112.9L1539.8,112.9L1539.8,121.4L1514.8,121.4L1514.8,130.0L1514.8,138.6L1539.8,138.6L1539.8,130.0L1564.9,130.0L1564.9,138.6L1590.0,138.6L1590.0,130.0L1590.0,121.4L1564.9,121.4L1564.9,112.9L1590.0,112.9L1590.0,104.3L1590.0,95.7L1564.9,95.7L1564.9,104.3L1539.8,104.3L1514.8,104.3L1514.8,95.7L1539.8,95.7L1539.8,87.1L1514.8,87.1L1514.8,78.6L1539.8,78.6L1564.9,78.6L1564.9,87.1L1590.0,87.1L1590.0,78.6L1590.0,70.0L1564.9,70.0L1564.9,61.4L1590.0,61.4L1590.0,52.9L1590.0,44.3L1564.9,44.3L1564.9,52.9L1539.8,52.9L1539.8,44.3L1514.8,44.3L1514.8,52.9L1514.8,61.4L1539.8,61.4L1539.8,70.0L1514.8,70.0L1489.7,70.0L1489.7,61.4L1464.6,61.4L1464.6,70.0L1439.5,70.0L1414.4,70.0L1414.4,61.4L1439.5,61.4L1439.5,52.9L1414.4,52.9L1414.4,44.3L1439.5,44.3L1464.6,44.3L1464.6,52.9L1489.7,52.9L1489.7,44.3L1489.7,35.7L1489.7,27.1L1464.6,27.1L1464.6,35.7L1439.5,35.7L1414.4,35.7L1414.4,27.1L1439.5,27.1L1439.5,18.6L1414.4,18.6L1414.4,10.0L1439.5,10.0L1464.6,10.0L1464.6,18.6L1489.7,18.6L1489.7,10.0L1514.8,10.0L1539.8,10.0L1539.8,18.6L1514.8,18.6L1514.8,27.1L1514.8,35.7L1539.8,35.7L1539.8,27.1L1564.9,27.1L1564.9,35.7L1590.0,35.7L1590.0,27.1L1590.0,18.6L1564.9,18.6L1564.9,10.0L1590.0,10.0" fill="none" stroke="#1F1F2A" stroke-width="1"/></svg>
