<svg viewBox="0 0 390 250" xmlns="http://www.w3.org/2000/svg"><rect width="390" height="250" fill="#101014"></rect><path d="M10.0,10.0L15.9,10.0L15.9,13.7L10.0,13.7L10.0,17.3L10.0,21.0L15.9,21.0L15.9,17.3L21.7,17.3L21.7,21.0L27.6,21.0L27.6,17.3L27.6,13.7L21.7,13.7L21.7,10.0L27.6,10.0L33.5,10.0L33.5,13.7L39.4,13.7L39.4,10.0L45.2,10.0L51.1,10.0L51.1,13.7L45.2,13.7L45.2,17.3L51.1,17.3L51.1,21.0L45.2,21.0L39.4,21.0L39.4,17.3L33.5,17.3L33.5,21.0L33.5,24.6L33.5,28.3L39.4,28.3L39.4,24.6L45.2,24.6L51.1,24.6L51.1,28.3L45.2,28.3L45.2,31.9L51.1,31.9L51.1,35.6L45.2,35.6L39.4,35.6L39.4,31.9L33.5,31.9L33.5,35.6L27.6,35.6L21.7,35.6L21.7,31.9L27.6,31.9L27.6,28.3L27.6,24.6L21.7,24.6L21.7,28.3L15.9,28.3L15.9,24.6L10.0,24.6L10.0,28.3L10.0,31.9L15.9,31.9L15.9,35.6L10.0,35.6L10.0,39.2L10.0,42.9L15.9,42.9L15.9,39.2L21.7,39.2L27.6,39.2L27.6,42.9L21.7,42.9L21.7,46.5L27.6,46.5L27.6,50.2L21.7,50.2L15.9,50.2L15.9,46.5L10.0,46.5L10.0,50.2L10.0,53.8L15.9,53.8L15.9,57.5L10.0,57.5L10.0,61.1L10.0,64.8L15.9,64.8L15.9,61.1L21.7,61.1L21.7,64.8L27.6,64.8L27.6,61.1L27.6,57.5L21.7,57.5L21.7,53.8L27.6,53.8L33.5,53.8L39.4,53.8L39.4,57.5L33.5,57.5L33.5,61.1L33.5,64.8L39.4,64.8L39.4,61.1L45.2,61.1L45.2,64.8L51.1,64.8L51.1,61.1L51.1,57.5L45.2,57.5L45.2,53.8L51.1,53.8L51.1,50.2L51.1,46.5L45.2,46.5L45.2,50.2L39.4,50.2L33.5,50.2L33.5,46.5L39.4,46.5L39.4,42.9L33.5,42.9L33.5,39.2L39.4,39.2L45.2,39.2L45.2,42.9L51.1,42.9L51.1,39.2L57.0,39.2L57.0,42.9L62.9,42.9L62.9,39.2L68.7,39.2L74.6,39.2L74.6,42.9L68.7,42.9L68.7,46.5L74.6,46.5L74.6,50.2L68.7,50.2L62.9,50.2L62.9,46.5L57.0,46.5L57.0,50.2L57.0,53.8L62.9,53.8L62.9,57.5L57.0,57.5L57.0,61.1L57.0,64.8L62.9,64.8L62.9,61.1L68.7,61.1L68.7,64.8L74.6,64.8L74.6,61.1L74.6,57.5L68.7,57.5L68.7,53.8L74.6,53.8L80.5,53.8L86.3,53.8L86.3,57.5L80.5,57.5L80.5,61.1L80.5,64.8L86.3,64.8L86.3,61.1L92.2,61.1L92.2,64.8L98.1,64.8L98.1,61.1L98.1,57.5L92.2,57.5L92.2,53.8L98.1,53.8L98.1,50.2L98.1,46.5L92.2,46.5L92.2,50.2L86.3,50.2L80.5,50.2L80.5,46.5L86.3,46.5L86.3,42.9L80.5,42.9L80.5,39.2L86.3,39.2L92.2,39.2L92.2,42.9L98.1,42.9L98.1,39.2L98.1,35.6L92.2,35.6L92.2,31.9L98.1,31.9L98.1,28.3L98.1,24.6L92.2,24.6L92.2,28.3L86.3,28.3L86.3,24.6L80.5,24.6L80.5,28.3L80.5,31.9L86.3,31.9L86.3,35.6L80.5,35.6L74.6,35.6L74.6,31.9L68.7,31.9L68.7,35.6L62.9,35.6L57.0,35.6L57.0,31.9L62.9,31.9L62.9,28.3L57.0,28.3L57.0,24.6L62.9,24.6L68.7,24.6L68.7,28.3L74.6,28.3L74.6,24.6L74.6,21.0L74.6,17.3L68.7,17.3L68.7,21.0L62.9,21.0L57.0,21.0L57.0,17.3L62.9,17.3L62.9,13.7L57.0,13.7L57.0,10.0L62.9,10.0L68.7,10.0L68.7,13.7L74.6,13.7L74.6,10.0L80.5,10.0L86.3,10.0L86.3,13.7L80.5,13.7L80.5,17.3L80.5,21.0L86.3,21.0L86.3,17.3L92.2,17.3L92.2,21.0L98.1,21.0L98.1,17.3L98.1,13.7L92.2,13.7L92.2,10.0L98.1,10.0L104.0,10.0L104.0,13.7L109.8,13.7L109.8,10.0L115.7,10.0L121.6,10.0L121.6,13.7L115.7,13.7L115.7,17.3L121.6,17.3L121.6,21.0L115.7,21.0L109.8,21.0L109.8,17.3L104.0,17.3L104.0,21.0L104.0,24.6L109.8,24.6L109.8,28.3L104.0,28.3L104.0,31.9L104.0,35.6L109.8,35.6L109.8,31.9L115.7,31.9L115.7,35.6L121.6,35.6L121.6,31.9L121.6,28.3L115.7,28.3L115.7,24.6L121.6,24.6L127.5,24.6L133.3,24.6L133.3,28.3L127.5,28.3L127.5,31.9L127.5,35.6L133.3,35.6L133.3,31.9L139.2,31.9L139.2,35.6L145.1,35.6L145.1,31.9L145.1,28.3L139.2,28.3L139.2,24.6L145.1,24.6L145.1,21.0L145.1,17.3L139.2,17.3L139.2,21.0L133.3,21.0L127.5,21.0L127.5,17.3L133.3,17.3L133.3,13.7L127.5,13.7L127.5,10.0L133.3,10.0L139.2,10.0L139.2,13.7L145.1,13.7L145.1,10.0L151.0,10.0L156.8,10.0L156.8,13.7L151.0,13.7L151.0,17.3L151.0,21.0L156.8,21.0L156.8,17.3L162.7,17.3L162.7,21.0L168.6,21.0L168.6,17.3L168.6,13.7L162.7,13.7L162.7,10.0L168.6,10.0L174.4,10.0L174.4,13.7L180.3,13.7L180.3,10.0L186.2,10.0L192.1,10.0L192.1,13.7L186.2,13.7L186.2,17.3L192.1,17.3L192.1,21.0L186.2,21.0L180.3,21.0L180.3,17.3L174.4,17.3L174.4,21.0L174.4,24.6L174.4,28.3L180.3,28.3L180.3,24.6L186.2,24.6L192.1,24.6L192.1,28.3L186.2,28.3L186.2,31.9L192.1,31.9L192.1,35.6L186.2,35.6L180.3,35.6L180.3,31.9L174.4,31.9L174.4,35.6L168.6,35.6L162.7,35.6L162.7,31.9L168.6,31.9L168.6,28.3L168.6,24.6L162.7,24.6L162.7,28.3L156.8,28.3L156.8,24.6L151.0,24.6L151.0,28.3L151.0,31.9L156.8,31.9L156.8,35.6L151.0,35.6L151.0,39.2L156.8,39.2L156.8,42.9L151.0,42.9L151.0,46.5L151.0,50.2L156.8,50.2L156.8,46.5L162.7,46.5L162.7,50.2L168.6,50.2L168.6,46.5L168.6,42.9L162.7,42.9L162.7,39.2L168.6,39.2L174.4,39.2L174.4,42.9L180.3,42.9L180.3,39.2L186.2,39.2L192.1,39.2L192.1,42.9L186.2,42.9L186.2,46.5L192.1,46.5L192.1,50.2L186.2,50.2L180.3,50.2L180.3,46.5L174.4,46.5L174.4,50.2L174.4,53.8L174.4,57.5L180.3,57.5L180.3,53.8L186.2,53.8L192.1,53.8L192.1,57.5L186.2,57.5L186.2,61.1L192.1,61.1L192.1,64.8L186.2,64.8L180.3,64.8L180.3,61.1L174.4,61.1L174.4,64.8L168.6,64.8L162.7,64.8L162.7,61.1L168.6,61.1L168.6,57.5L168.6,53.8L162.7,53.8L162.7,57.5L156.8,57.5L156.8,53.8L151.0,53.8L151.0,57.5L151.0,61.1L156.8,61.1L156.8,64.8L151.0,64.8L145.1,64.8L145.1,61.1L139.2,61.1L139.2,64.8L133.3,64.8L127.5,64.8L127.5,61.1L133.3,61.1L133.3,57.5L127.5,57.5L127.5,53.8L133.3,53.8L139.2,53.8L139.2,57.5L145.1,57.5L145.1,53.8L145.1,50.2L139.2,50.2L139.2,46.5L145.1,46.5L145.1,42.9L145.1,39.2L139.2,39.2L139.2,42.9L133.3,42.9L133.3,39.2L127.5,39.2L127.5,42.9L127.5,46.5L133.3,46.5L133.3,50.2L127.5,50.2L121.6,50.2L115.7,50.2L115.7,46.5L121.6,46.5L121.6,42.9L121.6,39.2L115.7,39.2L115.7,42.9L109.8,42.9L109.8,39.2L104.0,39.2L104.0,42.9L104.0,46.5L109.8,46.5L109.8,50.2L104.0,50.2L104.0,53.8L104.0,57.5L109.8,57.5L109.8,53.8L115.7,53.8L121.6,53.8L121.6,57.5L115.7,57.5L115.7,61.1L121.6,61.1L121.6,64.8L115.7,64.8L109.8,64.8L109.8,61.1L104.0,61.1L104.0,64.8L104.0,68.4L104.0,72.1L109.8,72.1L109.8,68.4L115.7,68.4L121.6,68.4L121.6,72.1L115.7,72.1L115.7,75.7L121.6,75.7L121.6,79.4L115.7,79.4L109.8,79.4L109.8,75.7L104.0,75.7L104.0,79.4L104.0,83.0L109.8,83.0L109.8,86.7L104.0,86.7L104.0,90.3L104.0,94.0L109.8,94.0L109.8,90.3L115.7,90.3L115.7,94.0L121.6,94.0L121.6,90.3L121.6,86.7L115.7,86.7L115.7,83.0L121.6,83.0L127.5,83.0L133.3,83.0L133.3,86.7L127.5,86.7L127.5,90.3L127.5,94.0L133.3,94.0L133.3,90.3L139.2,90.3L139.2,94.0L145.1,94.0L145.1,90.3L145.1,86.7L139.2,86.7L139.2,83.0L145.1,83.0L145.1,79.4L145.1,75.7L139.2,75.7L139.2,79.4L133.3,79.4L127.5,79.4L127.5,75.7L133.3,75.7L133.3,72.1L127.5,72.1L127.5,68.4L133.3,68.4L139.2,68.4L139.2,72.1L145.1,72.1L145.1,68.4L151.0,68.4L156.8,68.4L156.8,72.1L151.0,72.1L151.0,75.7L151.0,79.4L156.8,79.4L156.8,75.7L162.7,75.7L162.7,79.4L168.6,79.4L168.6,75.7L168.6,72.1L162.7,72.1L162.7,68.4L168.6,68.4L174.4,68.4L174.4,72.1L180.3,72.1L180.3,68.4L186.2,68.4L192.1,68.4L192.1,72.1L186.2,72.1L186.2,75.7L192.1,75.7L192.1,79.4L186.2,79.4L180.3,79.4L180.3,75.7L174.4,75.7L174.4,79.4L174.4,83.0L174.4,86.7L180.3,86.7L180.3,83.0L186.2,83.0L192.1,83.0L192.1,86.7L186.2,86.7L186.2,90.3L192.1,90.3L192.1,94.0L186.2,94.0L180.3,94.0L180.3,90.3L174.4,90.3L174.4,94.0L168.6,94.0L162.7,94.0L162.7,90.3L168.6,90.3L168.6,86.7L168.6,83.0L162.7,83.0L162.7,86.7L156.8,86.7L156.8,83.0L151.0,83.0L151.0,86.7L151.0,90.3L156.8,90.3L156.8,94.0L151.0,94.0L151.0,97.6L156.8,97.6L156.8,101.3L151.0,101.3L151.0,104.9L151.0,108.6L156.8,108.6L156.8,104.9L162.7,104.9L162.7,108.6L168.6,108.6L168.6,104.9L168.6,101.3L162.7,101.3L162.7,97.6L168.6,97.6L174.4,97.6L174.4,101.3L180.3,101.3L180.3,97.6L186.2,97.6L192.1,97.6L192.1,101.3L186.2,101.3L186.2,104.9L192.1,104.9L192.1,108.6L186.2,108.6L180.3,108.6L180.3,104.9L174.4,104.9L174.4,108.6L174.4,112.2L174.4,115.9L180.3,115.9L180.3,112.2L186.2,112.2L192.1,112.2L192.1,115.9L186.2,115.9L186.2,119.5L192.1,119.5L192.1,123.2L186.2,123.2L180.3,123.2L180.3,119.5L174.4,119.5L174.4,123.2L168.6,123.2L162.7,123.2L162.7,119.5L168.6,119.5L168.6,115.9L168.6,112.2L162.7,112.2L162.7,115.9L156.8,115.9L156.8,112.2L151.0,112.2L151.0,115.9L151.0,119.5L156.8,119.5L156.8,123.2L151.0,123.2L145.1,123.2L145.1,119.5L139.2,119.5L139.2,123.2L133.3,123.2L127.5,123.2L127.5,119.5L133.3,119.5L133.3,115.9L127.5,115.9L127.5,112.2L133.3,112.2L139.2,112.2L139.2,115.9L145.1,115.9L145.1,112.2L145.1,108.6L139.2,108.6L139.2,104.9L145.1,104.9L145.1,101.3L145.1,97.6L139.2,97.6L139.2,101.3L133.3,101.3L133.3,97.6L127.5,97.6L127.5,101.3L127.5,104.9L133.3,104.9L133.3,108.6L127.5,108.6L121.6,108.6L115.7,108.6L115.7,104.9L121.6,104.9L121.6,101.3L121.6,97.6L115.7,97.6L115.7,101.3L109.8,101.3L109.8,97.6L104.0,97.6L104.0,101.3L104.0,104.9L109.8,104.9L109.8,108.6L104.0,108.6L104.0,112.2L104.0,115.9L109.8,115.9L109.8,112.2L115.7,112.2L121.6,112.2L121.6,115.9L115.7,115.9L115.7,119.5L121.6,119.5L121.6,123.2L115.7,123.2L109.8,123.2L109.8,119.5L104.0,119.5L104.0,123.2L98.1,123.2L92.2,123.2L92.2,119.5L98.1,119.5L98.1,115.9L98.1,112.2L92.2,112.2L92.2,115.9L86.3,115.9L86.3,112.2L80.5,112.2L80.5,115.9L80.5,119.5L86.3,119.5L86.3,123.2L80.5,123.2L74.6,123.2L74.6,119.5L68.7,119.5L68.7,123.2L62.9,123.2L57.0,123.2L57.0,119.5L62.9,119.5L62.9,115.9L57.0,115.9L57.0,112.2L62.9,112.2L68.7,112.2L68.7,115.9L74.6,115.9L74.6,112.2L74.6,108.6L74.6,104.9L68.7,104.9L68.7,108.6L62.9,108.6L57.0,108.6L57.0,104.9L62.9,104.9L62.9,101.3L57.0,101.3L57.0,97.6L62.9,97.6L68.7,97.6L68.7,101.3L74.6,101.3L74.6,97.6L80.5,97.6L86.3,97.6L86.3,101.3L80.5,101.3L80.5,104.9L80.5,108.6L86.3,108.6L86.3,104.9L92.2,104.9L92.2,108.6L98.1,108.6L98.1,104.9L98.1,101.3L92.2,101.3L92.2,97.6L98.1,97.6L98.1,94.0L98.1,90.3L92.2,90.3L92.2,94.0L86.3,94.0L80.5,94.0L80.5,90.3L86.3,90.3L86.3,86.7L80.5,86.7L80.5,83.0L86.3,83.0L92.2,83.0L92.2,86.7L98.1,86.7L98.1,83.0L98.1,79.4L92.2,79.4L92.2,75.7L98.1,75.7L98.1,72.1L98.1,68.4L92.2,68.4L92.2,72.1L86.3,72.1L86.3,68.4L80.5,68.4L80.5,72.1L80.5,75.7L86.3,75.7L86.3,79.4L80.5,79.4L74.6,79.4L68.7,79.4L68.7,75.7L74.6,75.7L74.6,72.1L74.6,68.4L68.7,68.4L68.7,72.1L62.9,72.1L62.9,68.4L57.0,68.4L57.0,72.1L57.0,75.7L62.9,75.7L62.9,79.4L57.0,79.4L57.0,83.0L57.0,86.7L62.9,86.7L62.9,83.0L68.7,83.0L74.6,83.0L74.6,86.7L68.7,86.7L68.7,90.3L74.6,90.3L74.6,94.0L68.7,94.0L62.9,94.0L62.9,90.3L57.0,90.3L57.0,94.0L51.1,94.0L51.1,90.3L45.2,90.3L45.2,94.0L39.4,94.0L33.5,94.0L33.5,90.3L39.4,90.3L39.4,86.7L33.5,86.7L33.5,83.0L39.4,83.0L45.2,83.0L45.2,86.7L51.1,86.7L51.1,83.0L51.1,79.4L45.2,79.4L45.2,75.7L51.1,75.7L51.1,72.1L51.1,68.4L45.2,68.4L45.2,72.1L39.4,72.1L39.4,68.4L33.5,68.4L33.5,72.1L33.5,75.7L39.4,75.7L39.4,79.4L33.5,79.4L27.6,79.4L21.7,79.4L21.7,75.7L27.6,75.7L27.6,72.1L27.6,68.4L21.7,68.4L21.7,72.1L15.9,72.1L15.9,68.4L10.0,68.4L10.0,72.1L10.0,75.7L15.9,75.7L15.9,79.4L10.0,79.4L10.0,83.0L10.0,86.7L15.9,86.7L15.9,83.0L21.7,83.0L27.6,83.0L27.6,86.7L21.7,86.7L21.7,90.3L27.6,90.3L27.6,94.0L21.7,94.0L15.9,94.0L15.9,90.3L10.0,90.3L10.0,94.0L10.0,97.6L15.9,97.6L15.9,101.3L10.0,101.3L10.0,104.9L10.0,108.6L15.9,108.6L15.9,104.9L21.7,104.9L21.7,108.6L27.6,108.6L27.6,104.9L27.6,101.3L21.7,101.3L21.7,97.6L27.6,97.6L33.5,97.6L33.5,101.3L39.4,101.3L39.4,97.6L45.2,97.6L51.1,97.6L51.1,101.3L45.2,101.3L45.2,104.9L51.1,104.9L51.1,108.6L45.2,108.6L39.4,108.6L39.4,104.9L33.5,104.9L33.5,108.6L33.5,112.2L33.5,115.9L39.4,115.9L39.4,112.2L45.2,112.2L51.1,112.2L51.1,115.9L45.2,115.9L45.2,119.5L51.1,119.5L51.1,123.2L45.2,123.2L39.4,123.2L39.4,119.5L33.5,119.5L33.5,123.2L27.6,123.2L21.7,123.2L21.7,119.5L27.6,119.5L27.6,115.9L27.6,112.2L21.7,112.2L21.7,115.9L15.9,115.9L15.9,112.2L10.0,112.2L10.0,115.9L10.0,119.5L15.9,119.5L15.9,123.2L10.0,123.2L10.0,126.8L10.0,130.5L15.9,130.5L15.9,126.8L21.7,126.8L27.6,126.8L27.6,130.5L21.7,130.5L21.7,134.1L27.6,134.1L27.6,137.8L21.7,137.8L15.9,137.8L15.9,134.1L10.0,134.1L10.0,137.8L10.0,141.4L15.9,141.4L15.9,145.1L10.0,145.1L10.0,148.7L10.0,152.4L15.9,152.4L15.9,148.7L21.7,148.7L21.7,152.4L27.6,152.4L27.6,148.7L27.6,145.1L21.7,145.1L21.7,141.4L27.6,141.4L33.5,141.4L39.4,141.4L39.4,145.1L33.5,145.1L33.5,148.7L33.5,152.4L39.4,152.4L39.4,148.7L45.2,148.7L45.2,152.4L51.1,152.4L51.1,148.7L51.1,145.1L45.2,145.1L45.2,141.4L51.1,141.4L51.1,137.8L51.1,134.1L45.2,134.1L45.2,137.8L39.4,137.8L33.5,137.8L33.5,134.1L39.4,134.1L39.4,130.5L33.5,130.5L33.5,126.8L39.4,126.8L45.2,126.8L45.2,130.5L51.1,130.5L51.1,126.8L57.0,126.8L62.9,126.8L62.9,130.5L57.0,130.5L57.0,134.1L57.0,137.8L62.9,137.8L62.9,134.1L68.7,134.1L68.7,137.8L74.6,137.8L74.6,134.1L74.6,130.5L68.7,130.5L68.7,126.8L74.6,126.8L80.5,126.8L80.5,130.5L86.3,130.5L86.3,126.8L92.2,126.8L98.1,126.8L98.1,130.5L92.2,130.5L92.2,134.1L98.1,134.1L98.1,137.8L92.2,137.8L86.3,137.8L86.3,134.1L80.5,134.1L80.5,137.8L80.5,141.4L80.5,145.1L86.3,145.1L86.3,141.4L92.2,141.4L98.1,141.4L98.1,145.1L92.2,145.1L92.2,148.7L98.1,148.7L98.1,152.4L92.2,152.4L86.3,152.4L86.3,148.7L80.5,148.7L80.5,152.4L74.6,152.4L68.7,152.4L68.7,148.7L74.6,148.7L74.6,145.1L74.6,141.4L68.7,141.4L68.7,145.1L62.9,145.1L62.9,141.4L57.0,141.4L57.0,145.1L57.0,148.7L62.9,148.7L62.9,152.4L57.0,152.4L57.0,156.0L62.9,156.0L62.9,159.7L57.0,159.7L57.0,163.3L57.0,167.0L62.9,167.0L62.9,163.3L68.7,163.3L68.7,167.0L74.6,167.0L74.6,163.3L74.6,159.7L68.7,159.7L68.7,156.0L74.6,156.0L80.5,156.0L80.5,159.7L86.3,159.7L86.3,156.0L92.2,156.0L98.1,156.0L98.1,159.7L92.2,159.7L92.2,163.3L98.1,163.3L98.1,167.0L92.2,167.0L86.3,167.0L86.3,163.3L80.5,163.3L80.5,167.0L80.5,170.6L80.5,174.3L86.3,174.3L86.3,170.6L92.2,170.6L98.1,170.6L98.1,174.3L92.2,174.3L92.2,177.9L98.1,177.9L98.1,181.6L92.2,181.6L86.3,181.6L86.3,177.9L80.5,177.9L80.5,181.6L74.6,181.6L68.7,181.6L68.7,177.9L74.6,177.9L74.6,174.3L74.6,170.6L68.7,170.6L68.7,174.3L62.9,174.3L62.9,170.6L57.0,170.6L57.0,174.3L57.0,177.9L62.9,177.9L62.9,181.6L57.0,181.6L51.1,181.6L51.1,177.9L45.2,177.9L45.2,181.6L39.4,181.6L33.5,181.6L33.5,177.9L39.4,177.9L39.4,174.3L33.5,174.3L33.5,170.6L39.4,170.6L45.2,170.6L45.2,174.3L51.1,174.3L51.1,170.6L51.1,167.0L45.2,167.0L45.2,163.3L51.1,163.3L51.1,159.7L51.1,156.0L45.2,156.0L45.2,159.7L39.4,159.7L39.4,156.0L33.5,156.0L33.5,159.7L33.5,163.3L39.4,163.3L39.4,167.0L33.5,167.0L27.6,167.0L21.7,167.0L21.7,163.3L27.6,163.3L27.6,159.7L27.6,156.0L21.7,156.0L21.7,159.7L15.9,159.7L15.9,156.0L10.0,156.0L10.0,159.7L10.0,163.3L15.9,163.3L15.9,167.0L10.0,167.0L10.0,170.6L10.0,174.3L15.9,174.3L15.9,170.6L21.7,170.6L27.6,170.6L27.6,174.3L21.7,174.3L21.7,177.9L27.6,177.9L27.6,181.6L21.7,181.6L15.9,181.6L15.9,177.9L10.0,177.9L10.0,181.6L10.0,185.2L15.9,185.2L15.9,188.9L10.0,188.9L10.0,192.5L10.0,196.2L15.9,196.2L15.9,192.5L21.7,192.5L21.7,196.2L27.6,196.2L27.6,192.5L27.6,188.9L21.7,188.9L21.7,185.2L27.6,185.2L33.5,185.2L33.5,188.9L39.4,188.9L39.4,185.2L45.2,185.2L51.1,185.2L51.1,188.9L45.2,188.9L45.2,192.5L51.1,192.5L51.1,196.2L45.2,196.2L39.4,196.2L39.4,192.5L33.5,192.5L33.5,196.2L33.5,199.8L33.5,203.5L39.4,203.5L39.4,199.8L45.2,199.8L51.1,199.8L51.1,203.5L45.2,203.5L45.2,207.1L51.1,207.1L51.1,210.8L45.2,210.8L39.4,210.8L39.4,207.1L33.5,207.1L33.5,210.8L27.6,210.8L21.7,210.8L21.7,207.1L27.6,207.1L27.6,203.5L27.6,199.8L21.7,199.8L21.7,203.5L15.9,203.5L15.9,199.8L10.0,199.8L10.0,203.5L10.0,207.1L15.9,207.1L15.9,210.8L10.0,210.8L10.0,214.4L10.0,218.1L15.9,218.1L15.9,214.4L21.7,214.4L27.6,214.4L27.6,218.1L21.7,218.1L21.7,221.7L27.6,221.7L27.6,225.4L21.7,225.4L15.9,225.4L15.9,221.7L10.0,221.7L10.0,225.4L10.0,229.0L15.9,229.0L15.9,232.7L10.0,232.7L10.0,236.3L10.0,240.0L15.9,240.0L15.9,236.3L21.7,236.3L21.7,240.0L27.6,240.0L27.6,236.3L27.6,232.7L21.7,232.7L21.7,229.0L27.6,229.0L33.5,229.0L39.4,229.0L39.4,232.7L33.5,232.7L33.5,236.3L33.5,240.0L39.4,240.0L39.4,236.3L45.2,236.3L45.2,240.0L51.1,240.0L51.1,236.3L51.1,232.7L45.2,232.7L45.2,229.0L51.1,229.0L51.1,225.4L51.1,221.7L45.2,221.7L45.2,225.4L39.4,225.4L33.5,225.4L33.5,221.7L39.4,221.7L39.4,218.1L33.5,218.1L33.5,214.4L39.4,214.4L45.2,214.4L45.2,218.1L51.1,218.1L51.1,214.4L57.0,214.4L57.0,218.1L62.9,218.1L62.9,214.4L68.7,214.4L74.6,214.4L74.6,218.1L68.7,218.1L68.7,221.7L74.6,221.7L74.6,225.4L68.7,225.4L62.9,225.4L62.9,221.7L57.0,221.7L57.0,225.4L57.0,229.0L62.9,229.0L62.9,232.7L57.0,232.7L57.0,236.3L57.0,240.0L62.9,240.0L62.9,236.3L68.7,236.3L68.7,240.0L74.6,240.0L74.6,236.3L74.6,232.7L68.7,232.7L68.7,229.0L74.6,229.0L80.5,229.0L86.3,229.0L86.3,232.7L80.5,232.7L80.5,236.3L80.5,240.0L86.3,240.0L86.3,236.3L92.2,236.3L92.2,240.0L98.1,240.0L98.1,236.3L98.1,232.7L92.2,232.7L92.2,229.0L98.1,229.0L98.1,225.4L98.1,221.7L92.2,221.7L92.2,225.4L86.3,225.4L80.5,225.4L80.5,221.7L86.3,221.7L86.3,218.1L80.5,218.1L80.5,214.4L86.3,214.4L92.2,214.4L92.2,218.1L98.1,218.1L98.1,214.4L98.1,210.8L92.2,210.8L92.2,207.1L98.1,207.1L98.1,203.5L98.1,199.8L92.2,199.8L92.2,203.5L86.3,203.5L86.3,199.8L80.5,199.8L80.5,203.5L80.5,207.1L86.3,207.1L86.3,210.8L80.5,210.8L74.6,210.8L74.6,207.1L68.7,207.1L68.7,210.8L62.9,210.8L57.0,210.8L57.0,207.1L62.9,207.1L62.9,203.5L57.0,203.5L57.0,199.8L62.9,199.8L68.7,199.8L68.7,203.5L74.6,203.5L74.6,199.8L74.6,196.2L74.6,192.5L68.7,192.5L68.7,196.2L62.9,196.2L57.0,196.2L57.0,192.5L62.9,192.5L62.9,188.9L57.0,188.9L57.0,185.2L62.9,185.2L68.7,185.2L68.7,188.9L74.6,188.9L74.6,185.2L80.5,185.2L86.3,185.2L86.3,188.9L80.5,188.9L80.5,192.5L80.5,196.2L86.3,196.2L86.3,192.5L92.2,192.5L92.2,196.2L98.1,196.2L98.1,192.5L98.1,188.9L92.2,188.9L92.2,185.2L98.1,185.2L104.0,185.2L109.8,185.2L109.8,188.9L104.0,188.9L104.0,192.5L104.0,196.2L109.8,196.2L109.8,192.5L115.7,192.5L115.7,196.2L121.6,196.2L121.6,192.5L121.6,188.9L115.7,188.9L115.7,185.2L121.6,185.2L127.5,185.2L127.5,188.9L133.3,188.9L133.3,185.2L139.2,185.2L145.1,185.2L145.1,188.9L139.2,188.9L139.2,192.5L145.1,192.5L145.1,196.2L139.2,196.2L133.3,196.2L133.3,192.5L127.5,192.5L127.5,196.2L127.5,199.8L127.5,203.5L133.3,203.5L133.3,199.8L139.2,199.8L145.1,199.8L145.1,203.5L139.2,203.5L139.2,207.1L145.1,207.1L145.1,210.8L139.2,210.8L133.3,210.8L133.3,207.1L127.5,207.1L127.5,210.8L121.6,210.8L115.7,210.8L115.7,207.1L121.6,207.1L121.6,203.5L121.6,199.8L115.7,199.8L115.7,203.5L109.8,203.5L109.8,199.8L104.0,199.8L104.0,203.5L104.0,207.1L109.8,207.1L109.8,210.8L104.0,210.8L104.0,214.4L104.0,218.1L109.8,218.1L109.8,214.4L115.7,214.4L121.6,214.4L121.6,218.1L115.7,218.1L115.7,221.7L121.6,221.7L121.6,225.4L115.7,225.4L109.8,225.4L109.8,221.7L104.0,221.7L104.0,225.4L104.0,229.0L109.8,229.0L109.8,232.7L104.0,232.7L104.0,236.3L104.0,240.0L109.8,240.0L109.8,236.3L115.7,236.3L115.7,240.0L121.6,240.0L121.6,236.3L121.6,232.7L115.7,232.7L115.7,229.0L121.6,229.0L127.5,229.0L133.3,229.0L133.3,232.7L127.5,232.7L127.5,236.3L127.5,240.0L133.3,240.0L133.3,236.3L139.2,236.3L139.2,240.0L145.1,240.0L145.1,236.3L145.1,232.7L139.2,232.7L139.2,229.0L145.1,229.0L145.1,225.4L145.1,221.7L139.2,221.7L139.2,225.4L133.3,225.4L127.5,225.4L127.5,221.7L133.3,221.7L133.3,218.1L127.5,218.1L127.5,214.4L133.3,214.4L139.2,214.4L139.2,218.1L145.1,218.1L145.1,214.4L151.0,214.4L151.0,218.1L156.8,218.1L156.8,214.4L162.7,214.4L168.6,214.4L168.6,218.1L162.7,218.1L162.7,221.7L168.6,221.7L168.6,225.4L162.7,225.4L156.8,225.4L156.8,221.7L151.0,221.7L151.0,225.4L151.0,229.0L156.8,229.0L156.8,232.7L151.0,232.7L151.0,236.3L151.0,240.0L156.8,240.0L156.8,236.3L162.7,236.3L162.7,240.0L168.6,240.0L168.6,236.3L168.6,232.7L162.7,232.7L162.7,229.0L168.6,229.0L174.4,229.0L180.3,229.0L180.3,232.7L174.4,232.7L174.4,236.3L174.4,240.0L180.3,240.0L180.3,236.3L186.2,236.3L186.2,240.0L192.1,240.0L192.1,236.3L192.1,232.7L186.2,232.7L186.2,229.0L192.1,229.0L192.1,225.4L192.1,221.7L186.2,221.7L186.2,225.4L180.3,225.4L174.4,225.4L174.4,221.7L180.3,221.7L180.3,218.1L174.4,218.1L174.4,214.4L180.3,214.4L186.2,214.4L186.2,218.1L192.1,218.1L192.1,214.4L192.1,210.8L186.2,210.8L186.2,207.1L192.1,207.1L192.1,203.5L192.1,199.8L186.2,199.8L186.2,203.5L180.3,203.5L180.3,199.8L174.4,199.8L174.4,203.5L174.4,207.1L180.3,207.1L180.3,210.8L174.4,210.8L168.6,210.8L168.6,207.1L162.7,207.1L162.7,210.8L156.8,210.8L151.0,210.8L151.0,207.1L156.8,207.1L156.8,203.5L151.0,203.5L151.0,199.8L156.8,199.8L162.7,199.8L162.7,203.5L168.6,203.5L168.6,199.8L168.6,196.2L168.6,192.5L162.7,192.5L162.7,196.2L156.8,196.2L151.0,196.2L151.0,192.5L156.8,192.5L156.8,188.9L151.0,188.9L151.0,185.2L156.8,185.2L162.7,185.2L162.7,188.9L168.6,188.9L168.6,185.2L174.4,185.2L180.3,185.2L180.3,188.9L174.4,188.9L174.4,192.5L174.4,196.2L180.3,196.2L180.3,192.5L186.2,192.5L186.2,196.2L192.1,196.2L192.1,192.5L192.1,188.9L186.2,188.9L186.2,185.2L192.1,185.2L192.1,181.6L192.1,177.9L186.2,177.9L186.2,181.6L180.3,181.6L174.4,181.6L174.4,177.9L180.3,177.9L180.3,174.3L174.4,174.3L174.4,170.6L180.3,170.6L186.2,170.6L186.2,174.3L192.1,174.3L192.1,170.6L192.1,167.0L186.2,167.0L186.2,163.3L192.1,163.3L192.1,159.7L192.1,156.0L186.2,156.0L186.2,159.7L180.3,159.7L180.3,156.0L174.4,156.0L174.4,159.7L174.4,163.3L180.3,163.3L180.3,167.0L174.4,167.0L168.6,167.0L162.7,167.0L162.7,163.3L168.6,163.3L168.6,159.7L168.6,156.0L162.7,156.0L162.7,159.7L156.8,159.7L156.8,156.0L151.0,156.0L151.0,159.7L151.0,163.3L156.8,163.3L156.8,167.0L151.0,167.0L151.0,170.6L151.0,174.3L156.8,174.3L156.8,170.6L162.7,170.6L168.6,170.6L168.6,174.3L162.7,174.3L162.7,177.9L168.6,177.9L168.6,181.6L162.7,181.6L156.8,181.6L156.8,177.9L151.0,177.9L151.0,181.6L145.1,181.6L139.2,181.6L139.2,177.9L145.1,177.9L145.1,174.3L145.1,170.6L139.2,170.6L139.2,174.3L133.3,174.3L133.3,170.6L127.5,170.6L127.5,174.3L127.5,177.9L133.3,177.9L133.3,181.6L127.5,181.6L121.6,181.6L121.6,177.9L115.7,177.9L115.7,181.6L109.8,181.6L104.0,181.6L104.0,177.9L109.8,177.9L109.8,174.3L104.0,174.3L104.0,170.6L109.8,170.6L115.7,170.6L115.7,174.3L121.6,174.3L121.6,170.6L121.6,167.0L121.6,163.3L115.7,163.3L115.7,167.0L109.8,167.0L104.0,167.0L104.0,163.3L109.8,163.3L109.8,159.7L104.0,159.7L104.0,156.0L109.8,156.0L115.7,156.0L115.7,159.7L121.6,159.7L121.6,156.0L127.5,156.0L133.3,156.0L133.3,159.7L127.5,159.7L127.5,163.3L127.5,167.0L133.3,167.0L133.3,163.3L139.2,163.3L139.2,167.0L145.1,167.0L145.1,163.3L145.1,159.7L139.2,159.7L139.2,156.0L145.1,156.0L145.1,152.4L139.2,152.4L139.2,148.7L145.1,148.7L145.1,145.1L145.1,141.4L139.2,141.4L139.2,145.1L133.3,145.1L133.3,141.4L127.5,141.4L127.5,145.1L127.5,148.7L133.3,148.7L133.3,152.4L127.5,152.4L121.6,152.4L121.6,148.7L115.7,148.7L115.7,152.4L109.8,152.4L104.0,152.4L104.0,148.7L109.8,148.7L109.8,145.1L104.0,145.1L104.0,141.4L109.8,141.4L115.7,141.4L115.7,145.1L121.6,145.1L121.6,141.4L121.6,137.8L121.6,134.1L115.7,134.1L115.7,137.8L109.8,137.8L104.0,137.8L104.0,134.1L109.8,134.1L109.8,130.5L104.0,130.5L104.0,126.8L109.8,126.8L115.7,126.8L115.7,130.5L121.6,130.5L121.6,126.8L127.5,126.8L133.3,126.8L133.3,130.5L127.5,130.5L127.5,134.1L127.5,137.8L133.3,137.8L133.3,134.1L139.2,134.1L139.2,137.8L145.1,137.8L145.1,134.1L145.1,130.5L139.2,130.5L139.2,126.8L145.1,126.8L151.0,126.8L151.0,130.5L156.8,130.5L156.8,126.8L162.7,126.8L168.6,126.8L168.6,130.5L162.7,130.5L162.7,134.1L168.6,134.1L168.6,137.8L162.7,137.8L156.8,137.8L156.8,134.1L151.0,134.1L151.0,137.8L151.0,141.4L156.8,141.4L156.8,145.1L151.0,145.1L151.0,148.7L151.0,152.4L156.8,152.4L156.8,148.7L162.7,148.7L162.7,152.4L168.6,152.4L168.6,148.7L168.6,145.1L162.7,145.1L162.7,141.4L168.6,141.4L174.4,141.4L180.3,141.4L180.3,145.1L174.4,145.1L174.4,148.7L174.4,152.4L180.3,152.4L180.3,148.7L186.2,148.7L186.2,152.4L192.1,152.4L192.1,148.7L192.1,145.1L186.2,145.1L186.2,141.4L192.1,141.4L192.1,137.8L192.1,134.1L186.2,134.1L186.2,137.8L180.3,137.8L174.4,137.8L174.4,134.1L180.3,134.1L180.3,130.5L174.4,130.5L174.4,126.8L180.3,126.8L186.2,126.8L186.2,130.5L192.1,130.5L192.1,126.8L197.9,126.8L197.9,130.5L203.8,130.5L203.8,126.8L209.7,126.8L215.6,126.8L215.6,130.5L209.7,130.5L209.7,134.1L215.6,134.1L215.6,137.8L209.7,137.8L203.8,137.8L203.8,134.1L197.9,134.1L197.9,137.8L197.9,141.4L203.8,141.4L203.8,145.1L197.9,145.1L197.9,148.7L197.9,152.4L203.8,152.4L203.8,148.7L209.7,148.7L209.7,152.4L215.6,152.4L215.6,148.7L215.6,145.1L209.7,145.1L209.7,141.4L215.6,141.4L221.4,141.4L227.3,141.4L227.3,145.1L221.4,145.1L221.4,148.7L221.4,152.4L227.3,152.4L227.3,148.7L233.2,148.7L233.2,152.4L239.0,152.4L239.0,148.7L239.0,145.1L233.2,145.1L233.2,141.4L239.0,141.4L239.0,137.8L239.0,134.1L233.2,134.1L233.2,137.8L227.3,137.8L221.4,137.8L221.4,134.1L227.3,134.1L227.3,130.5L221.4,130.5L221.4,126.8L227.3,126.8L233.2,126.8L233.2,130.5L239.0,130.5L239.0,126.8L244.9,126.8L250.8,126.8L250.8,130.5L244.9,130.5L244.9,134.1L244.9,137.8L250.8,137.8L250.8,134.1L256.7,134.1L256.7,137.8L262.5,137.8L262.5,134.1L262.5,130.5L256.7,130.5L256.7,126.8L262.5,126.8L268.4,126.8L268.4,130.5L274.3,130.5L274.3,126.8L280.2,126.8L286.0,126.8L286.0,130.5L280.2,130.5L280.2,134.1L286.0,134.1L286.0,137.8L280.2,137.8L274.3,137.8L274.3,134.1L268.4,134.1L268.4,137.8L268.4,141.4L268.4,145.1L274.3,145.1L274.3,141.4L280.2,141.4L286.0,141.4L286.0,145.1L280.2,145.1L280.2,148.7L286.0,148.7L286.0,152.4L280.2,152.4L274.3,152.4L274.3,148.7L268.4,148.7L268.4,152.4L262.5,152.4L256.7,152.4L256.7,148.7L262.5,148.7L262.5,145.1L262.5,141.4L256.7,141.4L256.7,145.1L250.8,145.1L250.8,141.4L244.9,141.4L244.9,145.1L244.9,148.7L250.8,148.7L250.8,152.4L244.9,152.4L244.9,156.0L250.8,156.0L250.8,159.7L244.9,159.7L244.9,163.3L244.9,167.0L250.8,167.0L250.8,163.3L256.7,163.3L256.7,167.0L262.5,167.0L262.5,163.3L262.5,159.7L256.7,159.7L256.7,156.0L262.5,156.0L268.4,156.0L268.4,159.7L274.3,159.7L274.3,156.0L280.2,156.0L286.0,156.0L286.0,159.7L280.2,159.7L280.2,163.3L286.0,163.3L286.0,167.0L280.2,167.0L274.3,167.0L274.3,163.3L268.4,163.3L268.4,167.0L268.4,170.6L268.4,174.3L274.3,174.3L274.3,170.6L280.2,170.6L286.0,170.6L286.0,174.3L280.2,174.3L280.2,177.9L286.0,177.9L286.0,181.6L280.2,181.6L274.3,181.6L274.3,177.9L268.4,177.9L268.4,181.6L262.5,181.6L256.7,181.6L256.7,177.9L262.5,177.9L262.5,174.3L262.5,170.6L256.7,170.6L256.7,174.3L250.8,174.3L250.8,170.6L244.9,170.6L244.9,174.3L244.9,177.9L250.8,177.9L250.8,181.6L244.9,181.6L239.0,181.6L239.0,177.9L233.2,177.9L233.2,181.6L227.3,181.6L221.4,181.6L221.4,177.9L227.3,177.9L227.3,174.3L221.4,174.3L221.4,170.6L227.3,170.6L233.2,170.6L233.2,174.3L239.0,174.3L239.0,170.6L239.0,167.0L233.2,167.0L233.2,163.3L239.0,163.3L239.0,159.7L239.0,156.0L233.2,156.0L233.2,159.7L227.3,159.7L227.3,156.0L221.4,156.0L221.4,159.7L221.4,163.3L227.3,163.3L227.3,167.0L221.4,167.0L215.6,167.0L209.7,167.0L209.7,163.3L215.6,163.3L215.6,159.7L215.6,156.0L209.7,156.0L209.7,159.7L203.8,159.7L203.8,156.0L197.9,156.0L197.9,159.7L197.9,163.3L203.8,163.3L203.8,167.0L197.9,167.0L197.9,170.6L197.9,174.3L203.8,174.3L203.8,170.6L209.7,170.6L215.6,170.6L215.6,174.3L209.7,174.3L209.7,177.9L215.6,177.9L215.6,181.6L209.7,181.6L203.8,181.6L203.8,177.9L197.9,177.9L197.9,181.6L197.9,185.2L203.8,185.2L203.8,188.9L197.9,188.9L197.9,192.5L197.9,196.2L203.8,196.2L203.8,192.5L209.7,192.5L209.7,196.2L215.6,196.2L215.6,192.5L215.6,188.9L209.7,188.9L209.7,185.2L215.6,185.2L221.4,185.2L221.4,188.9L227.3,188.9L227.3,185.2L233.2,185.2L239.0,185.2L239.0,188.9L233.2,188.9L233.2,192.5L239.0,192.5L239.0,196.2L233.2,196.2L227.3,196.2L227.3,192.5L221.4,192.5L221.4,196.2L221.4,199.8L221.4,203.5L227.3,203.5L227.3,199.8L233.2,199.8L239.0,199.8L239.0,203.5L233.2,203.5L233.2,207.1L239.0,207.1L239.0,210.8L233.2,210.8L227.3,210.8L227.3,207.1L221.4,207.1L221.4,210.8L215.6,210.8L209.7,210.8L209.7,207.1L215.6,207.1L215.6,203.5L215.6,199.8L209.7,199.8L209.7,203.5L203.8,203.5L203.8,199.8L197.9,199.8L197.9,203.5L197.9,207.1L203.8,207.1L203.8,210.8L197.9,210.8L197.9,214.4L197.9,218.1L203.8,218.1L203.8,214.4L209.7,214.4L215.6,214.4L215.6,218.1L209.7,218.1L209.7,221.7L215.6,221.7L215.6,225.4L209.7,225.4L203.8,225.4L203.8,221.7L197.9,221.7L197.9,225.4L197.9,229.0L203.8,229.0L203.8,232.7L197.9,232.7L197.9,236.3L197.9,240.0L203.8,240.0L203.8,236.3L209.7,236.3L209.7,240.0L215.6,240.0L215.6,236.3L215.6,232.7L209.7,232.7L209.7,229.0L215.6,229.0L221.4,229.0L227.3,229.0L227.3,232.7L221.4,232.7L221.4,236.3L221.4,240.0L227.3,240.0L227.3,236.3L233.2,236.3L233.2,240.0L239.0,240.0L239.0,236.3L239.0,232.7L233.2,232.7L233.2,229.0L239.0,229.0L239.0,225.4L239.0,221.7L233.2,221.7L233.2,225.4L227.3,225.4L221.4,225.4L221.4,221.7L227.3,221.7L227.3,218.1L221.4,218.1L221.4,214.4L227.3,214.4L233.2,214.4L233.2,218.1L239.0,218.1L239.0,214.4L244.9,214.4L244.9,218.1L250.8,218.1L250.8,214.4L256.7,214.4L262.5,214.4L262.5,218.1L256.7,218.1L256.7,221.7L262.5,221.7L262.5,225.4L256.7,225.4L250.8,225.4L250.8,221.7L244.9,221.7L244.9,225.4L244.9,229.0L250.8,229.0L250.8,232.7L244.9,232.7L244.9,236.3L244.9,240.0L250.8,240.0L250.8,236.3L256.7,236.3L256.7,240.0L262.5,240.0L262.5,236.3L262.5,232.7L256.7,232.7L256.7,229.0L262.5,229.0L268.4,229.0L274.3,229.0L274.3,232.7L268.4,232.7L268.4,236.3L268.4,240.0L274.3,240.0L274.3,236.3L280.2,236.3L280.2,240.0L286.0,240.0L286.0,236.3L286.0,232.7L280.2,232.7L280.2,229.0L286.0,229.0L286.0,225.4L286.0,221.7L280.2,221.7L280.2,225.4L274.3,225.4L268.4,225.4L268.4,221.7L274.3,221.7L274.3,218.1L268.4,218.1L268.4,214.4L274.3,214.4L280.2,214.4L280.2,218.1L286.0,218.1L286.0,214.4L286.0,210.8L280.2,210.8L280.2,207.1L286.0,207.1L286.0,203.5L286.0,199.8L280.2,199.8L280.2,203.5L274.3,203.5L274.3,199.8L268.4,199.8L268.4,203.5L268.4,207.1L274.3,207.1L274.3,210.8L268.4,210.8L262.5,210.8L262.5,207.1L256.7,207.1L256.7,210.8L250.8,210.8L244.9,210.8L244.9,207.1L250.8,207.1L250.8,203.5L244.9,203.5L244.9,199.8L250.8,199.8L256.7,199.8L256.7,203.5L262.5,203.5L262.5,199.8L262.5,196.2L262.5,192.5L256.7,192.5L256.7,196.2L250.8,196.2L244.9,196.2L244.9,192.5L250.8,192.5L250.8,188.9L244.9,188.9L244.9,185.2L250.8,185.2L256.7,185.2L256.7,188.9L262.5,188.9L262.5,185.2L268.4,185.2L274.3,185.2L274.3,188.9L268.4,188.9L268.4,192.5L268.4,196.2L274.3,196.2L274.3,192.5L280.2,192.5L280.2,196.2L286.0,196.2L286.0,192.5L286.0,188.9L280.2,188.9L280.2,185.2L286.0,185.2L291.9,185.2L297.8,185.2L297.8,188.9L291.9,188.9L291.9,192.5L291.9,196.2L297.8,196.2L297.8,192.5L303.7,192.5L303.7,196.2L309.5,196.2L309.5,192.5L309.5,188.9L303.7,188.9L303.7,185.2L309.5,185.2L315.4,185.2L315.4,188.9L321.3,188.9L321.3,185.2L327.1,185.2L333.0,185.2L333.0,188.9L327.1,188.9L327.1,192.5L333.0,192.5L333.0,196.2L327.1,196.2L321.3,196.2L321.3,192.5L315.4,192.5L315.4,196.2L315.4,199.8L315.4,203.5L321.3,203.5L321.3,199.8L327.1,199.8L333.0,199.8L333.0,203.5L327.1,203.5L327.1,207.1L333.0,207.1L333.0,210.8L327.1,210.8L321.3,210.8L321.3,207.1L315.4,207.1L315.4,210.8L309.5,210.8L303.7,210.8L303.7,207.1L309.5,207.1L309.5,203.5L309.5,199.8L303.7,199.8L303.7,203.5L297.8,203.5L297.8,199.8L291.9,199.8L291.9,203.5L291.9,207.1L297.8,207.1L297.8,210.8L291.9,210.8L291.9,214.4L291.9,218.1L297.8,218.1L297.8,214.4L303.7,214.4L309.5,214.4L309.5,218.1L303.7,218.1L303.7,221.7L309.5,221.7L309.5,225.4L303.7,225.4L297.8,225.4L297.8,221.7L291.9,221.7L291.9,225.4L291.9,229.0L297.8,229.0L297.8,232.7L291.9,232.7L291.9,236.3L291.9,240.0L297.8,240.0L297.8,236.3L303.7,236.3L303.7,240.0L309.5,240.0L309.5,236.3L309.5,232.7L303.7,232.7L303.7,229.0L309.5,229.0L315.4,229.0L321.3,229.0L321.3,232.7L315.4,232.7L315.4,236.3L315.4,240.0L321.3,240.0L321.3,236.3L327.1,236.3L327.1,240.0L333.0,240.0L333.0,236.3L333.0,232.7L327.1,232.7L327.1,229.0L333.0,229.0L333.0,225.4L333.0,221.7L327.1,221.7L327.1,225.4L321.3,225.4L315.4,225.4L315.4,221.7L321.3,221.7L321.3,218.1L315.4,218.1L315.4,214.4L321.3,214.4L327.1,214.4L327.1,218.1L333.0,218.1L333.0,214.4L338.9,214.4L338.9,218.1L344.8,218.1L344.8,214.4L350.6,214.4L356.5,214.4L356.5,218.1L350.6,218.1L350.6,221.7L356.5,221.7L356.5,225.4L350.6,225.4L344.8,225.4L344.8,221.7L338.9,221.7L338.9,225.4L338.9,229.0L344.8,229.0L344.8,232.7L338.9,232.7L338.9,236.3L338.9,240.0L344.8,240.0L344.8,236.3L350.6,236.3L350.6,240.0L356.5,240.0L356.5,236.3L356.5,232.7L350.6,232.7L350.6,229.0L356.5,229.0L362.4,229.0L368.3,229.0L368.3,232.7L362.4,232.7L362.4,236.3L362.4,240.0L368.3,240.0L368.3,236.3L374.1,236.3L374.1,240.0L380.0,240.0L380.0,236.3L380.0,232.7L374.1,232.7L374.1,229.0L380.0,229.0L380.0,225.4L380.0,221.7L374.1,221.7L374.1,225.4L368.3,225.4L362.4,225.4L362.4,221.7L368.3,221.7L368.3,218.1L362.4,218.1L362.4,214.4L368.3,214.4L374.1,214.4L374.1,218.1L380.0,218.1L380.0,214.4L380.0,210.8L374.1,210.8L374.1,207.1L380.0,207.1L380.0,203.5L380.0,199.8L374.1,199.8L374.1,203.5L368.3,203.5L368.3,199.8L362.4,199.8L362.4,203.5L362.4,207.1L368.3,207.1L368.3,210.8L362.4,210.8L356.5,210.8L356.5,207.1L350.6,207.1L350.6,210.8L344.8,210.8L338.9,210.8L338.9,207.1L344.8,207.1L344.8,203.5L338.9,203.5L338.9,199.8L344.8,199.8L350.6,199.8L350.6,203.5L356.5,203.5L356.5,199.8L356.5,196.2L356.5,192.5L350.6,192.5L350.6,196.2L344.8,196.2L338.9,196.2L338.9,192.5L344.8,192.5L344.8,188.9L338.9,188.9L338.9,185.2L344.8,185.2L350.6,185.2L350.6,188.9L356.5,188.9L356.5,185.2L362.4,185.2L368.3,185.2L368.3,188.9L362.4,188.9L362.4,192.5L362.4,196.2L368.3,196.2L368.3,192.5L374.1,192.5L374.1,196.2L380.0,196.2L380.0,192.5L380.0,188.9L374.1,188.9L374.1,185.2L380.0,185.2L380.0,181.6L380.0,177.9L374.1,177.9L374.1,181.6L368.3,181.6L362.4,181.6L362.4,177.9L368.3,177.9L368.3,174.3L362.4,174.3L362.4,170.6L368.3,170.6L374.1,170.6L374.1,174.3L380.0,174.3L380.0,170.6L380.0,167.0L374.1,167.0L374.1,163.3L380.0,163.3L380.0,159.7L380.0,156.0L374.1,156.0L374.1,159.7L368.3,159.7L368.3,156.0L362.4,156.0L362.4,159.7L362.4,163.3L368.3,163.3L368.3,167.0L362.4,167.0L356.5,167.0L350.6,167.0L350.6,163.3L356.5,163.3L356.5,159.7L356.5,156.0L350.6,156.0L350.6,159.7L344.8,159.7L344.8,156.0L338.9,156.0L338.9,159.7L338.9,163.3L344.8,163.3L344.8,167.0L338.9,167.0L338.9,170.6L338.9,174.3L344.8,174.3L344.8,170.6L350.6,170.6L356.5,170.6L356.5,174.3L350.6,174.3L350.6,177.9L356.5,177.9L356.5,181.6L350.6,181.6L344.8,181.6L344.8,177.9L338.9,177.9L338.9,181.6L333.0,181.6L327.1,181.6L327.1,177.9L333.0,177.9L333.0,174.3L333.0,170.6L327.1,170.6L327.1,174.3L321.3,174.3L321.3,170.6L315.4,170.6L315.4,174.3L315.4,177.9L321.3,177.9L321.3,181.6L315.4,181.6L309.5,181.6L309.5,177.9L303.7,177.9L303.7,181.6L297.8,181.6L291.9,181.6L291.9,177.9L297.8,177.9L297.8,174.3L291.9,174.3L291.9,170.6L297.8,170.6L303.7,170.6L303.7,174.3L309.5,174.3L309.5,170.6L309.5,167.0L309.5,163.3L303.7,163.3L303.7,167.0L297.8,167.0L291.9,167.0L291.9,163.3L297.8,163.3L297.8,159.7L291.9,159.7L291.9,156.0L297.8,156.0L303.7,156.0L303.7,159.7L309.5,159.7L309.5,156.0L315.4,156.0L321.3,156.0L321.3,159.7L315.4,159.7L315.4,163.3L315.4,167.0L321.3,167.0L321.3,163.3L327.1,163.3L327.1,167.0L333.0,167.0L333.0,163.3L333.0,159.7L327.1,159.7L327.1,156.0L333.0,156.0L333.0,152.4L327.1,152.4L327.1,148.7L333.0,148.7L333.0,145.1L333.0,141.4L327.1,141.4L327.1,145.1L321.3,145.1L321.3,141.4L315.4,141.4L315.4,145.1L315.4,148.7L321.3,148.7L321.3,152.4L315.4,152.4L309.5,152.4L309.5,148.7L303.7,148.7L303.7,152.4L297.8,152.4L291.9,152.4L291.9,148.7L297.8,148.7L297.8,145.1L291.9,145.1L291.9,141.4L297.8,141.4L303.7,141.4L303.7,145.1L309.5,145.1L309.5,141.4L309.5,137.8L309.5,134.1L303.7,134.1L303.7,137.8L297.8,137.8L291.9,137.8L291.9,134.1L297.8,134.1L297.8,130.5L291.9,130.5L291.9,126.8L297.8,126.8L303.7,126.8L303.7,130.5L309.5,130.5L309.5,126.8L315.4,126.8L321.3,126.8L321.3,130.5L315.4,130.5L315.4,134.1L315.4,137.8L321.3,137.8L321.3,134.1L327.1,134.1L327.1,137.8L333.0,137.8L333.0,134.1L333.0,130.5L327.1,130.5L327.1,126.8L333.0,126.8L338.9,126.8L338.9,130.5L344.8,130.5L344.8,126.8L350.6,126.8L356.5,126.8L356.5,130.5L350.6,130.5L350.6,134.1L356.5,134.1L356.5,137.8L350.6,137.8L344.8,137.8L344.8,134.1L338.9,134.1L338.9,137.8L338.9,141.4L344.8,141.4L344.8,145.1L338.9,145.1L338.9,148.7L338.9,152.4L344.8,152.4L344.8,148.7L350.6,148.7L350.6,152.4L356.5,152.4L356.5,148.7L356.5,145.1L350.6,145.1L350.6,141.4L356.5,141.4L362.4,141.4L368.3,141.4L368.3,145.1L362.4,145.1L362.4,148.7L362.4,152.4L368.3,152.4L368.3,148.7L374.1,148.7L374.1,152.4L380.0,152.4L380.0,148.7L380.0,145.1L374.1,145.1L374.1,141.4L380.0,141.4L380.0,137.8L380.0,134.1L374.1,134.1L374.1,137.8L368.3,137.8L362.4,137.8L362.4,134.1L368.3,134.1L368.3,130.5L362.4,130.5L362.4,126.8L368.3,126.8L374.1,126.8L374.1,130.5L380.0,130.5L380.0,126.8L380.0,123.2L374.1,123.2L374.1,119.5L380.0,119.5L380.0,115.9L380.0,112.2L374.1,112.2L374.1,115.9L368.3,115.9L368.3,112.2L362.4,112.2L362.4,115.9L362.4,119.5L368.3,119.5L368.3,123.2L362.4,123.2L356.5,123.2L356.5,119.5L350.6,119.5L350.6,123.2L344.8,123.2L338.9,123.2L338.9,119.5L344.8,119.5L344.8,115.9L338.9,115.9L338.9,112.2L344.8,112.2L350.6,112.2L350.6,115.9L356.5,115.9L356.5,112.2L356.5,108.6L356.5,104.9L350.6,104.9L350.6,108.6L344.8,108.6L338.9,108.6L338.9,104.9L344.8,104.9L344.8,101.3L338.9,101.3L338.9,97.6L344.8,97.6L350.6,97.6L350.6,101.3L356.5,101.3L356.5,97.6L362.4,97.6L368.3,97.6L368.3,101.3L362.4,101.3L362.4,104.9L362.4,108.6L368.3,108.6L368.3,104.9L374.1,104.9L374.1,108.6L380.0,108.6L380.0,104.9L380.0,101.3L374.1,101.3L374.1,97.6L380.0,97.6L380.0,94.0L380.0,90.3L374.1,90.3L374.1,94.0L368.3,94.0L362.4,94.0L362.4,90.3L368.3,90.3L368.3,86.7L362.4,86.7L362.4,83.0L368.3,83.0L374.1,83.0L374.1,86.7L380.0,86.7L380.0,83.0L380.0,79.4L374.1,79.4L374.1,75.7L380.0,75.7L380.0,72.1L380.0,68.4L374.1,68.4L374.1,72.1L368.3,72.1L368.3,68.4L362.4,68.4L362.4,72.1L362.4,75.7L368.3,75.7L368.3,79.4L362.4,79.4L356.5,79.4L350.6,79.4L350.6,75.7L356.5,75.7L356.5,72.1L356.5,68.4L350.6,68.4L350.6,72.1L344.8,72.1L344.8,68.4L338.9,68.4L338.9,72.1L338.9,75.7L344.8,75.7L344.8,79.4L338.9,79.4L338.9,83.0L338.9,86.7L344.8,86.7L344.8,83.0L350.6,83.0L356.5,83.0L356.5,86.7L350.6,86.7L350.6,90.3L356.5,90.3L356.5,94.0L350.6,94.0L344.8,94.0L344.8,90.3L338.9,90.3L338.9,94.0L333.0,94.0L333.0,90.3L327.1,90.3L327.1,94.0L321.3,94.0L315.4,94.0L315.4,90.3L321.3,90.3L321.3,86.7L315.4,86.7L315.4,83.0L321.3,83.0L327.1,83.0L327.1,86.7L333.0,86.7L333.0,83.0L333.0,79.4L327.1,79.4L327.1,75.7L333.0,75.7L333.0,72.1L333.0,68.4L327.1,68.4L327.1,72.1L321.3,72.1L321.3,68.4L315.4,68.4L315.4,72.1L315.4,75.7L321.3,75.7L321.3,79.4L315.4,79.4L309.5,79.4L303.7,79.4L303.7,75.7L309.5,75.7L309.5,72.1L309.5,68.4L303.7,68.4L303.7,72.1L297.8,72.1L297.8,68.4L291.9,68.4L291.9,72.1L291.9,75.7L297.8,75.7L297.8,79.4L291.9,79.4L291.9,83.0L291.9,86.7L297.8,86.7L297.8,83.0L303.7,83.0L309.5,83.0L309.5,86.7L303.7,86.7L303.7,90.3L309.5,90.3L309.5,94.0L303.7,94.0L297.8,94.0L297.8,90.3L291.9,90.3L291.9,94.0L291.9,97.6L297.8,97.6L297.8,101.3L291.9,101.3L291.9,104.9L291.9,108.6L297.8,108.6L297.8,104.9L303.7,104.9L303.7,108.6L309.5,108.6L309.5,104.9L309.5,101.3L303.7,101.3L303.7,97.6L309.5,97.6L315.4,97.6L315.4,101.3L321.3,101.3L321.3,97.6L327.1,97.6L333.0,97.6L333.0,101.3L327.1,101.3L327.1,104.9L333.0,104.9L333.0,108.6L327.1,108.6L321.3,108.6L321.3,104.9L315.4,104.9L315.4,108.6L315.4,112.2L315.4,115.9L321.3,115.9L321.3,112.2L327.1,112.2L333.0,112.2L333.0,115.9L327.1,115.9L327.1,119.5L333.0,119.5L333.0,123.2L327.1,123.2L321.3,123.2L321.3,119.5L315.4,119.5L315.4,123.2L309.5,123.2L303.7,123.2L303.7,119.5L309.5,119.5L309.5,115.9L309.5,112.2L303.7,112.2L303.7,115.9L297.8,115.9L297.8,112.2L291.9,112.2L291.9,115.9L291.9,119.5L297.8,119.5L297.8,123.2L291.9,123.2L286.0,123.2L286.0,119.5L280.2,119.5L280.2,123.2L274.3,123.2L268.4,123.2L268.4,119.5L274.3,119.5L274.3,115.9L268.4,115.9L268.4,112.2L274.3,112.2L280.2,112.2L280.2,115.9L286.0,115.9L286.0,112.2L286.0,108.6L280.2,108.6L280.2,104.9L286.0,104.9L286.0,101.3L286.0,97.6L280.2,97.6L280.2,101.3L274.3,101.3L274.3,97.6L268.4,97.6L268.4,101.3L268.4,104.9L274.3,104.9L274.3,108.6L268.4,108.6L262.5,108.6L256.7,108.6L256.7,104.9L262.5,104.9L262.5,101.3L262.5,97.6L256.7,97.6L256.7,101.3L250.8,101.3L250.8,97.6L244.9,97.6L244.9,101.3L244.9,104.9L250.8,104.9L250.8,108.6L244.9,108.6L244.9,112.2L244.9,115.9L250.8,115.9L250.8,112.2L256.7,112.2L262.5,112.2L262.5,115.9L256.7,115.9L256.7,119.5L262.5,119.5L262.5,123.2L256.7,123.2L250.8,123.2L250.8,119.5L244.9,119.5L244.9,123.2L239.0,123.2L233.2,123.2L233.2,119.5L239.0,119.5L239.0,115.9L239.0,112.2L233.2,112.2L233.2,115.9L227.3,115.9L227.3,112.2L221.4,112.2L221.4,115.9L221.4,119.5L227.3,119.5L227.3,123.2L221.4,123.2L215.6,123.2L215.6,119.5L209.7,119.5L209.7,123.2L203.8,123.2L197.9,123.2L197.9,119.5L203.8,119.5L203.8,115.9L197.9,115.9L197.9,112.2L203.8,112.2L209.7,112.2L209.7,115.9L215.6,115.9L215.6,112.2L215.6,108.6L215.6,104.9L209.7,104.9L209.7,108.6L203.8,108.6L197.9,108.6L197.9,104.9L203.8,104.9L203.8,101.3L197.9,101.3L197.9,97.6L203.8,97.6L209.7,97.6L209.7,101.3L215.6,101.3L215.6,97.6L221.4,97.6L227.3,97.6L227.3,101.3L221.4,101.3L221.4,104.9L221.4,108.6L227.3,108.6L227.3,104.9L233.2,104.9L233.2,108.6L239.0,108.6L239.0,104.9L239.0,101.3L233.2,101.3L233.2,97.6L239.0,97.6L239.0,94.0L233.2,94.0L233.2,90.3L239.0,90.3L239.0,86.7L239.0,83.0L233.2,83.0L233.2,86.7L227.3,86.7L227.3,83.0L221.4,83.0L221.4,86.7L221.4,90.3L227.3,90.3L227.3,94.0L221.4,94.0L215.6,94.0L215.6,90.3L209.7,90.3L209.7,94.0L203.8,94.0L197.9,94.0L197.9,90.3L203.8,90.3L203.8,86.7L197.9,86.7L197.9,83.0L203.8,83.0L209.7,83.0L209.7,86.7L215.6,86.7L215.6,83.0L215.6,79.4L215.6,75.7L209.7,75.7L209.7,79.4L203.8,79.4L197.9,79.4L197.9,75.7L203.8,75.7L203.8,72.1L197.9,72.1L197.9,68.4L203.8,68.4L209.7,68.4L209.7,72.1L215.6,72.1L215.6,68.4L221.4,68.4L227.3,68.4L227.3,72.1L221.4,72.1L221.4,75.7L221.4,79.4L227.3,79.4L227.3,75.7L233.2,75.7L233.2,79.4L239.0,79.4L239.0,75.7L239.0,72.1L233.2,72.1L233.2,68.4L239.0,68.4L244.9,68.4L244.9,72.1L250.8,72.1L250.8,68.4L256.7,68.4L262.5,68.4L262.5,72.1L256.7,72.1L256.7,75.7L262.5,75.7L262.5,79.4L256.7,79.4L250.8,79.4L250.8,75.7L244.9,75.7L244.9,79.4L244.9,83.0L250.8,83.0L250.8,86.7L244.9,86.7L244.9,90.3L244.9,94.0L250.8,94.0L250.8,90.3L256.7,90.3L256.7,94.0L262.5,94.0L262.5,90.3L262.5,86.7L256.7,86.7L256.7,83.0L262.5,83.0L268.4,83.0L274.3,83.0L274.3,86.7L268.4,86.7L268.4,90.3L268.4,94.0L274.3,94.0L274.3,90.3L280.2,90.3L280.2,94.0L286.0,94.0L286.0,90.3L286.0,86.7L280.2,86.7L280.2,83.0L286.0,83.0L286.0,79.4L286.0,75.7L280.2,75.7L280.2,79.4L274.3,79.4L268.4,79.4L268.4,75.7L274.3,75.7L274.3,72.1L268.4,72.1L268.4,68.4L274.3,68.4L280.2,68.4L280.2,72.1L286.0,72.1L286.0,68.4L286.0,64.8L286.0,61.1L280.2,61.1L280.2,64.8L274.3,64.8L268.4,64.8L268.4,61.1L274.3,61.1L274.3,57.5L268.4,57.5L268.4,53.8L274.3,53.8L280.2,53.8L280.2,57.5L286.0,57.5L286.0,53.8L286.0,50.2L280.2,50.2L280.2,46.5L286.0,46.5L286.0,42.9L286.0,39.2L280.2,39.2L280.2,42.9L274.3,42.9L274.3,39.2L268.4,39.2L268.4,42.9L268.4,46.5L274.3,46.5L274.3,50.2L268.4,50.2L262.5,50.2L256.7,50.2L256.7,46.5L262.5,46.5L262.5,42.9L262.5,39.2L256.7,39.2L256.7,42.9L250.8,42.9L250.8,39.2L244.9,39.2L244.9,42.9L244.9,46.5L250.8,46.5L250.8,50.2L244.9,50.2L244.9,53.8L244.9,57.5L250.8,57.5L250.8,53.8L256.7,53.8L262.5,53.8L262.5,57.5L256.7,57.5L256.7,61.1L262.5,61.1L262.5,64.8L256.7,64.8L250.8,64.8L250.8,61.1L244.9,61.1L244.9,64.8L239.0,64.8L233.2,64.8L233.2,61.1L239.0,61.1L239.0,57.5L239.0,53.8L233.2,53.8L233.2,57.5L227.3,57.5L227.3,53.8L221.4,53.8L221.4,57.5L221.4,61.1L227.3,61.1L227.3,64.8L221.4,64.8L215.6,64.8L215.6,61.1L209.7,61.1L209.7,64.8L203.8,64.8L197.9,64.8L197.9,61.1L203.8,61.1L203.8,57.5L197.9,57.5L197.9,53.8L203.8,53.8L209.7,53.8L209.7,57.5L215.6,57.5L215.6,53.8L215.6,50.2L215.6,46.5L209.7,46.5L209.7,50.2L203.8,50.2L197.9,50.2L197.9,46.5L203.8,46.5L203.8,42.9L197.9,42.9L197.9,39.2L203.8,39.2L209.7,39.2L209.7,42.9L215.6,42.9L215.6,39.2L221.4,39.2L227.3,39.2L227.3,42.9L221.4,42.9L221.4,46.5L221.4,50.2L227.3,50.2L227.3,46.5L233.2,46.5L233.2,50.2L239.0,50.2L239.0,46.5L239.0,42.9L233.2,42.9L233.2,39.2L239.0,39.2L239.0,35.6L233.2,35.6L233.2,31.9L239.0,31.9L239.0,28.3L239.0,24.6L233.2,24.6L233.2,28.3L227.3,28.3L227.3,24.6L221.4,24.6L221.4,28.3L221.4,31.9L227.3,31.9L227.3,35.6L221.4,35.6L215.6,35.6L215.6,31.9L209.7,31.9L209.7,35.6L203.8,35.6L197.9,35.6L197.9,31.9L203.8,31.9L203.8,28.3L197.9,28.3L197.9,24.6L203.8,24.6L209.7,24.6L209.7,28.3L215.6,28.3L215.6,24.6L215.6,21.0L215.6,17.3L209.7,17.3L209.7,21.0L203.8,21.0L197.9,21.0L197.9,17.3L203.8,17.3L203.8,13.7L197.9,13.7L197.9,10.0L203.8,10.0L209.7,10.0L209.7,13.7L215.6,13.7L215.6,10.0L221.4,10.0L227.3,10.0L227.3,13.7L221.4,13.7L221.4,17.3L221.4,21.0L227.3,21.0L227.3,17.3L233.2,17.3L233.2,21.0L239.0,21.0L239.0,17.3L239.0,13.7L233.2,13.7L233.2,10.0L239.0,10.0L244.9,10.0L244.9,13.7L250.8,13.7L250.8,10.0L256.7,10.0L262.5,10.0L262.5,13.7L256.7,13.7L256.7,17.3L262.5,17.3L262.5,21.0L256.7,21.0L250.8,21.0L250.8,17.3L244.9,17.3L244.9,21.0L244.9,24.6L250.8,24.6L250.8,28.3L244.9,28.3L244.9,31.9L244.9,35.6L250.8,35.6L250.8,31.9L256.7,31.9L256.7,35.6L262.5,35.6L262.5,31.9L262.5,28.3L256.7,28.3L256.7,24.6L262.5,24.6L268.4,24.6L274.3,24.6L274.3,28.3L268.4,28.3L268.4,31.9L268.4,35.6L274.3,35.6L274.3,31.9L280.2,31.9L280.2,35.6L286.0,35.6L286.0,31.9L286.0,28.3L280.2,28.3L280.2,24.6L286.0,24.6L286.0,21.0L286.0,17.3L280.2,17.3L280.2,21.0L274.3,21.0L268.4,21.0L268.4,17.3L274.3,17.3L274.3,13.7L268.4,13.7L268.4,10.0L274.3,10.0L280.2,10.0L280.2,13.7L286.0,13.7L286.0,10.0L291.9,10.0L297.8,10.0L297.8,13.7L291.9,13.7L291.9,17.3L291.9,21.0L297.8,21.0L297.8,17.3L303.7,17.3L303.7,21.0L309.5,21.0L309.5,17.3L309.5,13.7L303.7,13.7L303.7,10.0L309.5,10.0L315.4,10.0L315.4,13.7L321.3,13.7L321.3,10.0L327.1,10.0L333.0,10.0L333.0,13.7L327.1,13.7L327.1,17.3L333.0,17.3L333.0,21.0L327.1,21.0L321.3,21.0L321.3,17.3L315.4,17.3L315.4,21.0L315.4,24.6L315.4,28.3L321.3,28.3L321.3,24.6L327.1,24.6L333.0,24.6L333.0,28.3L327.1,28.3L327.1,31.9L333.0,31.9L333.0,35.6L327.1,35.6L321.3,35.6L321.3,31.9L315.4,31.9L315.4,35.6L309.5,35.6L303.7,35.6L303.7,31.9L309.5,31.9L309.5,28.3L309.5,24.6L303.7,24.6L303.7,28.3L297.8,28.3L297.8,24.6L291.9,24.6L291.9,28.3L291.9,31.9L297.8,31.9L297.8,35.6L291.9,35.6L291.9,39.2L291.9,42.9L297.8,42.9L297.8,39.2L303.7,39.2L309.5,39.2L309.5,42.9L303.7,42.9L303.7,46.5L309.5,46.5L309.5,50.2L303.7,50.2L297.8,50.2L297.8,46.5L291.9,46.5L291.9,50.2L291.9,53.8L297.8,53.8L297.8,57.5L291.9,57.5L291.9,61.1L291.9,64.8L297.8,64.8L297.8,61.1L303.7,61.1L303.7,64.8L309.5,64.8L309.5,61.1L309.5,57.5L303.7,57.5L303.7,53.8L309.5,53.8L315.4,53.8L321.3,53.8L321.3,57.5L315.4,57.5L315.4,61.1L315.4,64.8L321.3,64.8L321.3,61.1L327.1,61.1L327.1,64.8L333.0,64.8L333.0,61.1L333.0,57.5L327.1,57.5L327.1,53.8L333.0,53.8L333.0,50.2L333.0,46.5L327.1,46.5L327.1,50.2L321.3,50.2L315.4,50.2L315.4,46.5L321.3,46.5L321.3,42.9L315.4,42.9L315.4,39.2L321.3,39.2L327.1,39.2L327.1,42.9L333.0,42.9L333.0,39.2L338.9,39.2L338.9,42.9L344.8,42.9L344.8,39.2L350.6,39.2L356.5,39.2L356.5,42.9L350.6,42.9L350.6,46.5L356.5,46.5L356.5,50.2L350.6,50.2L344.8,50.2L344.8,46.5L338.9,46.5L338.9,50.2L338.9,53.8L344.8,53.8L344.8,57.5L338.9,57.5L338.9,61.1L338.9,64.8L344.8,64.8L344.8,61.1L350.6,61.1L350.6,64.8L356.5,64.8L356.5,61.1L356.5,57.5L350.6,57.5L350.6,53.8L356.5,53.8L362.4,53.8L368.3,53.8L368.3,57.5L362.4,57.5L362.4,61.1L362.4,64.8L368.3,64.8L368.3,61.1L374.1,61.1L374.1,64.8L380.0,64.8L380.0,61.1L380.0,57.5L374.1,57.5L374.1,53.8L380.0,53.8L380.0,50.2L380.0,46.5L374.1,46.5L374.1,50.2L368.3,50.2L362.4,50.2L362.4,46.5L368.3,46.5L368.3,42.9L362.4,42.9L362.4,39.2L368.3,39.2L374.1,39.2L374.1,42.9L380.0,42.9L380.0,39.2L380.0,35.6L374.1,35.6L374.1,31.9L380.0,31.9L380.0,28.3L380.0,24.6L374.1,24.6L374.1,28.3L368.3,28.3L368.3,24.6L362.4,24.6L362.4,28.3L362.4,31.9L368.3,31.9L368.3,35.6L362.4,35.6L356.5,35.6L356.5,31.9L350.6,31.9L350.6,35.6L344.8,35.6L338.9,35.6L338.9,31.9L344.8,31.9L344.8,28.3L338.9,28.3L338.9,24.6L344.8,24.6L350.6,24.6L350.6,28.3L356.5,28.3L356.5,24.6L356.5,21.0L356.5,17.3L350.6,17.3L350.6,21.0L344.8,21.0L338.9,21.0L338.9,17.3L344.8,17.3L344.8,13.7L338.9,13.7L338.9,10.0L344.8,10.0L350.6,10.0L350.6,13.7L356.5,13.7L356.5,10.0L362.4,10.0L368.3,10.0L368.3,13.7L362.4,13.7L362.4,17.3L362.4,21.0L368.3,21.0L368.3,17.3L374.1,17.3L374.1,21.0L380.0,21.0L380.0,17.3L380.0,13.7L374.1,13.7L374.1,10.0L380.0,10.0" fill="none" stroke="#1F1F2A" stroke-width="1"></path></svg>
